<svg width="54" height="40" viewBox="0 0 54 40" fill="none" xmlns="http://www.w3.org/2000/svg">
<path fill-rule="evenodd" clip-rule="evenodd" d="M14.7414 0H31.5836L32.2401 1.33771H19.5875L33.2666 8.48014C35.2599 9.51926 36.8236 10.6898 37.7069 12.4933L49.5119 36.6318C50.1326 37.8859 51.5172 38.6503 53.1525 38.6503H54V39.9881H31.5358V38.6503H34.6154C35.1645 38.6503 35.63 38.4473 35.9284 38.077C36.2268 37.7068 36.2865 37.2768 36.0836 36.8588L20.4231 4.86115C20.1127 4.24007 19.9337 3.67871 19.8263 2.99791C19.8859 3.30845 19.8263 3.65482 19.6711 3.98925L11.1724 21.3556C9.29841 25.2016 9.29841 29.0594 11.1724 32.9053L14.6459 40H0L17.5703 4.0848C18.2029 2.79486 17.0809 1.4691 15.6963 1.34966H14.7414H12.6048V0H14.7414ZM19.7785 2.81875C19.7785 2.81875 19.7905 2.86653 19.8024 2.89042C19.8024 2.86653 19.7904 2.84264 19.7785 2.81875Z" fill="#D63447"/>
</svg>
