<svg width="56" height="57" viewBox="0 0 56 57" fill="none" xmlns="http://www.w3.org/2000/svg">
<path d="M27.8001 35.4H7.6001V53.7V56.9H27.8001H48.1001V53.7V35.4H27.8001Z" fill="#FFBA00"/>
<path d="M7.6001 5.70001V3.20001H14.0001V23.4H7.6001V20.9V19V17.1V15.2V13.3V11.4V9.5V7.60001V5.70001Z" fill="#FFB995"/>
<path d="M48.0998 35.4H27.7998V53.7V56.9H48.0998V53.7V35.4Z" fill="#FF8E00"/>
<path d="M11.4001 41.7H7.6001V46.8H11.4001V41.7Z" fill="#D23346"/>
<path d="M47.9999 41.7H35.3999V46.8H47.9999V41.7Z" fill="#D23346"/>
<path d="M53.0998 27.9L48.0998 35.4H27.7998L32.8998 27.9H53.0998Z" fill="#FDE09C"/>
<path d="M22.8 27.9L27.8 35.4H7.60004L2.5 27.9H22.8Z" fill="#FDE09C"/>
<path d="M50.6 3.5H45.5V6.60001H50.6V3.5Z" fill="#D23346"/>
<path d="M50.6 6.5H45.5V8.39999H50.6V6.5Z" fill="#475972"/>
<path d="M50.6 8.20001V19.7L48.1 23.4L45.5 19.7V8.20001H50.6Z" fill="#FFB995"/>
<path d="M1.90002 19C2.90002 19 3.80005 19.8 3.80005 20.9C3.80005 22 3.00002 22.8 1.90002 22.8C0.800024 22.8 0 22 0 20.9C0 19.8 0.800024 19 1.90002 19Z" fill="#D23346"/>
<path d="M40.5 19C41.9 19 43 20.1 43 21.5C43 22.9 41.9 24 40.5 24C39.1 24 38 22.9 38 21.5C37.9 20.1 39 19 40.5 19Z" fill="#D23346"/>
<path d="M37.4999 6.79999C37.2999 5.99999 36.8999 5.30001 36.4999 4.60001C35.9999 3.80001 35.3999 3.09999 34.6999 2.39999C32.9999 0.899994 30.7999 0 28.1999 0C22.7999 0 18.3999 4.29999 18.3999 9.79999C18.3999 13.9 20.9999 17.5 24.6999 18.9V21.4H27.0999H29.2999H31.6999V18.9C35.2999 17.5 37.9999 13.9 37.9999 9.79999C37.9999 8.69999 37.7999 7.69999 37.4999 6.79999Z" fill="#C4EAFF"/>
<path d="M54.6998 2C55.1998 2 55.5998 2.39999 55.5998 2.89999C55.5998 3.39999 55.1998 3.79999 54.6998 3.79999C54.1998 3.79999 53.7998 3.39999 53.7998 2.89999C53.7998 2.39999 54.1998 2 54.6998 2Z" fill="#FDE09C"/>
<path d="M53.4 22.2C53.9 22.2 54.3 22.6 54.3 23.1C54.3 23.6 53.9 24 53.4 24C52.9 24 52.5 23.6 52.5 23.1C52.5 22.6 52.9 22.2 53.4 22.2Z" fill="#FDE09C"/>
<path d="M42.1002 12.7C42.6002 12.7 43.0002 13.1 43.0002 13.6C43.0002 14.1 42.6002 14.5 42.1002 14.5C41.6002 14.5 41.2002 14.1 41.2002 13.6C41.2002 13.1 41.6002 12.7 42.1002 12.7Z" fill="#FDE09C"/>
<path d="M29.7001 53.1C30.0001 53.1 30.3001 53.4 30.3001 53.7C30.3001 54 30.0001 54.3 29.7001 54.3C29.4001 54.3 29.1001 54 29.1001 53.7C29.1001 53.4 29.4001 53.1 29.7001 53.1Z" fill="#D23346"/>
<path d="M19.2999 21.6C19.7999 21.6 20.1999 22 20.1999 22.5C20.1999 23 19.7999 23.4 19.2999 23.4C18.7999 23.4 18.3999 23 18.3999 22.5C18.3999 22 18.7999 21.6 19.2999 21.6Z" fill="#FDE09C"/>
<path d="M17.5002 0.600021C18.0002 0.700021 18.4002 1.10003 18.3002 1.70003C18.2002 2.20003 17.8002 2.60002 17.2002 2.50002C16.7002 2.40002 16.3002 2.00001 16.4002 1.40001C16.5002 0.900009 17.0002 0.500021 17.5002 0.600021Z" fill="#FDE09C"/>
<path d="M3.10022 7C3.60022 7 4.00018 7.39999 4.00018 7.89999C4.00018 8.39999 3.60022 8.79999 3.10022 8.79999C2.60022 8.79999 2.2002 8.39999 2.2002 7.89999C2.2002 7.39999 2.60022 7 3.10022 7Z" fill="#FDE09C"/>
<path d="M20.8001 53.7C20.8001 53.4 20.5001 53.1 20.2001 53.1H7.6001V53.7V54.3H20.2001C20.5001 54.4 20.8001 54.1 20.8001 53.7Z" fill="#D23346"/>
<path d="M48.1001 53.1H31.7001C31.4001 53.1 31.1001 53.4 31.1001 53.7C31.1001 54 31.4001 54.3 31.7001 54.3H48.1001V53.7V53.1Z" fill="#D23346"/>
<path d="M50.6 53.7C50.3 53.7 50 53.4 50 53.1V39.1C50 38.8 50.3 38.5 50.6 38.5C50.9 38.5 51.2 38.8 51.2 39.1V53.1C51.2 53.4 50.9 53.7 50.6 53.7Z" fill="#FFB995"/>
<path d="M5.10004 53.7C4.80004 53.7 4.5 53.4 4.5 53.1V39.1C4.5 38.8 4.80004 38.5 5.10004 38.5C5.40004 38.5 5.70001 38.8 5.70001 39.1V53.1C5.70001 53.4 5.40004 53.7 5.10004 53.7Z" fill="#FFB995"/>
<path d="M25.4998 9.39999C24.2998 9.39999 23.2998 10.4 23.2998 11.7C23.2998 12.9 24.2998 13.9 25.4998 13.9C25.8998 13.9 26.1998 13.8 26.4998 13.7V21.4C26.4998 21.7 26.7998 22 27.0998 22C27.3998 22 27.6998 21.7 27.6998 21.4V11.7C27.6998 10.5 26.6998 9.39999 25.4998 9.39999ZM25.4998 12.8C24.8998 12.8 24.4998 12.4 24.4998 11.8C24.4998 11.2 24.8998 10.8 25.4998 10.8C26.0998 10.8 26.4998 11.2 26.4998 11.8C26.4998 12.3 25.9998 12.8 25.4998 12.8Z" fill="#D23346"/>
<path d="M30.9997 9.39999C29.7997 9.39999 28.6997 10.4 28.6997 11.7V21.4C28.6997 21.7 28.9997 22 29.2997 22C29.5997 22 29.8997 21.7 29.8997 21.4V13.7C30.1997 13.9 30.4997 13.9 30.8997 13.9C32.0997 13.9 33.0997 12.9 33.0997 11.7C33.1997 10.5 32.1997 9.39999 30.9997 9.39999ZM30.9997 12.8C30.3997 12.8 29.9997 12.4 29.9997 11.8C29.9997 11.2 30.3997 10.8 30.9997 10.8C31.5997 10.8 31.9997 11.2 31.9997 11.8C31.9997 12.3 31.4997 12.8 30.9997 12.8Z" fill="#D23346"/>
<path d="M43.0002 7.39999H22.8002C22.5002 7.39999 22.2002 7.09999 22.2002 6.79999C22.2002 6.49999 22.4002 6.20001 22.8002 6.20001H43.0002C43.3002 6.20001 43.6002 6.49999 43.6002 6.79999C43.6002 7.09999 43.3002 7.39999 43.0002 7.39999Z" fill="#3EB5AA"/>
<path d="M39.8002 5.29999H28.3002C28.0002 5.29999 27.7002 5.00001 27.7002 4.70001C27.7002 4.40001 28.0002 4.10001 28.3002 4.10001H39.8002C40.1002 4.10001 40.4002 4.40001 40.4002 4.70001C40.4002 5.00001 40.1002 5.29999 39.8002 5.29999Z" fill="#3EB5AA"/>
<path d="M36.9 3.10001H26.6C26.3 3.10001 26 2.8 26 2.5C26 2.2 26.3 1.89999 26.6 1.89999H36.9C37.2 1.89999 37.5 2.2 37.5 2.5C37.5 2.8 37.3 3.10001 36.9 3.10001Z" fill="#3EB5AA"/>
<path d="M10.7001 20.9C10.7001 20.6 10.4001 20.3 10.1001 20.3H7.6001V20.9V21.5H10.1001C10.4001 21.5 10.7001 21.2 10.7001 20.9Z" fill="#D23346"/>
<path d="M10.1001 19C10.1001 18.7 9.80006 18.4 9.50006 18.4H7.6001V19V19.6H9.50006C9.80006 19.7 10.1001 19.4 10.1001 19Z" fill="#D23346"/>
<path d="M10.7001 17.1C10.7001 16.8 10.4001 16.5 10.1001 16.5H7.6001V17.1V17.7H10.1001C10.4001 17.7 10.7001 17.4 10.7001 17.1Z" fill="#D23346"/>
<path d="M10.1001 15.2C10.1001 14.9 9.80006 14.6 9.50006 14.6H7.6001V15.2V15.8H9.50006C9.80006 15.8 10.1001 15.5 10.1001 15.2Z" fill="#D23346"/>
<path d="M10.7001 13.3C10.7001 13 10.4001 12.7 10.1001 12.7H7.6001V13.3V13.9H10.1001C10.4001 13.9 10.7001 13.6 10.7001 13.3Z" fill="#D23346"/>
<path d="M10.1001 11.4C10.1001 11.1 9.80006 10.8 9.50006 10.8H7.6001V11.4V12H9.50006C9.80006 12.1 10.1001 11.8 10.1001 11.4Z" fill="#D23346"/>
<path d="M10.7001 9.5C10.7001 9.2 10.4001 8.89999 10.1001 8.89999H7.6001V9.5V10.1H10.1001C10.4001 10.2 10.7001 9.8 10.7001 9.5Z" fill="#D23346"/>
<path d="M10.1001 7.60001C10.1001 7.30001 9.80006 7 9.50006 7H7.6001V7.60001V8.20001H9.50006C9.80006 8.20001 10.1001 7.90001 10.1001 7.60001Z" fill="#D23346"/>
<path d="M10.7001 5.70001C10.7001 5.40001 10.4001 5.10001 10.1001 5.10001H7.6001V5.70001V6.29999H10.1001C10.4001 6.29999 10.7001 6.00001 10.7001 5.70001Z" fill="#D23346"/>
<path d="M31.6999 21.4H29.2999H27.0999H24.6999H24.3999V23.9H25.9999V24.2C25.9999 25.4 26.9999 26.4 28.1999 26.4C29.3999 26.4 30.3999 25.4 30.3999 24.2V23.9H31.9999V21.4H31.6999Z" fill="#475972"/>
<path d="M32.0999 21.4V23.9H30.2999H25.9999H24.3999V21.4H24.6999H27.0999H29.2999H31.6999H32.0999Z" fill="#74829C"/>
</svg>
