<svg width="53" height="56" viewBox="0 0 53 56" fill="none" xmlns="http://www.w3.org/2000/svg">
<path d="M38.7999 10.2L35.1999 13.7L12.3999 36.6L8.8999 40.1L15.8999 47.3L19.5999 43.6L42.2999 20.9L45.8999 17.3L38.7999 10.2Z" fill="#FFB995"/>
<path d="M12.447 36.466L8.84082 40.0722L15.9825 47.2139L19.5887 43.6077L12.447 36.466Z" fill="#D23346"/>
<path d="M45.9002 17.3L42.3002 20.9L35.2002 13.7L38.8002 10.2L45.9002 17.3Z" fill="#D23346"/>
<path d="M42.2999 20.9L19.5999 43.6L12.3999 36.6L35.1999 13.7L42.2999 20.9Z" fill="#FDE09C"/>
<path d="M49.4998 6.6C50.4998 7.6 50.9998 8.9 50.9998 10.1C50.9998 11.3 50.3998 12.7 49.4998 13.6L45.9998 17.1L38.7998 9.89999L42.2998 6.39999C44.2998 4.59999 47.4998 4.6 49.4998 6.6Z" fill="#74829C"/>
<path d="M15.9001 47.3L11.5001 51.7L2.6001 53.6L4.30011 44.6L8.90012 40.1L15.9001 47.3Z" fill="#FFBA00"/>
<path d="M1.89999 28.5C2.89999 28.5 3.79999 29.3 3.79999 30.4C3.79999 31.5 2.99999 32.3 1.89999 32.3C0.799994 32.3 0 31.5 0 30.4C0 29.3 0.899994 28.5 1.89999 28.5Z" fill="#74829C"/>
<path d="M31.9001 0C33.5001 0 34.7001 1.29999 34.7001 2.79999C34.7001 4.39999 33.4001 5.60001 31.9001 5.60001C30.4001 5.60001 29.1001 4.29999 29.1001 2.79999C29.1001 1.39999 30.4001 0 31.9001 0Z" fill="#D23346"/>
<path d="M32.8998 11.5L10.3998 33.6L17.2998 19.6H9.2998L16.0998 4.5H25.0998L21.8998 11.5H32.8998Z" fill="#74829C"/>
<path d="M51.5001 18.5C52.0001 18.5 52.4001 18.9 52.4001 19.4C52.4001 19.9 52.0001 20.3 51.5001 20.3C51.0001 20.3 50.6001 19.9 50.6001 19.4C50.6001 18.9 51.0001 18.5 51.5001 18.5Z" fill="#FFBA00"/>
<path d="M38.9 3.29999C39.4 3.29999 39.8 3.69998 39.8 4.19998C39.8 4.69998 39.4 5.10001 38.9 5.10001C38.4 5.10001 38 4.69998 38 4.19998C38 3.69998 38.4 3.29999 38.9 3.29999Z" fill="#FFBA00"/>
<path d="M26.3001 43.7C26.8001 43.7 27.2001 44.1 27.2001 44.6C27.2001 45.1 26.8001 45.5 26.3001 45.5C25.8001 45.5 25.4001 45.1 25.4001 44.6C25.3001 44.1 25.8001 43.7 26.3001 43.7Z" fill="#FFBA00"/>
<path d="M9.1998 3.29999C9.6998 3.29999 10.0998 3.69998 10.0998 4.19998C10.0998 4.69998 9.6998 5.10001 9.1998 5.10001C8.6998 5.10001 8.2998 4.69998 8.2998 4.19998C8.2998 3.69998 8.6998 3.29999 9.1998 3.29999Z" fill="#FFBA00"/>
<path d="M3.50012 37.4C4.00012 37.4 4.40012 37.8 4.40012 38.3C4.40012 38.8 4.00012 39.2 3.50012 39.2C3.00012 39.2 2.6001 38.8 2.6001 38.3C2.6001 37.8 3.00012 37.4 3.50012 37.4Z" fill="#FFBA00"/>
<path d="M1.60019 15.9C2.10019 15.9 2.50021 16.3 2.50021 16.8C2.50021 17.3 2.10019 17.7 1.60019 17.7C1.10019 17.7 0.700195 17.3 0.700195 16.8C0.700195 16.3 1.10019 15.9 1.60019 15.9Z" fill="#FFBA00"/>
<path d="M32.8998 49.4C32.5998 49.4 32.2998 49.1 32.2998 48.8V42.4C32.2998 42.1 32.5998 41.8 32.8998 41.8C33.1998 41.8 33.4998 42.1 33.4998 42.4V48.8C33.4998 49.1 33.1998 49.4 32.8998 49.4Z" fill="#475972"/>
<path d="M39.2001 49.4C38.9001 49.4 38.6001 49.1 38.6001 48.8V42.4C38.6001 42.1 38.9001 41.8 39.2001 41.8C39.5001 41.8 39.8001 42.1 39.8001 42.4V48.8C39.8001 49.1 39.6001 49.4 39.2001 49.4Z" fill="#475972"/>
<path d="M51.8999 49.4H45.4999C45.1999 49.4 44.8999 49.1 44.8999 48.8V42.4C44.8999 42.1 45.1999 41.8 45.4999 41.8H51.8999C52.1999 41.8 52.4999 42.1 52.4999 42.4V48.8C52.4999 49.1 52.2999 49.4 51.8999 49.4ZM46.1999 48.1H51.2999V43H46.1999V48.1Z" fill="#475972"/>
<path d="M39.2002 43H32.8002C32.5002 43 32.2002 42.7 32.2002 42.4V36C32.2002 35.7 32.5002 35.4 32.8002 35.4H39.2002C39.5002 35.4 39.8002 35.7 39.8002 36C39.8002 36.3 39.5002 36.6 39.2002 36.6H33.5002V41.7H39.2002C39.5002 41.7 39.8002 42 39.8002 42.3C39.8002 42.7 39.6002 43 39.2002 43Z" fill="#475972"/>
<path d="M45.6001 43H39.2001C38.9001 43 38.6001 42.7 38.6001 42.4V36C38.6001 35.7 38.9001 35.4 39.2001 35.4C39.5001 35.4 39.8001 35.7 39.8001 36V41.7H44.9001V36C44.9001 35.7 45.2001 35.4 45.5001 35.4C45.8001 35.4 46.1001 35.7 46.1001 36V42.4C46.2001 42.7 45.9001 43 45.6001 43Z" fill="#475972"/>
<path d="M45.6001 36.8H39.2001C38.9001 36.8 38.6001 36.5 38.6001 36.2V29.8C38.6001 29.5 38.9001 29.2 39.2001 29.2H45.6001C45.9001 29.2 46.2001 29.5 46.2001 29.8C46.2001 30.1 45.9001 30.4 45.6001 30.4H39.9001V35.5H45.6001C45.9001 35.5 46.2001 35.8 46.2001 36.1C46.2001 36.4 45.9001 36.8 45.6001 36.8Z" fill="#475972"/>
<path d="M32.8998 49.4H27.8998C27.5998 49.4 27.2998 49.1 27.2998 48.8C27.2998 48.5 27.5998 48.2 27.8998 48.2H32.8998C33.1998 48.2 33.4998 48.5 33.4998 48.8C33.4998 49.1 33.1998 49.4 32.8998 49.4Z" fill="#475972"/>
<path d="M45.6001 49.4H39.2001C38.9001 49.4 38.6001 49.1 38.6001 48.8C38.6001 48.5 38.9001 48.2 39.2001 48.2H45.6001C45.9001 48.2 46.2001 48.5 46.2001 48.8C46.2001 49.1 45.9001 49.4 45.6001 49.4Z" fill="#475972"/>
<path d="M39.2002 55.1H32.8002C32.5002 55.1 32.2002 54.8 32.2002 54.5V48.8C32.2002 48.5 32.5002 48.2 32.8002 48.2H39.2002C39.5002 48.2 39.8002 48.5 39.8002 48.8V54.5C39.8002 54.8 39.6002 55.1 39.2002 55.1ZM33.5002 53.8H38.6002V49.3H33.5002V53.8Z" fill="#475972"/>
<path d="M45.6 55.1C45.3 55.1 45 54.8 45 54.5V48.8C45 48.5 45.3 48.2 45.6 48.2C45.9 48.2 46.2 48.5 46.2 48.8V54.5C46.2 54.8 45.9 55.1 45.6 55.1Z" fill="#475972"/>
<path d="M51.8999 36.8H45.4999C45.1999 36.8 44.8999 36.5 44.8999 36.2V29.8C44.8999 29.5 45.1999 29.2 45.4999 29.2H47.9999C48.2999 29.2 48.5999 29.5 48.5999 29.8C48.5999 30.1 48.2999 30.4 47.9999 30.4H46.0999V35.5H51.1999V29.8C51.1999 29.5 51.4999 29.2 51.7999 29.2C52.0999 29.2 52.3999 29.5 52.3999 29.8V36.2C52.4999 36.5 52.2999 36.8 51.8999 36.8Z" fill="#475972"/>
<path d="M21.5002 50C23.1002 50 24.3002 51.3 24.3002 52.8C24.3002 54.3 23.0002 55.6 21.5002 55.6C19.9002 55.6 18.7002 54.3 18.7002 52.8C18.7002 51.3 19.9002 50 21.5002 50Z" fill="#D23346"/>
</svg>
