<svg width="56" height="56" viewBox="0 0 56 56" fill="none" xmlns="http://www.w3.org/2000/svg">
<path d="M50.7 46.1C52.8 46.1 54.4999 47.8 54.4999 49.9C54.4999 52 52.8 53.7 50.7 53.7C48.6 53.7 46.9 52 46.9 49.9C46.8 47.8 48.6 46.1 50.7 46.1Z" fill="#D23346"/>
<path d="M50.0001 3.8C51.4001 3.8 52.5001 4.9 52.5001 6.3C52.5001 7.7 51.4001 8.8 50.0001 8.8C48.6001 8.8 47.5001 7.7 47.5001 6.3C47.4001 4.9 48.7001 3.8 50.0001 3.8Z" fill="#D23346"/>
<path d="M27.8999 13.5C36.0999 13.5 42.7999 20.2 42.7999 28.4C42.7999 36.6 36.0999 43.3 27.8999 43.3V39C33.6999 39 38.3999 34.2 38.3999 28.5C38.3999 22.7 33.5999 18 27.8999 18V13.5Z" fill="#D23346"/>
<path d="M54.6998 13.9C55.1998 13.9 55.5998 14.3 55.5998 14.8C55.5998 15.3 55.1998 15.7 54.6998 15.7C54.1998 15.7 53.7998 15.3 53.7998 14.8C53.7998 14.3 54.1998 13.9 54.6998 13.9Z" fill="#FFBA00"/>
<path d="M37.0001 1.9C37.5001 1.9 37.9001 2.3 37.9001 2.8C37.9001 3.3 37.5001 3.7 37.0001 3.7C36.5001 3.7 36.1001 3.3 36.1001 2.8C36.1001 2.3 36.5001 1.9 37.0001 1.9Z" fill="#FFBA00"/>
<path d="M35.1998 52.2C35.6998 52.2 36.0998 52.6 36.0998 53.1C36.0998 53.6 35.6998 54 35.1998 54C34.6998 54 34.2998 53.6 34.2998 53.1C34.2998 52.6 34.6998 52.2 35.1998 52.2Z" fill="#FFBA00"/>
<path d="M39.7 51.9C39.5 51.9 39.3 51.8 39.2 51.7L35.0999 46.5C33.9999 46.9 32.7999 47.2 31.5999 47.4C31.2999 47.5 30.9 47.2 30.9 46.9C30.8 46.6 31.1 46.2 31.4 46.2C32.6 46 33.9 45.7 35 45.2C35.3 45.1 35.5 45.2 35.7 45.4L39.7 50.5L41.9 49.2L39.5 43.1C39.4 42.8 39.5 42.6 39.7 42.4C40.7 41.6 41.6 40.7 42.4 39.7C42.6 39.5 42.8999 39.4 43.0999 39.5L49.2 41.9L50.5 39.7L45.4 35.7C45.2 35.5 45.1 35.2 45.2 35C45.7 33.8 46 32.6 46.2 31.4C46.2 31.1 46.5 30.9 46.7 30.9L53.2 29.9V27.2L46.7 26.2C46.4 26.2 46.2 25.9 46.2 25.7C46 24.5 45.7 23.2 45.2 22.1C45.1 21.8 45.2 21.6 45.4 21.4L50.5 17.4L49.2 15.2L43.0999 17.6C42.7999 17.7 42.6 17.6 42.4 17.4C41.6 16.4 40.7 15.5 39.7 14.7C39.5 14.5 39.4 14.2 39.5 14L41.9 7.9L39.7 6.6L35.7 11.7C35.5 11.9 35.2 12 35 11.9C33.8 11.5 32.6 11.1 31.4 10.9C31.1 10.8 30.8 10.5 30.9 10.2C31 9.9 31.2999 9.6 31.5999 9.7C32.7999 9.9 33.8999 10.2 35.0999 10.6L39.2 5.4C39.4 5.2 39.7 5.1 40 5.2L43.0999 7C43.3999 7.2 43.5 7.5 43.4 7.8L41 14C41.8 14.7 42.5 15.4 43.2 16.2L49.4 13.8C49.7 13.7 50 13.8 50.2 14.1L52 17.2C52.2 17.5 52.0999 17.8 51.7999 18L46.5999 22.1C46.8999 23.1 47.2 24.1 47.4 25.1L54 26.1C54.3 26.1 54.5 26.4 54.5 26.7V30.3C54.5 30.6 54.3 30.9 54 30.9L47.5 31.9C47.3 32.9 47 33.9 46.7 34.9L51.9 39C52.1 39.2 52.1999 39.5 52.0999 39.8L50.2 42.8C50 43.1 49.7 43.2 49.4 43.1L43.2 40.7C42.5 41.5 41.8 42.2 41 42.9L43.4 49.1C43.5 49.4 43.3999 49.7 43.0999 49.9L40 51.7C39.9 51.8 39.8 51.9 39.7 51.9Z" fill="#FFBA00"/>
<path d="M19.6 3.8C17.1 3.8 14.7 4.9 13.2 6.7C6.30001 5.5 0 10.7 0 17.7C0 21.3 1.7 24.6 4.5 26.6C1.9 30.1 2.39999 35.2 5.79999 38C4.59999 43.3 8.50002 48.3 13.9 48.3C13.9 51.3 16.4 53.9 19.5 53.9C22.5 53.9 27.9 51.4 27.9 48.3C27.9 35.3 27.9 25.3 27.9 12.1C28 7.5 24.3 3.8 19.6 3.8Z" fill="#FDE09C"/>
<path d="M4.69995 49.9C5.69995 49.9 6.59991 50.7 6.59991 51.8C6.59991 52.8 5.79995 53.7 4.69995 53.7C3.69995 53.7 2.79992 52.9 2.79992 51.8C2.69992 50.7 3.49995 49.9 4.69995 49.9Z" fill="#74829C"/>
<path d="M16.3002 24.6C16.6002 24.6 16.9002 24.9 16.9002 25.2C16.9002 25.5 16.6002 25.8 16.3002 25.8C16.0002 25.8 15.7002 25.5 15.7002 25.2C15.7002 24.9 16.0002 24.6 16.3002 24.6Z" fill="#FFBA00"/>
<path d="M11.1998 53.8C11.6998 53.8 12.0998 54.2 12.0998 54.7C12.0998 55.2 11.6998 55.6 11.1998 55.6C10.6998 55.6 10.2998 55.2 10.2998 54.7C10.2998 54.2 10.6998 53.8 11.1998 53.8Z" fill="#FFBA00"/>
<path d="M9.40002 0C9.90002 0 10.3 0.400002 10.3 0.900002C10.3 1.4 9.90002 1.8 9.40002 1.8C8.90002 1.8 8.5 1.4 8.5 0.900002C8.5 0.400002 8.90002 0 9.40002 0Z" fill="#FFBA00"/>
<path d="M1.79987 41.7C2.29987 41.7 2.69989 42.1 2.69989 42.6C2.69989 43.1 2.29987 43.5 1.79987 43.5C1.29987 43.5 0.899902 43.1 0.899902 42.6C0.899902 42.1 1.29987 41.7 1.79987 41.7Z" fill="#FFBA00"/>
<path d="M18.1002 18.3C17.8002 18.3 17.6002 18.1 17.5002 17.8C16.8002 14.7 14.1002 14.4 14.1002 14.4C13.8002 14.4 13.5002 14 13.6002 13.7C13.6002 13.4 14.0002 13.1 14.3002 13.2C15.5002 13.4 18.1002 14.5 18.9002 17.7C19.0002 18 18.8002 18.4 18.4002 18.4C18.2002 18.3 18.1002 18.3 18.1002 18.3Z" fill="#FFBA00"/>
<path d="M21.0999 32.7C18.2999 31 17.5999 27.4 17.5999 27.4C17.4999 27.1 17.2 26.8 16.9 26.9C16.6 27 16.3 27.3 16.4 27.6C16.4 27.8 17.2 31.7 20.5 33.8C21.7 34.5 23.0999 34.9 24.5999 34.9C25.5999 34.9 26.7 34.7 27.9 34.4C27.9 34 27.9 33.5 27.9 33.1C25.3 34 22.9999 33.8 21.0999 32.7Z" fill="#FFBA00"/>
<path d="M21.0001 42.3C21.0001 42 20.7001 41.7 20.4001 41.7C20.1001 41.7 19.8001 42 19.8001 42.3C19.8001 45.5 17.3001 48.3 14.1001 48.6C14.1001 49 14.2001 49.4 14.3001 49.8C18.1001 49.4 21.0001 46.2 21.0001 42.3Z" fill="#FFBA00"/>
<path d="M10 24.7C10.1 24.4 10 24 9.70001 23.9C9.40001 23.8 9.00002 23.9 8.90002 24.2C8.10002 25.9 6.29998 26.8 4.59998 26.4L4.70001 26.5C4.40001 26.8 4.2 27.2 4 27.6C4.4 27.7 4.89999 27.8 5.29999 27.8C7.19999 27.9 9.1 26.8 10 24.7Z" fill="#FFBA00"/>
</svg>
