<svg width="59" height="56" viewBox="0 0 59 56" fill="none" xmlns="http://www.w3.org/2000/svg">
<path d="M52.2002 10.1H6.10022C4.20022 10.1 2.7002 11.6 2.7002 13.5V44.5C2.7002 46.4 4.20022 47.9 6.10022 47.9H22.9002V50.4H35.5002V47.9H52.3002C54.2002 47.9 55.7002 46.4 55.7002 44.5V13.5C55.7002 11.6 54.1002 10.1 52.2002 10.1Z" fill="#74829C"/>
<path d="M7.7002 15.2V18.3V43H50.7002V15.2H7.7002Z" fill="#D7DEED"/>
<path d="M35.4001 23.4H12.8H12.6001C12.6001 26.1 12.6001 38 12.6001 39.9H35.2001H35.4001C35.5001 37.8 35.5001 26 35.4001 23.4Z" fill="#ECF0F1"/>
<path d="M11.4 3.10001C12.4 3.10001 13.3 3.9 13.3 5C13.3 6.1 12.5 6.90002 11.4 6.90002C10.3 6.90002 9.5 6.1 9.5 5C9.5 3.9 10.4 3.10001 11.4 3.10001Z" fill="#D23346"/>
<path d="M49.6999 0C51.2999 0 52.4999 1.30002 52.4999 2.80002C52.4999 4.40002 51.1999 5.60001 49.6999 5.60001C48.1999 5.60001 46.8999 4.30002 46.8999 2.80002C46.7999 1.20002 48.0999 0 49.6999 0Z" fill="#D23346"/>
<path d="M24.9998 26.5C26.1998 26.5 27.1998 27.5 27.1998 28.7C27.1998 29.9 26.1998 30.9 24.9998 30.9C23.7998 30.9 22.7998 29.9 22.7998 28.7C22.6998 27.5 23.7998 26.5 24.9998 26.5Z" fill="#FFBA00"/>
<path d="M28.4 32.5L35.3 39.7H26.4L24 37.2L28.4 32.5Z" fill="#3EB5AA"/>
<path d="M24.0002 37.2L26.4002 39.7H12.7002L19.5002 32.5L24.0002 37.2Z" fill="#64E1DB"/>
<path d="M55.2999 5.60001C55.7999 5.60001 56.1999 6 56.1999 6.5C56.1999 7 55.7999 7.40002 55.2999 7.40002C54.7999 7.40002 54.3999 7 54.3999 6.5C54.3999 6.1 54.7999 5.60001 55.2999 5.60001Z" fill="#FFB995"/>
<path d="M46.8002 31.5C47.1002 31.5 47.4002 31.8 47.4002 32.1C47.4002 32.4 47.1002 32.7 46.8002 32.7C46.5002 32.7 46.2002 32.4 46.2002 32.1C46.2002 31.8 46.5002 31.5 46.8002 31.5Z" fill="#D23346"/>
<path d="M42.6998 2.20001C43.1998 2.20001 43.5999 2.60001 43.5999 3.10001C43.5999 3.60001 43.1998 4 42.6998 4C42.1998 4 41.7998 3.60001 41.7998 3.10001C41.7998 2.60001 42.1998 2.20001 42.6998 2.20001Z" fill="#FFB995"/>
<path d="M29.4 4.40002C29.9 4.40002 30.3 4.80002 30.3 5.30002C30.3 5.80002 29.9 6.20001 29.4 6.20001C28.9 6.20001 28.5 5.80002 28.5 5.30002C28.5 4.80002 28.9 4.40002 29.4 4.40002Z" fill="#FFB995"/>
<path d="M24.7001 17.7C25.0001 17.7 25.3 18 25.3 18.3C25.3 18.6 25.0001 18.9 24.7001 18.9C24.4001 18.9 24.1001 18.6 24.1001 18.3C24.1001 18 24.3001 17.7 24.7001 17.7Z" fill="#97A8C4"/>
<path d="M17.4 0.600006C17.9 0.600006 18.3 1 18.3 1.5C18.3 2 17.9 2.40002 17.4 2.40002C16.9 2.40002 16.5 2 16.5 1.5C16.5 1 16.9 0.600006 17.4 0.600006Z" fill="#FFB995"/>
<path d="M3.50006 6.40002C4.00006 6.40002 4.40009 6.80002 4.40009 7.30002C4.40009 7.80002 4.00006 8.20001 3.50006 8.20001C3.00006 8.20001 2.6001 7.80002 2.6001 7.30002C2.6001 6.80002 3.00006 6.40002 3.50006 6.40002Z" fill="#FFB995"/>
<path d="M48.0999 40.4H40.4999C40.1999 40.4 39.8999 40.1 39.8999 39.8C39.8999 39.5 40.1999 39.2 40.4999 39.2H48.0999C48.3999 39.2 48.6999 39.5 48.6999 39.8C48.6999 40.1 48.3999 40.4 48.0999 40.4Z" fill="#D23346"/>
<path d="M48.0999 38.5H40.4999C40.1999 38.5 39.8999 38.2 39.8999 37.9C39.8999 37.6 40.1999 37.3 40.4999 37.3H48.0999C48.3999 37.3 48.6999 37.6 48.6999 37.9C48.6999 38.2 48.3999 38.5 48.0999 38.5Z" fill="#D23346"/>
<path d="M48.0999 36.6H40.4999C40.1999 36.6 39.8999 36.3 39.8999 36C39.8999 35.7 40.1999 35.4 40.4999 35.4H48.0999C48.3999 35.4 48.6999 35.7 48.6999 36C48.6999 36.3 48.3999 36.6 48.0999 36.6Z" fill="#D23346"/>
<path d="M48.0999 34.7H40.4999C40.1999 34.7 39.8999 34.4 39.8999 34.1C39.8999 33.8 40.1999 33.5 40.4999 33.5H48.0999C48.3999 33.5 48.6999 33.8 48.6999 34.1C48.6999 34.4 48.3999 34.7 48.0999 34.7Z" fill="#D23346"/>
<path d="M44.8998 32.9H40.3998C40.0998 32.9 39.7998 32.6 39.7998 32.3C39.7998 32 40.0998 31.7 40.3998 31.7H44.8998C45.1998 31.7 45.4998 32 45.4998 32.3C45.4998 32.6 45.2998 32.9 44.8998 32.9Z" fill="#D23346"/>
<path d="M48.0999 30.9H40.4999C40.1999 30.9 39.8999 30.6 39.8999 30.3C39.8999 30 40.1999 29.7 40.4999 29.7H48.0999C48.3999 29.7 48.6999 30 48.6999 30.3C48.6999 30.6 48.3999 30.9 48.0999 30.9Z" fill="#D23346"/>
<path d="M48.0999 29H40.4999C40.1999 29 39.8999 28.7 39.8999 28.4C39.8999 28.1 40.1999 27.8 40.4999 27.8H48.0999C48.3999 27.8 48.6999 28.1 48.6999 28.4C48.6999 28.7 48.3999 29 48.0999 29Z" fill="#D23346"/>
<path d="M48.0999 27.1H40.4999C40.1999 27.1 39.8999 26.8 39.8999 26.5C39.8999 26.2 40.1999 25.9 40.4999 25.9H48.0999C48.3999 25.9 48.6999 26.2 48.6999 26.5C48.6999 26.9 48.3999 27.1 48.0999 27.1Z" fill="#D23346"/>
<path d="M23.5002 18.3C23.5002 18 23.2002 17.7 22.9002 17.7H7.7002V18.3V18.9H22.9002C23.2002 18.9 23.5002 18.6 23.5002 18.3Z" fill="#97A8C4"/>
<path d="M57.1 48.9C57.8 49.6 58.2 50.5 58.2 51.6C58.2 53.7 56.5 55.4 54.4 55.4H3.79999C2.79999 55.4 1.80004 55 1.10004 54.3C0.400037 53.6 0 52.7 0 51.6C0 49.5 1.69999 47.8 3.79999 47.8H6H22.8V50.3H35.4V47.8H52.2H54.3C55.4 47.8 56.4 48.3 57.1 48.9Z" fill="#475972"/>
</svg>
