<svg width="57" height="54" viewBox="0 0 57 54" fill="none" xmlns="http://www.w3.org/2000/svg">
<path d="M51.463 44.4131C25.363 18.3131 55.363 48.3131 37.563 30.5131C42.163 22.7131 41.063 12.6131 34.463 5.91305C26.663 -1.88695 13.963 -1.98696 6.06303 5.71304C-1.93697 13.513 -2.03697 26.5131 5.86303 34.4131C12.563 41.1131 22.763 42.2131 30.463 37.5131C39.863 47.0131 41.463 48.6131 44.363 51.5131C46.363 53.5131 49.563 53.5131 51.563 51.5131C53.463 49.5131 53.463 46.4131 51.463 44.4131Z" fill="#74829C"/>
<path d="M26.0631 10.813H19.6631V17.213H26.0631V10.813Z" fill="#D23346"/>
<path d="M26.0631 17.0131H19.6631V23.4131H26.0631V17.0131Z" fill="#2D64BC"/>
<path d="M19.6632 17.0131H13.2632V23.4131H19.6632V17.0131Z" fill="#D23346"/>
<path d="M19.6632 23.4131H13.2632V29.813H19.6632V23.4131Z" fill="#2D64BC"/>
<path d="M26.0631 23.4131H19.6631V29.813H26.0631V23.4131Z" fill="#D23346"/>
<path d="M32.2629 23.4131V29.5131C32.1629 29.6131 32.0629 29.713 32.0629 29.813H25.9629V23.4131H32.2629Z" fill="#2D64BC"/>
<path d="M25.9629 29.713H32.0629C30.4629 31.713 28.4629 33.213 25.9629 34.313V29.713Z" fill="#D23346"/>
<path d="M25.963 29.713V34.313C24.163 35.013 22.263 35.4131 20.163 35.4131C19.963 35.4131 19.763 35.4131 19.563 35.4131V29.713H25.963Z" fill="#2D64BC"/>
<path d="M19.6632 29.713V35.4131C17.4632 35.3131 15.1632 34.713 13.2632 33.813V29.813H19.6632V29.713Z" fill="#D23346"/>
<path d="M13.2632 29.713V33.713C11.3632 32.713 9.66318 31.413 8.26318 29.713H13.2632Z" fill="#2D64BC"/>
<path d="M25.9628 17.0131V10.6131H19.5628V17.0131H13.1628V23.4131V29.813H8.16279C6.06279 27.213 4.86279 23.913 4.86279 20.313C4.86279 11.913 11.6628 5.11307 20.0628 5.11307C28.4628 5.11307 35.2628 11.913 35.2628 20.313C35.2628 23.713 34.1628 27.0131 32.1628 29.5131V23.4131H25.7628V17.0131H25.9628Z" fill="#515151"/>
<path d="M6.26279 43.713C7.26279 43.713 8.16279 44.5131 8.16279 45.6131C8.16279 46.6131 7.36279 47.5131 6.26279 47.5131C5.16279 47.5131 4.36279 46.7131 4.36279 45.6131C4.46279 44.5131 5.26279 43.713 6.26279 43.713Z" fill="#D23346"/>
<path d="M48.0629 11.4131C49.7629 11.4131 51.1629 12.8131 51.1629 14.5131C51.1629 16.2131 49.7629 17.6131 48.0629 17.6131C46.3629 17.6131 44.9629 16.2131 44.9629 14.5131C44.9629 12.8131 46.3629 11.4131 48.0629 11.4131Z" fill="#D23346"/>
<path d="M43.463 36.313L36.263 43.4131L33.563 40.813L40.663 33.6131L43.463 36.313Z" fill="#475972"/>
<path d="M45.8629 25.9131C46.3629 25.9131 46.7629 26.313 46.7629 26.813C46.7629 27.313 46.3629 27.713 45.8629 27.713C45.3629 27.713 44.9629 27.313 44.9629 26.813C44.9629 26.313 45.3629 25.9131 45.8629 25.9131Z" fill="#FDE09C"/>
<path d="M43.3631 3.21304C43.8631 3.21304 44.2631 3.61307 44.2631 4.11307C44.2631 4.61307 43.8631 5.01306 43.3631 5.01306C42.8631 5.01306 42.4631 4.61307 42.4631 4.11307C42.3631 3.61307 42.8631 3.21304 43.3631 3.21304Z" fill="#FDE09C"/>
<path d="M29.3629 44.313C29.8629 44.313 30.2629 44.713 30.2629 45.213C30.2629 45.713 29.8629 46.1131 29.3629 46.1131C28.8629 46.1131 28.4629 45.713 28.4629 45.213C28.4629 44.713 28.8629 44.313 29.3629 44.313Z" fill="#FDE09C"/>
<path d="M14.8629 48.1131C15.3629 48.1131 15.7629 48.5131 15.7629 49.0131C15.7629 49.5131 15.3629 49.9131 14.8629 49.9131C14.3629 49.9131 13.9629 49.5131 13.9629 49.0131C13.9629 48.5131 14.3629 48.1131 14.8629 48.1131Z" fill="#FDE09C"/>
<path d="M2.86289 1.31305C3.36289 1.31305 3.76289 1.71304 3.76289 2.21304C3.76289 2.71304 3.36289 3.11307 2.86289 3.11307C2.36289 3.11307 1.96289 2.71304 1.96289 2.21304C1.96289 1.71304 2.36289 1.31305 2.86289 1.31305Z" fill="#FDE09C"/>
<path d="M1.56309 37.4131C2.06309 37.4131 2.46309 37.813 2.46309 38.313C2.46309 38.813 2.06309 39.213 1.56309 39.213C1.06309 39.213 0.663086 38.813 0.663086 38.313C0.663086 37.813 1.06309 37.4131 1.56309 37.4131Z" fill="#FDE09C"/>
<path d="M55.6632 53.813H30.3632C30.0632 53.813 29.7632 53.513 29.7632 53.213C29.7632 52.913 30.0632 52.6131 30.3632 52.6131H55.6632C55.9632 52.6131 56.2632 52.913 56.2632 53.213C56.2632 53.513 55.9632 53.813 55.6632 53.813Z" fill="#475972"/>
<path d="M32.263 17.713C32.563 17.713 32.863 17.4131 32.863 17.1131V15.213C32.863 14.913 32.563 14.6131 32.263 14.6131C31.963 14.6131 31.663 14.913 31.663 15.213V16.5131H26.563V11.4131H28.563C28.863 11.4131 29.163 11.113 29.163 10.813C29.163 10.513 28.863 10.213 28.563 10.213H26.063H19.663C19.363 10.213 19.063 10.513 19.063 10.813V16.5131H13.363C13.063 16.5131 12.763 16.8131 12.763 17.1131V23.5131V29.213H8.46299C8.36299 29.213 8.16299 29.313 8.06299 29.313C8.16299 29.513 8.26299 29.613 8.46299 29.813C8.66299 30.013 8.76299 30.2131 8.96299 30.4131H12.663V33.4131C12.863 33.5131 13.063 33.613 13.263 33.713C13.463 33.813 13.663 33.9131 13.863 34.0131C13.863 33.9131 13.963 33.813 13.963 33.713V30.313H19.063V35.4131C19.263 35.4131 19.463 35.4131 19.663 35.4131C19.863 35.4131 20.063 35.4131 20.263 35.4131C20.263 35.4131 20.263 35.4131 20.363 35.4131V30.313H25.463V34.213C25.463 34.313 25.463 34.4131 25.463 34.4131C25.663 34.3131 25.863 34.313 26.063 34.213C26.263 34.113 26.463 34.0131 26.663 33.9131V30.313H31.663C31.863 30.113 32.063 29.913 32.163 29.713C32.263 29.613 32.363 29.5131 32.363 29.4131C32.563 29.1131 32.763 28.8131 32.963 28.5131V23.313C32.963 23.013 32.663 22.713 32.363 22.713H26.663V17.6131L32.263 17.713ZM25.263 22.713H20.163V17.6131H25.263V22.713ZM20.263 11.4131H25.363V16.5131H20.263V11.4131ZM13.863 17.713H18.963V22.813H13.863V17.713ZM13.863 29.1131V24.0131H18.963V29.1131H13.863ZM20.263 29.1131V24.0131H25.363V29.1131H20.263ZM31.563 29.1131H26.563V24.0131H31.563V29.1131Z" fill="#9E9E9E"/>
</svg>
