<svg width="56" height="55" viewBox="0 0 56 55" fill="none" xmlns="http://www.w3.org/2000/svg">
<path d="M38.4 50.6C38.9 51.1 39.1 51.7 39.1 52.4C39.1 53.8 38 54.9 36.6 54.9H19C18.3 54.9 17.7 54.6 17.2 54.2C16.7 53.8 16.5 53.1 16.5 52.4C16.5 51 17.6 49.9 19 49.9H36.7C37.3 49.8 38 50.1 38.4 50.6Z" fill="#475972"/>
<path d="M52.4 9.5C51.8 9.5 50.1 9.5 48 9.5C44.9 9.5 41.1 9.5 40.4 9.5C28.6 9.5 9.69998 9.5 3.19998 9.5C1.39998 9.5 0 10.9 0 12.7V46.6C0 48.4 1.39998 49.8 3.19998 49.8C5.99998 49.8 49.4 49.8 52.4 49.8C54.2 49.8 55.6 48.4 55.6 46.6C55.6 43.2 55.6 16.1 55.6 12.6C55.6 11 54.2 9.5 52.4 9.5Z" fill="#74829C"/>
<path d="M3.7998 13.3C3.7998 14.4 3.7998 41 3.7998 42.4H51.8998C51.8998 38.5 51.8998 17.3 51.8998 13.3H3.7998Z" fill="#ECF0F1"/>
<path d="M24.7001 25.9C24.4001 25.9 24.1001 25.6 24.1001 25.3V23.4C24.1001 23.1 24.4001 22.8 24.7001 22.8C25.0001 22.8 25.3001 23.1 25.3001 23.4V25.3C25.3001 25.6 25.0001 25.9 24.7001 25.9Z" fill="#D23346"/>
<path d="M27.2001 25.9C26.9001 25.9 26.6001 25.6 26.6001 25.3V23.4C26.6001 23.1 26.9001 22.8 27.2001 22.8C27.5001 22.8 27.8001 23.1 27.8001 23.4V25.3C27.8001 25.6 27.5001 25.9 27.2001 25.9Z" fill="#D23346"/>
<path d="M29.7001 25.9C29.4001 25.9 29.1001 25.6 29.1001 25.3V23.4C29.1001 23.1 29.4001 22.8 29.7001 22.8C30.0001 22.8 30.3001 23.1 30.3001 23.4V25.3C30.3001 25.6 30.0001 25.9 29.7001 25.9Z" fill="#D23346"/>
<path d="M32.3002 25.9C32.0002 25.9 31.7002 25.6 31.7002 25.3V23.4C31.7002 23.1 32.0002 22.8 32.3002 22.8C32.6002 22.8 32.9002 23.1 32.9002 23.4V25.3C32.9002 25.6 32.6002 25.9 32.3002 25.9Z" fill="#D23346"/>
<path d="M34.8002 25.9C34.5002 25.9 34.2002 25.6 34.2002 25.3V23.4C34.2002 23.1 34.5002 22.8 34.8002 22.8C35.1002 22.8 35.4002 23.1 35.4002 23.4V25.3C35.4002 25.6 35.1002 25.9 34.8002 25.9Z" fill="#D23346"/>
<path d="M37.2998 21.5H35.3998C35.0998 21.5 34.7998 21.2 34.7998 20.9C34.7998 20.6 35.0998 20.3 35.3998 20.3H37.2998C37.5998 20.3 37.8998 20.6 37.8998 20.9C37.8998 21.2 37.5998 21.5 37.2998 21.5Z" fill="#D23346"/>
<path d="M37.2998 18.9H35.3998C35.0998 18.9 34.7998 18.6 34.7998 18.3C34.7998 18 35.0998 17.7 35.3998 17.7H37.2998C37.5998 17.7 37.8998 18 37.8998 18.3C37.8998 18.6 37.5998 18.9 37.2998 18.9Z" fill="#D23346"/>
<path d="M37.2998 16.4H35.3998C35.0998 16.4 34.7998 16.1 34.7998 15.8C34.7998 15.5 35.0998 15.2 35.3998 15.2H37.2998C37.5998 15.2 37.8998 15.5 37.8998 15.8C37.8998 16.1 37.5998 16.4 37.2998 16.4Z" fill="#D23346"/>
<path d="M37.2998 13.9H35.3998C35.0998 13.9 34.7998 13.6 34.7998 13.3C34.7998 13 35.0998 12.7 35.3998 12.7H37.2998C37.5998 12.7 37.8998 13 37.8998 13.3C37.8998 13.6 37.5998 13.9 37.2998 13.9Z" fill="#D23346"/>
<path d="M8.49991 2.59999C9.39991 2.59999 10.0999 3.3 10.0999 4.2C10.0999 5.1 9.39991 5.79999 8.49991 5.79999C7.59991 5.79999 6.8999 5.1 6.8999 4.2C6.9999 3.3 7.69991 2.59999 8.49991 2.59999Z" fill="#D23346"/>
<path d="M50.6001 0C52.0001 0 53.1001 1.1 53.1001 2.5C53.1001 3.9 52.0001 5 50.6001 5C49.2001 5 48.1001 3.9 48.1001 2.5C48.0001 1.1 49.1001 0 50.6001 0Z" fill="#D23346"/>
<path d="M48.6001 22.8V36L46.1001 39.2L43.6001 36V22.8H48.6001Z" fill="#D23346"/>
<path d="M40.4 13.3V28.5H12L27.2 13.3L31 9.5L40.5 0V9.5V13.3H40.4ZM37.3 25.3V20.8V18.3V15.8V13.3V7.59999L19.6 25.3H24.7H27.2H29.7H32.2H34.7H37.3Z" fill="#FFBA00"/>
<path d="M44.6002 4.5C45.1002 4.5 45.5002 4.89999 45.5002 5.39999C45.5002 5.89999 45.1002 6.29999 44.6002 6.29999C44.1002 6.29999 43.7002 5.89999 43.7002 5.39999C43.7002 4.89999 44.1002 4.5 44.6002 4.5Z" fill="#FFB995"/>
<path d="M28.7 45.2C28.9 45.4 29.1 45.7 29.1 46.1C29.1 46.4 29 46.8 28.7 47C28.5 47.2 28.2 47.4 27.8 47.4C27.1 47.4 26.5 46.8 26.5 46.1C26.5 45.8 26.6 45.4 26.9 45.2C27.2 45 27.4 44.8 27.8 44.8C28.2 44.8 28.5 45 28.7 45.2Z" fill="#2D64BC"/>
<path d="M26.1998 3.2C26.6998 3.2 27.0998 3.59999 27.0998 4.09999C27.0998 4.59999 26.6998 5 26.1998 5C25.6998 5 25.2998 4.59999 25.2998 4.09999C25.2998 3.59999 25.6998 3.2 26.1998 3.2Z" fill="#FFB995"/>
<path d="M20.8002 38.6C21.1002 38.6 21.4002 38.9 21.4002 39.2C21.4002 39.5 21.1002 39.8 20.8002 39.8C20.5002 39.8 20.2002 39.5 20.2002 39.2C20.2002 38.8 20.5002 38.6 20.8002 38.6Z" fill="#A4ACB2"/>
<path d="M14.1998 1.89999C14.6998 1.89999 15.0998 2.29999 15.0998 2.79999C15.0998 3.29999 14.6998 3.7 14.1998 3.7C13.6998 3.7 13.2998 3.29999 13.2998 2.79999C13.2998 2.39999 13.6998 1.89999 14.1998 1.89999Z" fill="#FFB995"/>
<path d="M11.9999 17.7C12.2999 17.7 12.5999 18 12.5999 18.3C12.5999 18.6 12.2999 18.9 11.9999 18.9C11.6999 18.9 11.3999 18.6 11.3999 18.3C11.3999 18 11.6999 17.7 11.9999 17.7Z" fill="#A4ACB2"/>
<path d="M2.7999 5.7C3.2999 5.7 3.69989 6.09999 3.69989 6.59999C3.69989 7.09999 3.2999 7.5 2.7999 7.5C2.2999 7.5 1.8999 7.09999 1.8999 6.59999C1.8999 6.09999 2.2999 5.7 2.7999 5.7Z" fill="#FFB995"/>
<path d="M51.2002 53.1H44.8002C44.5002 53.1 44.2002 52.8 44.2002 52.5C44.2002 52.2 44.5002 51.9 44.8002 51.9H51.2002C51.5002 51.9 51.8002 52.2 51.8002 52.5C51.9002 52.8 51.6002 53.1 51.2002 53.1Z" fill="#D7DEED"/>
<path d="M10.7002 53.1H4.3002C4.0002 53.1 3.7002 52.8 3.7002 52.5C3.7002 52.2 4.0002 51.9 4.3002 51.9H10.7002C11.0002 51.9 11.3002 52.2 11.3002 52.5C11.4002 52.8 11.1002 53.1 10.7002 53.1Z" fill="#D7DEED"/>
<path d="M19.5998 39.2C19.5998 38.9 19.2998 38.6 18.9998 38.6H3.7998C3.7998 39 3.7998 39.5 3.7998 39.9H18.9998C19.2998 39.9 19.5998 39.6 19.5998 39.2Z" fill="#A4ACB2"/>
<path d="M9.49982 22.8C9.79982 22.8 10.0998 22.5 10.0998 22.2V13.3C9.69979 13.3 9.2998 13.3 8.7998 13.3V22.2C8.8998 22.5 9.09982 22.8 9.49982 22.8Z" fill="#A4ACB2"/>
<path d="M11.9998 17.1C12.2998 17.1 12.5998 16.8 12.5998 16.5V13.3C12.1998 13.3 11.7998 13.3 11.2998 13.3V16.4C11.3998 16.8 11.5998 17.1 11.9998 17.1Z" fill="#A4ACB2"/>
<path d="M48.7001 21H43.6001V22.9H48.7001V21Z" fill="#74829C"/>
<path d="M48.7001 17.9H43.6001V21H48.7001V17.9Z" fill="#475972"/>
</svg>
