<svg width="207" height="60" viewBox="0 0 207 60" fill="none" xmlns="http://www.w3.org/2000/svg">
<path fill-rule="evenodd" clip-rule="evenodd" d="M0 41.9798L7.40401 36.3086C11.3357 41.4419 15.5111 43.8074 20.1638 43.8074C24.7907 43.8074 28.8513 41.4691 32.6069 36.3765L40.1129 41.9119C34.6981 49.2545 27.9613 53.1338 20.1638 53.1338C12.3921 53.1338 5.59292 49.2818 0 41.9798Z" fill="url(#paint0_linear_499_52547)"/>
<path fill-rule="evenodd" clip-rule="evenodd" d="M20.1365 17.3338L6.95854 28.6892L0.870605 21.6239L20.1626 5L39.3048 21.6369L33.1868 28.6762L20.1365 17.3338Z" fill="url(#paint1_linear_499_52547)"/>
<path d="M90.653 14.5859H83.1919V45.674H90.653V14.5859Z" fill="#9A9A9A"/>
<path fill-rule="evenodd" clip-rule="evenodd" d="M68.1142 45.8118C63.7159 45.8118 60.0507 44.3864 57.0777 41.5356C54.1048 38.6441 52.6387 34.9381 52.6387 30.4175C52.6387 25.8563 54.1456 22.1096 57.1184 19.1774C60.1321 16.2044 63.7973 14.7383 68.1549 14.7383C73.5304 14.7383 78.2954 17.0596 81.0645 20.6842L76.2183 25.7749C73.8969 23.2906 71.3722 22.0281 68.6436 22.0281C66.3223 22.0281 64.4082 22.8019 62.8199 24.3902C61.2724 25.9785 60.4986 27.9741 60.4986 30.3769C60.4986 32.6982 61.2724 34.653 62.8199 36.2413C64.4082 37.7889 66.3223 38.5626 68.6029 38.5626C71.5758 38.5626 74.1821 37.2594 76.3404 34.6937L81.3907 39.5401C80.0062 41.3727 78.1323 42.8795 75.8109 44.0606C73.4902 45.2416 70.9242 45.8118 68.1142 45.8118Z" fill="#9A9A9A"/>
<path fill-rule="evenodd" clip-rule="evenodd" d="M101.842 17.0727C101.842 19.3048 100.033 21.1142 97.8009 21.1142C95.5687 21.1142 93.7593 19.3048 93.7593 17.0727C93.7593 14.8407 95.5687 13.0312 97.8009 13.0312C100.033 13.0312 101.842 14.8407 101.842 17.0727ZM101.531 22.9794H94.0701V45.6737H101.531V22.9794Z" fill="#9A9A9A"/>
<path fill-rule="evenodd" clip-rule="evenodd" d="M115.954 45.8517C112.411 45.8517 109.56 44.7522 107.32 42.553C105.121 40.3538 104.021 37.5438 104.021 34.0821C104.021 30.6205 105.121 27.8104 107.361 25.6113C109.601 23.4121 112.492 22.3125 116.076 22.3125C120.76 22.3125 124.872 24.5931 126.786 28.8693L121.044 31.8829C119.904 29.9689 118.316 28.9914 116.239 28.9914C114.732 28.9914 113.51 29.4802 112.533 30.4575C111.596 31.435 111.107 32.6567 111.107 34.0821C111.107 37.055 113.266 39.2542 116.158 39.2542C118.234 39.2542 120.148 38.1139 120.963 36.3627L126.705 39.7837C124.75 43.5304 120.719 45.8517 115.954 45.8517Z" fill="#9A9A9A"/>
<path fill-rule="evenodd" clip-rule="evenodd" d="M136.04 14.5859H128.579V45.674H136.04V37.7598L136.914 36.9445L143.734 45.674H152.413L141.935 32.2622L151.889 22.9796H142.772L136.04 29.2583V14.5859Z" fill="#9A9A9A"/>
<path fill-rule="evenodd" clip-rule="evenodd" d="M153.761 33.9264V14.5859H161.534V33.4934C161.534 36.8736 163.503 38.5026 166.352 38.5026C169.159 38.5026 171.171 36.7921 171.171 33.4934V14.5859H178.942V33.9264C178.942 42.8045 172.709 46.144 166.352 46.144C160.036 46.144 153.761 42.8045 153.761 33.9264Z" fill="#9A9A9A"/>
<path fill-rule="evenodd" clip-rule="evenodd" d="M195.731 46.2949C201.74 46.2949 206.612 41.0059 206.612 34.4814C206.612 27.957 201.74 22.668 195.731 22.668C193.281 22.668 191.021 23.5467 189.202 25.0297V22.9789H182.052V54.9996H189.202V43.9332C191.021 45.4161 193.281 46.2949 195.731 46.2949ZM189.202 34.4935V34.4693C189.209 31.556 191.503 29.1964 194.332 29.1964C197.165 29.1964 199.462 31.5626 199.462 34.4814C199.462 37.4002 197.165 39.7664 194.332 39.7664C191.503 39.7664 189.209 37.4068 189.202 34.4935Z" fill="#9A9A9A"/>
<defs>
<linearGradient id="paint0_linear_499_52547" x1="0" y1="47.751" x2="40.1129" y2="47.751" gradientUnits="userSpaceOnUse">
<stop stop-color="#979797"/>
<stop offset="1" stop-color="#A1A1A1"/>
</linearGradient>
<linearGradient id="paint1_linear_499_52547" x1="0.870605" y1="21.11" x2="39.3048" y2="21.11" gradientUnits="userSpaceOnUse">
<stop stop-color="#818181"/>
<stop offset="1" stop-color="#808080"/>
</linearGradient>
</defs>
</svg>
