<svg width="254" height="60" viewBox="0 0 254 60" fill="none" xmlns="http://www.w3.org/2000/svg">
<g clip-path="url(#clip0_496_28538)">
<path d="M33.6221 30.0037C33.6221 24.4401 38.1152 19.9297 43.6578 19.9297C49.2003 19.9297 53.6935 24.4401 53.6935 30.0037C53.6935 35.5675 49.2003 40.0778 43.6578 40.0778C38.1152 40.0778 33.6221 35.5675 33.6221 30.0037Z" fill="#8C8C8C"/>
<path d="M13.5483 50.1522C13.5483 44.5885 18.0415 40.0781 23.5841 40.0781H33.6198V50.1522C33.6198 55.716 29.1267 60.2262 23.5841 60.2262C18.0415 60.2262 13.5483 55.716 13.5483 50.1522Z" fill="#6D6D6D"/>
<path d="M33.6221 -0.21875V19.9293H43.6578C49.2004 19.9293 53.6935 15.419 53.6935 9.8553C53.6935 4.29156 49.2004 -0.21875 43.6578 -0.21875H33.6221Z" fill="#B1B1B1"/>
<path d="M13.5483 9.8553C13.5483 15.419 18.0415 19.9293 23.5841 19.9293H33.6198V-0.21875H23.5841C18.0415 -0.21875 13.5483 4.29155 13.5483 9.8553Z" fill="#888888"/>
<path d="M13.5483 30.0037C13.5483 35.5675 18.0415 40.0778 23.5841 40.0778H33.6198V19.9297H23.5841C18.0415 19.9297 13.5483 24.4401 13.5483 30.0037Z" fill="#ACACAC"/>
</g>
<g clip-path="url(#clip1_496_28538)">
<path d="M87.7432 0.00289602V46.3494L93.7066 46.3678V24.297H108.085V18.4633H93.7066V5.83382H112.432V0L87.7432 0.00289602Z" fill="#9A9A9A"/>
<path d="M123.161 9.41085C125.309 9.41085 127.05 7.66959 127.05 5.52163C127.05 3.37368 125.309 1.63242 123.161 1.63242C121.013 1.63242 119.272 3.37368 119.272 5.52163C119.272 7.66959 121.013 9.41085 123.161 9.41085Z" fill="#9A9A9A"/>
<path d="M120.134 15.2461V46.3599H126.098V15.2461H120.134Z" fill="#9A9A9A"/>
<path fill-rule="evenodd" clip-rule="evenodd" d="M148.214 14.3379C140.295 14.3379 134.769 21.0354 134.769 28.9872C134.769 36.9392 140.295 43.6366 148.214 43.6366C151.84 43.6366 154.827 42.233 157.002 39.9481V44.0904C157.002 49.2454 152.953 53.5541 147.668 53.5541C145.768 53.5541 143.881 52.8178 142.377 51.7815L139.389 56.9566C141.776 58.495 144.618 59.3879 147.668 59.3879C156.117 59.3879 162.965 52.5389 162.965 44.0904V15.2454H157.002V18.0265C154.827 15.7415 151.84 14.3379 148.214 14.3379ZM140.732 28.9872C140.732 24.0513 144.508 20.1717 148.862 20.1717C153.217 20.1717 156.993 24.0513 156.993 28.9872C156.993 33.9231 153.217 37.8028 148.862 37.8028C144.508 37.8028 140.732 33.9231 140.732 28.9872Z" fill="#9A9A9A"/>
<path d="M184.458 20.1717C180.932 20.1717 178.073 23.1598 178.073 26.6861V46.3592H172.11V15.2454H178.073V18.0956C179.821 15.8368 182.395 14.3379 185.754 14.3379C189.933 14.3379 193.14 16.4134 194.998 19.5897C197.063 16.5216 200.432 14.3379 204.487 14.3379C211.275 14.3379 215.499 19.8139 215.539 26.5888C215.539 26.6093 215.539 26.6297 215.539 26.6504V26.6536C215.539 26.6644 215.539 26.6752 215.539 26.6861V46.3592H209.576V26.6861C209.576 23.1598 206.717 20.1717 203.191 20.1717C199.665 20.1717 196.806 23.1598 196.806 26.6861V46.3592H190.843V26.6861C190.843 23.1598 187.984 20.1717 184.458 20.1717Z" fill="#9A9A9A"/>
<path fill-rule="evenodd" clip-rule="evenodd" d="M247.298 18.7724C244.645 16.0329 241.011 14.3379 236.797 14.3379C227.925 14.3379 221.629 21.8494 221.629 30.8021C221.629 39.755 227.925 47.2665 236.797 47.2665C241.011 47.2665 244.645 45.5716 247.298 42.832V46.3592H253.261V15.2454H247.298V18.7724ZM227.593 30.8021C227.593 24.8626 232.141 20.1717 237.445 20.1717C242.75 20.1717 247.298 24.8626 247.298 30.8021C247.298 36.7419 242.75 41.4327 237.445 41.4327C232.141 41.4327 227.593 36.7419 227.593 30.8021Z" fill="#9A9A9A"/>
</g>
<defs>
<clipPath id="clip0_496_28538">
<rect width="67.7419" height="60" fill="white"/>
</clipPath>
<clipPath id="clip1_496_28538">
<rect width="166" height="58" fill="white" transform="translate(87.7417 1)"/>
</clipPath>
</defs>
</svg>
