<svg width="230" height="60" viewBox="0 0 230 60" fill="none" xmlns="http://www.w3.org/2000/svg">
<path d="M50.6385 0H10.8969C4.8787 0 0 4.87895 0 10.8974V49.1026C0 55.1211 4.8787 60 10.8969 60H50.6385C56.6567 60 61.5354 55.1211 61.5354 49.1026V10.8974C61.5354 4.87895 56.6567 0 50.6385 0Z" fill="#676767"/>
<path d="M29.8197 36.011H20.2841L18.344 42.0382C18.3175 42.1481 18.2536 42.2453 18.1631 42.3131C18.0727 42.3809 17.9615 42.4151 17.8486 42.4097H13.0188C12.7434 42.4097 12.6471 42.2583 12.7299 41.9556L20.9858 18.1771C21.0684 17.9295 21.151 17.6474 21.2336 17.3308C21.3415 16.78 21.3968 16.2202 21.3987 15.659C21.3931 15.6197 21.3967 15.5797 21.4092 15.5421C21.4218 15.5044 21.4429 15.4703 21.4709 15.4422C21.499 15.4142 21.5331 15.3931 21.5708 15.3805C21.6084 15.368 21.6484 15.3643 21.6876 15.3699H28.2511C28.4434 15.3699 28.5534 15.4388 28.5813 15.5764L37.952 41.9968C38.0345 42.2723 37.9519 42.4099 37.7042 42.4097H32.3378C32.2456 42.4199 32.1529 42.3962 32.0769 42.343C32.001 42.2898 31.947 42.2108 31.925 42.1207L29.8197 36.011ZM21.7701 30.8094H28.2924C28.1273 30.2593 27.9346 29.64 27.7145 28.9517C27.4939 28.2641 27.26 27.5279 27.0128 26.7431C26.765 25.9588 26.5173 25.1745 26.2696 24.3901C26.022 23.6057 25.795 22.8489 25.5886 22.1195C25.3821 21.3907 25.1964 20.7233 25.0313 20.1174H24.99C24.7576 21.2323 24.4683 22.3346 24.1232 23.4199C23.7375 24.6584 23.3453 25.9244 22.9466 27.2179C22.5474 28.5118 22.1552 29.709 21.7701 30.8094Z" fill="#989898"/>
<path d="M43.5322 19.7457C43.1112 19.7626 42.6913 19.6905 42.3001 19.534C41.9088 19.3775 41.555 19.1402 41.2618 18.8375C40.9694 18.5218 40.7423 18.1514 40.5935 17.7475C40.4447 17.3437 40.3772 16.9145 40.3948 16.4845C40.3798 16.0587 40.4548 15.6346 40.6149 15.2398C40.7749 14.845 41.0164 14.4884 41.3237 14.1933C41.6279 13.9012 41.987 13.6724 42.3803 13.5201C42.7736 13.3677 43.1931 13.2949 43.6147 13.3057C44.6055 13.3057 45.3829 13.6016 45.9471 14.1933C46.2318 14.5008 46.4531 14.8614 46.5983 15.2546C46.7435 15.6477 46.8098 16.0657 46.7933 16.4845C46.8105 16.9161 46.7409 17.3469 46.5884 17.7511C46.4359 18.1553 46.2038 18.5248 45.9058 18.8375C45.5943 19.1446 45.2226 19.3838 44.8141 19.5401C44.4056 19.6964 43.9691 19.7664 43.5322 19.7457ZM40.6838 41.9967V22.2639C40.6838 22.0162 40.7935 21.8924 41.0141 21.8924H46.0915C46.3115 21.8924 46.4216 22.0162 46.4218 22.2639V41.9967C46.4218 42.2722 46.3117 42.4098 46.0915 42.4096H41.0554C40.8077 42.4096 40.6839 42.2719 40.6838 41.9967Z" fill="#989898"/>
<path d="M84.1423 19.9587V43.666C84.1423 43.9253 84.0682 43.9994 83.846 43.9994H79.9565C79.7342 43.9994 79.6602 43.8883 79.6602 43.666V19.9587C79.6602 19.6994 79.7713 19.6623 79.9565 19.6623H83.846C84.0682 19.6623 84.1423 19.7364 84.1423 19.9587Z" fill="#9A9A9A"/>
<path d="M89.0198 39.5913V17.9213C89.0198 17.7361 89.1309 17.625 89.3532 17.625H93.1686C93.3909 17.625 93.502 17.7361 93.502 17.9213V39.1839C93.502 40.3322 93.9094 40.7026 94.7985 40.7026C95.0948 40.7026 95.1689 40.7026 95.5023 40.6656C95.6134 40.6285 95.6505 40.7026 95.6505 40.8878V43.666C95.6505 43.9253 95.6134 43.9624 95.4282 44.0735C95.0207 44.2587 94.354 44.3698 93.3168 44.3698C90.946 44.3698 89.0198 43.4808 89.0198 39.5913Z" fill="#9A9A9A"/>
<path d="M98.8231 39.5913V17.9213C98.8231 17.7361 98.9342 17.625 99.1565 17.625H102.972C103.194 17.625 103.305 17.7361 103.305 17.9213V39.1839C103.305 40.3322 103.713 40.7026 104.602 40.7026C104.898 40.7026 104.972 40.7026 105.306 40.6656C105.417 40.6285 105.454 40.7026 105.454 40.8878V43.666C105.454 43.9253 105.417 43.9624 105.232 44.0735C104.824 44.2587 104.157 44.3698 103.12 44.3698C100.749 44.3698 98.8231 43.4808 98.8231 39.5913Z" fill="#9A9A9A"/>
<path d="M123.821 25.9967V39.9247C123.821 41.8509 123.969 42.9622 124.043 43.7401C124.08 43.9253 123.969 43.9994 123.747 43.9994H120.339C120.08 43.9994 120.005 43.9253 119.968 43.7772C119.857 43.4067 119.746 42.8511 119.709 42.4807C118.116 43.9624 116.227 44.3698 114.56 44.3698C111.041 44.3698 108.337 42.4807 108.337 37.2947V25.9967C108.337 25.7744 108.411 25.7374 108.633 25.7374H112.523C112.745 25.7374 112.782 25.8114 112.782 25.9967V36.7761C112.782 39.0727 113.782 40.4804 116.005 40.4804C117.412 40.4804 118.45 39.9988 119.376 39.1468V25.9967C119.376 25.8114 119.45 25.7374 119.672 25.7374H123.562C123.784 25.7374 123.821 25.8114 123.821 25.9967Z" fill="#9A9A9A"/>
<path d="M139.143 30.0343C137.995 29.4046 136.143 28.9601 134.513 28.9601C132.55 28.9601 131.883 29.775 131.883 30.5529C131.883 31.3679 132.439 31.9235 134.809 32.8496C139.032 34.4054 140.477 36.0723 140.477 38.7023C140.477 42.1843 137.736 44.3698 133.179 44.3698C130.994 44.3698 129.068 43.9624 127.956 43.3326C127.771 43.2215 127.697 43.1474 127.697 42.9252V39.4061C127.697 39.2209 127.845 39.1468 127.993 39.2209C129.586 40.2581 131.624 40.7026 133.29 40.7026C135.217 40.7026 136.143 40.0358 136.143 39.0727C136.143 38.1467 135.439 37.554 133.142 36.6279C129.105 35.1462 127.66 33.4793 127.66 30.8122C127.66 27.997 129.957 25.3669 134.587 25.3669C136.735 25.3669 138.365 25.6633 139.254 26.1078C139.44 26.2189 139.477 26.3671 139.477 26.5523V29.8121C139.477 29.9973 139.366 30.1084 139.143 30.0343Z" fill="#9A9A9A"/>
<path d="M152.745 40.7397V43.4067C152.745 43.629 152.708 43.7772 152.522 43.8512C151.522 44.2217 150.596 44.3698 149.374 44.3698C146.336 44.3698 144.521 42.8881 144.521 39.2209V29.4787H142.187C142.002 29.4416 141.928 29.3675 141.928 29.1453V26.0337C141.928 25.8114 142.002 25.7374 142.224 25.7374H144.558C144.595 24.4409 144.743 22.1072 144.929 21.1811C144.966 20.9959 145.04 20.8848 145.225 20.8477L148.966 20.3291C149.151 20.2921 149.226 20.3291 149.226 20.5143C149.114 21.7367 149.04 23.9223 149.04 25.7374H152.633C152.819 25.7374 152.893 25.8114 152.893 25.9967V29.2194C152.893 29.4046 152.819 29.4787 152.633 29.4787H149.003V38.2578C149.003 39.8877 149.522 40.6656 151.115 40.6656C151.596 40.6656 152.004 40.6285 152.522 40.5174C152.633 40.4804 152.745 40.5174 152.745 40.7397Z" fill="#9A9A9A"/>
<path d="M155.944 25.7374H159.426C159.648 25.7374 159.759 25.8114 159.833 26.0337C160.018 26.5153 160.166 27.4413 160.203 28.2563C161.463 26.7005 163.574 25.3669 166.13 25.3669C166.353 25.3669 166.427 25.404 166.427 25.6262V29.5528C166.427 29.738 166.353 29.8121 166.093 29.8121C163.463 29.738 161.278 30.664 160.426 31.7753V43.7031C160.426 43.9253 160.315 43.9994 160.092 43.9994H156.24C155.981 43.9994 155.907 43.8883 155.907 43.7031V30.9233C155.907 29.3305 155.869 27.182 155.721 25.9596C155.721 25.7744 155.758 25.7374 155.944 25.7374Z" fill="#9A9A9A"/>
<path d="M178.012 40.4063V35.85C177.456 35.7759 176.826 35.7389 175.974 35.7389C173.048 35.7389 171.752 36.702 171.752 38.2948C171.752 39.6654 172.715 40.8508 175.382 40.8508C176.345 40.8508 177.197 40.7397 178.012 40.4063ZM182.346 32.7014V40.2211C182.346 41.036 182.346 41.7769 182.42 42.5548C182.42 42.6288 182.42 42.6659 182.346 42.7029C179.308 43.9994 177.16 44.3698 174.641 44.3698C170.603 44.3698 167.381 42.4807 167.381 38.2948C167.381 34.3683 170.9 32.405 175.715 32.405C176.826 32.405 177.678 32.4421 178.012 32.4791V32.0346C178.012 31.1826 177.53 29.2564 174.27 29.2564C172.418 29.2564 170.788 29.6268 169.418 30.2936C169.307 30.3307 169.122 30.2936 169.122 30.0714V26.8486C169.122 26.6634 169.159 26.5893 169.344 26.4782C170.937 25.7374 172.974 25.3669 174.974 25.3669C180.123 25.3669 182.346 28.5896 182.346 32.7014Z" fill="#9A9A9A"/>
<path d="M195.467 40.7397V43.4067C195.467 43.629 195.43 43.7772 195.244 43.8512C194.244 44.2217 193.318 44.3698 192.096 44.3698C189.058 44.3698 187.243 42.8881 187.243 39.2209V29.4787H184.91C184.724 29.4416 184.65 29.3675 184.65 29.1453V26.0337C184.65 25.8114 184.724 25.7374 184.947 25.7374H187.28C187.317 24.4409 187.465 22.1072 187.651 21.1811C187.688 20.9959 187.762 20.8848 187.947 20.8477L191.688 20.3291C191.874 20.2921 191.948 20.3291 191.948 20.5143C191.837 21.7367 191.762 23.9223 191.762 25.7374H195.356C195.541 25.7374 195.615 25.8114 195.615 25.9967V29.2194C195.615 29.4046 195.541 29.4787 195.356 29.4787H191.725V38.2578C191.725 39.8877 192.244 40.6656 193.837 40.6656C194.318 40.6656 194.726 40.6285 195.244 40.5174C195.356 40.4804 195.467 40.5174 195.467 40.7397Z" fill="#9A9A9A"/>
<path d="M206.373 25.3669C212.078 25.3669 215.189 29.7009 215.189 34.7758C215.189 40.5174 211.522 44.3698 206.299 44.3698C200.113 44.3698 197.372 39.5913 197.372 34.8869C197.372 29.6268 200.817 25.3669 206.373 25.3669ZM206.151 29.1082C203.669 29.1082 201.891 31.2938 201.891 34.8128C201.891 38.2208 203.558 40.5915 206.373 40.5915C208.67 40.5915 210.633 38.7023 210.633 34.8869C210.633 31.8124 209.3 29.1082 206.151 29.1082Z" fill="#9A9A9A"/>
<path d="M218.706 25.7374H222.188C222.411 25.7374 222.522 25.8114 222.596 26.0337C222.781 26.5153 222.929 27.4413 222.966 28.2563C224.226 26.7005 226.337 25.3669 228.893 25.3669C229.115 25.3669 229.189 25.404 229.189 25.6262V29.5528C229.189 29.738 229.115 29.8121 228.856 29.8121C226.226 29.738 224.041 30.664 223.189 31.7753V43.7031C223.189 43.9253 223.077 43.9994 222.855 43.9994H219.003C218.743 43.9994 218.669 43.8883 218.669 43.7031V30.9233C218.669 29.3305 218.632 27.182 218.484 25.9596C218.484 25.7744 218.521 25.7374 218.706 25.7374Z" fill="#9A9A9A"/>
</svg>
