<svg width="176" height="60" viewBox="0 0 176 60" fill="none" xmlns="http://www.w3.org/2000/svg">
<path d="M68.8858 37.7864L63.1056 21.7209H59.9963V0H0V60H59.9963V30.9948L65.8378 45.5705H71.8442L81.4032 21.7209H74.7131L68.8858 37.7864Z" fill="#808080"/>
<path d="M89.9163 21.721H83.4525V45.5706H89.9163V21.721Z" fill="#808080"/>
<path d="M100.299 28.6842C100.299 27.3641 101.478 26.3622 103.576 26.3622C105.895 26.3622 107.034 27.7295 107.171 29.2311H113.406C113.224 25.7257 110.766 21.1736 103.621 21.1736C97.7508 21.1736 94.0639 24.7238 94.0639 29.0472C94.0639 38.5145 107.307 34.7379 107.307 38.7431C107.307 40.0609 106.032 40.9261 103.576 40.9261C100.891 40.9261 99.7074 39.4244 99.6155 37.8308H93.0621C93.3803 42.2933 95.9286 46.1146 103.394 46.1146C109.856 46.1146 113.498 42.7483 113.498 38.4697C113.498 28.6842 100.299 32.6894 100.299 28.6842Z" fill="#808080"/>
<path d="M123.224 21.721H116.76V45.5706H123.224V21.721Z" fill="#808080"/>
<path d="M138.575 21.1737C130.931 21.1737 126.06 26.8644 126.06 33.6442C126.06 40.424 130.931 46.1147 138.575 46.1147C146.22 46.1147 151.093 40.4264 151.093 33.6442C151.093 26.862 146.222 21.1737 138.575 21.1737ZM138.575 40.4264C135.164 40.4264 132.524 37.9228 132.524 33.6442C132.524 29.3655 135.16 26.8644 138.575 26.8644C141.991 26.8644 144.629 29.3679 144.629 33.6442C144.629 37.9205 141.996 40.4264 138.575 40.4264Z" fill="#808080"/>
<path d="M167.007 21.1738C163.457 21.1738 161.001 22.5882 159.907 24.6344V21.7207H153.945V45.5703H160.409V31.9164C160.409 28.7292 162.137 26.7302 165.277 26.7302C168.146 26.7302 169.329 28.642 169.329 31.4166V45.5727H175.791V30.6858C175.791 24.9975 172.743 21.1738 167.007 21.1738Z" fill="#808080"/>
<path d="M21.0165 18.8945C21.6964 18.8866 22.3588 18.6777 22.9202 18.2943C23.4817 17.9108 23.9172 17.3698 24.1719 16.7394C24.4266 16.1089 24.4892 15.4173 24.3517 14.7514C24.2142 14.0855 23.8829 13.4751 23.3993 12.9971C22.9158 12.5191 22.3016 12.1949 21.6342 12.0651C20.9668 11.9353 20.2759 12.0059 19.6485 12.2679C19.0211 12.5299 18.4852 12.9716 18.1082 13.5374C17.7313 14.1033 17.5301 14.768 17.53 15.448C17.5316 15.9035 17.6231 16.3543 17.7994 16.7744C17.9756 17.1944 18.2331 17.5755 18.5571 17.8958C18.8811 18.216 19.2651 18.4691 19.6872 18.6405C20.1092 18.8119 20.561 18.8982 21.0165 18.8945Z" fill="#989898"/>
<path d="M13.7532 37.3577C13.5553 38.2081 13.4517 39.0777 13.4444 39.9508C13.4444 42.9871 15.0946 45.0027 18.5905 45.0027C21.4923 45.0027 23.845 43.2794 25.5375 40.4954L24.505 44.6467H30.2663L33.5666 31.4454C34.3846 28.0909 35.9805 26.3464 38.3991 26.3464C40.3015 26.3464 41.4848 27.5251 41.4848 29.4841C41.4936 30.1112 41.407 30.7359 41.2279 31.337L39.5306 37.4261C39.2885 38.2618 39.167 39.1279 39.1699 39.998C39.1699 42.881 40.8672 44.9885 44.4173 44.9885C47.4536 44.9885 49.8722 43.0343 51.2088 38.3525L48.9458 37.4779C47.8143 40.6156 46.8242 41.1814 46.0651 41.1814C45.3061 41.1814 44.8865 40.6675 44.8865 39.6397C44.9087 39.0994 44.9949 38.5637 45.1434 38.0437L46.7935 32.129C47.1651 30.9125 47.3565 29.6481 47.3616 28.3761C47.3616 23.9513 44.6861 21.6411 41.4424 21.6411C38.4085 21.6411 35.3134 24.3803 33.7764 27.2611L34.9102 22.089H26.1009L24.8657 26.6458H28.9839L26.4474 36.7943C24.4579 41.2191 20.7899 41.2898 20.342 41.1884C19.5876 41.0187 19.1067 40.7311 19.1067 39.7528C19.1297 38.9552 19.2509 38.1634 19.4674 37.3954L23.3263 22.0866H13.5505L12.3153 26.6434H16.3793L13.7532 37.3577Z" fill="#989898"/>
</svg>
