<svg width="327" height="60" viewBox="0 0 327 60" fill="none" xmlns="http://www.w3.org/2000/svg">
<path d="M199.587 21.1621V25.2024H193.209V46.558H189.068V25.2024H185.04V21.1621H189.012V18.3917C189.012 13.6588 191.585 10.4844 196.845 10.4844C198.026 10.4844 198.83 10.6787 199.515 10.8445C199.577 10.8594 199.638 10.8741 199.698 10.8884V14.9286C198.971 14.7555 198.02 14.6978 197.013 14.6978C194.384 14.6978 193.096 16.2561 193.096 18.5648V21.1621H199.587Z" fill="#9A9A9A"/>
<path d="M76.445 14.4663C76.445 12.5039 75.2142 11.4072 73.4798 11.4072C71.7454 11.4072 70.5146 12.5039 70.5146 14.4663C70.5146 16.4287 71.7454 17.5253 73.4798 17.5253C75.2142 17.5253 76.445 16.3709 76.445 14.4663Z" fill="#9A9A9A"/>
<path d="M75.6057 21.1615H71.3537V46.5574H75.6057V21.1615Z" fill="#9A9A9A"/>
<path d="M65.4304 13.1973H61.0105V36.6884C61.0105 40.0359 59.7238 42.3447 55.9754 42.3447C54.3529 42.3447 52.7304 42.0561 51.3877 41.4789V45.9231C52.6185 46.385 54.4088 46.7889 56.7027 46.7889C62.8008 46.7889 65.4304 42.5178 65.4304 36.3998V13.1973Z" fill="#9A9A9A"/>
<path d="M86.1333 46.5584H81.9932V21.1626H86.1333V25.6068C87.5879 22.6054 90.0496 20.4699 94.861 20.7585V25.0297C89.4341 24.4525 86.1333 26.1262 86.1333 31.5517V46.5584Z" fill="#9A9A9A"/>
<path fill-rule="evenodd" clip-rule="evenodd" d="M106.324 47.0773C110.129 47.0773 113.094 45.3457 114.66 41.9982V46.5579H118.912V21.162H114.66V25.6063C113.206 22.3165 110.408 20.6426 106.828 20.6426C99.9463 20.6426 96.4775 26.7029 96.4775 33.8599C96.4775 41.3632 99.7785 47.0773 106.324 47.0773ZM114.604 34.8412C114.604 40.4974 111.248 42.9793 107.443 42.9793C103.079 42.9793 100.73 39.978 100.674 33.8022C100.674 27.9151 103.135 24.6829 107.891 24.6829C111.527 24.6829 114.604 27.1647 114.604 32.821V34.8412Z" fill="#9A9A9A"/>
<path d="M143.979 47.0785C137.713 47.0785 134.804 45.8088 132.286 44.4813V39.8062C135.307 41.4222 139.895 42.5766 144.203 42.5766C149.07 42.5766 150.916 40.6141 150.916 37.6705C150.916 34.7269 149.126 33.1687 142.972 31.6102C135.699 29.7632 132.454 27.166 132.454 21.6828C132.454 16.4882 136.314 12.6211 143.811 12.6211C148.511 12.6211 151.476 13.7755 153.714 15.0452V19.6049C150.469 17.7002 146.944 17.0654 143.643 17.0654C139.391 17.0654 136.874 18.566 136.874 21.6251C136.874 24.3955 138.944 25.723 144.65 27.2237C151.476 29.0129 155.336 31.264 155.336 37.2666C155.336 43.1538 151.979 47.0785 143.979 47.0785Z" fill="#9A9A9A"/>
<path fill-rule="evenodd" clip-rule="evenodd" d="M170.781 20.6426C163.397 20.6426 159.089 26.1835 159.089 33.8022C159.089 41.421 163.397 47.0773 170.781 47.0773C178.111 47.0773 182.419 41.421 182.419 33.8022C182.419 26.1835 178.111 20.6426 170.781 20.6426ZM170.837 42.9793C165.523 42.9793 163.229 38.6505 163.229 33.8022C163.229 29.0116 165.523 24.7405 170.837 24.6829C176.097 24.6829 178.334 29.0116 178.334 33.8022C178.334 38.5927 176.04 42.9793 170.837 42.9793Z" fill="#9A9A9A"/>
<path d="M215.866 42.2284C215.254 42.3391 214.582 42.4605 213.851 42.4605C211.222 42.4605 209.992 40.9021 209.936 38.6511V25.2029H216.481V21.1627H209.936V15.7949H205.795V21.1627H201.823V25.2029H205.851V38.8243C205.851 43.5571 208.425 46.7316 213.684 46.7316C214.97 46.7316 215.809 46.5585 216.537 46.3275V42.1143C216.322 42.146 216.098 42.1864 215.866 42.2284Z" fill="#9A9A9A"/>
<path d="M245.192 46.5589L240.939 34.265L238.701 26.4154L236.464 34.265L232.212 46.5589H226.784L217.722 21.1631H222.422L229.526 42.6918L236.687 21.1631H240.715L247.876 42.6918L254.983 21.1631H259.681L250.619 46.5589H245.192Z" fill="#9A9A9A"/>
<path fill-rule="evenodd" clip-rule="evenodd" d="M270.649 47.0773C274.453 47.0773 277.419 45.3457 278.985 41.9982V46.5579H283.238V21.162H278.985V25.6063C277.531 22.3165 274.733 20.6426 271.153 20.6426C264.271 20.6426 260.802 26.7029 260.802 33.8599C260.802 41.3632 264.103 47.0773 270.649 47.0773ZM278.985 34.8412C278.985 40.4974 275.628 42.9793 271.824 42.9793C267.46 42.9793 265.055 39.978 265.055 33.8022C265.055 27.9151 267.516 24.6829 272.272 24.6829C275.908 24.6829 278.985 27.1647 278.985 32.821V34.8412Z" fill="#9A9A9A"/>
<path d="M293.749 46.5584H289.61V21.1626H293.749V25.6068C295.204 22.6054 297.667 20.4699 302.478 20.7585V25.0297C297.051 24.4525 293.749 26.1262 293.749 31.5517V46.5584Z" fill="#9A9A9A"/>
<path fill-rule="evenodd" clip-rule="evenodd" d="M304.161 33.8022C304.161 41.5941 308.189 47.0773 317.421 47.0773C319.939 47.0773 323.016 46.6732 325.086 45.519V41.4787C322.847 42.2868 320.442 42.8638 317.589 42.8638C311.771 42.8638 309.085 40.0935 308.469 35.7646H326.428V33.8022C326.428 26.068 323.406 20.6426 315.799 20.6426C308.302 20.6426 304.161 26.1257 304.161 33.8022ZM322.121 32.013H308.413C308.861 27.6265 311.099 24.6251 315.575 24.6251C319.827 24.6251 321.897 27.2801 322.121 32.013Z" fill="#9A9A9A"/>
<path d="M40.5262 28.8282L22.2345 10.5362L20.4756 8.77734L6.75683 22.4963L0.483677 28.7696C-0.161226 29.4145 -0.161226 30.4698 0.483677 31.1734L13.03 43.7198L20.4756 51.2242L34.1945 37.5052L34.429 37.2707L40.5262 31.1734C41.1712 30.5283 41.1712 29.4732 40.5262 28.8282ZM20.4756 36.274L14.2026 30.0008L20.4756 23.7275L26.7488 30.0008L20.4756 36.274Z" fill="#939393"/>
<path d="M20.4762 23.7275C16.3724 19.6236 16.3724 12.9399 20.4177 8.83594L6.69873 22.5549L14.1444 30.0008L20.4762 23.7275Z" fill="url(#paint0_linear_499_52549)"/>
<path d="M26.7498 30L20.4766 36.2733C24.5804 40.3772 24.5804 47.0608 20.4766 51.2234L34.254 37.4457L26.7498 30Z" fill="url(#paint1_linear_499_52549)"/>
<defs>
<linearGradient id="paint0_linear_499_52549" x1="19.3572" y1="17.3719" x2="10.5962" y2="26.1328" gradientUnits="userSpaceOnUse">
<stop offset="0.176" stop-color="#666666"/>
<stop offset="1" stop-color="#939393"/>
</linearGradient>
<linearGradient id="paint1_linear_499_52549" x1="21.6764" y1="42.5381" x2="30.4199" y2="33.7948" gradientUnits="userSpaceOnUse">
<stop offset="0.176" stop-color="#666666"/>
<stop offset="1" stop-color="#939393"/>
</linearGradient>
</defs>
</svg>
