<svg width="194" height="60" viewBox="0 0 194 60" fill="none" xmlns="http://www.w3.org/2000/svg">
<path d="M55.5 0H4.5C2.01472 0 0 2.01472 0 4.5V55.5C0 57.9853 2.01472 60 4.5 60H55.5C57.9853 60 60 57.9853 60 55.5V4.5C60 2.01472 57.9853 0 55.5 0Z" fill="#676767"/>
<path fill-rule="evenodd" clip-rule="evenodd" d="M40.7924 7.50391H34.2057L39.6965 17.1462L27.6227 7.50391H21.036L27.0747 19.291L14.4529 7.50391H7.86621L14.4529 22.5027L7.86621 52.5039H14.4529L27.0747 20.3616L21.036 52.5039H27.6227L39.6965 18.2168L34.2057 52.5039H40.7924L52.8662 15.0051L40.7924 7.50391Z" fill="#9A9A9A"/>
<path fill-rule="evenodd" clip-rule="evenodd" d="M133.189 17.4545V46.3276L126.746 45.0142V18.7093L133.189 17.4545Z" fill="#9A9A9A"/>
<path fill-rule="evenodd" clip-rule="evenodd" d="M159.019 16.769V23.5447L155.313 24.2288C152.119 24.8544 150.067 26.5117 150.067 30.1629V46.3117L143.624 44.9983V29.1934C143.624 21.3166 148.245 18.9788 155.313 17.38L159.019 16.769Z" fill="#9A9A9A"/>
<path fill-rule="evenodd" clip-rule="evenodd" d="M90.5413 16.7138C91.9874 16.7619 93.403 17.1419 94.6788 17.8245C95.9545 18.5071 97.0562 19.474 97.8986 20.6503C99.6657 18.3674 102.571 16.8272 106.163 16.7723C110.725 16.7138 116.37 19.5674 116.37 28.1138V46.2308L109.928 44.9211V28.1247C109.928 25.2711 107.875 23.2186 104.806 23.2186C101.736 23.2186 99.6839 25.2711 99.6839 28.1247V46.2308L93.2413 44.9211V28.1247C93.2413 25.2711 91.1889 23.2186 88.1194 23.2186C85.0499 23.2186 82.9316 25.2711 82.9316 28.1247V46.2308L76.4561 44.9028V18.5979L82.9024 17.3284V20.2955C83.8244 19.1625 84.9901 18.252 86.3127 17.6319C87.6352 17.0118 89.0807 16.6979 90.5413 16.7138Z" fill="#9A9A9A"/>
<path fill-rule="evenodd" clip-rule="evenodd" d="M179.227 40.8501C174.211 40.8501 170.904 37.2574 170.904 31.8355C170.904 26.4721 174.266 22.8757 179.227 22.8757C183.902 22.8757 186.979 26.4135 186.979 31.8355C186.979 37.2574 183.902 40.8501 179.227 40.8501ZM179.227 16.8282C170.278 16.8282 164.289 22.8208 164.289 31.894C164.289 40.9672 170.278 47.0148 179.227 47.0148C187.835 47.0148 193.535 40.9672 193.535 31.894C193.535 22.8208 187.835 16.8282 179.227 16.8282Z" fill="#9A9A9A"/>
<path fill-rule="evenodd" clip-rule="evenodd" d="M130.054 4.9375C132.311 4.9375 133.797 6.56555 133.797 8.98018C133.797 11.3948 132.311 13.0229 130.054 13.0229C127.683 13.0229 126.143 11.3948 126.143 8.98018C126.143 6.56555 127.68 4.9375 130.054 4.9375Z" fill="#9A9A9A"/>
</svg>
