<svg width="173" height="60" viewBox="0 0 173 60" fill="none" xmlns="http://www.w3.org/2000/svg">
<path fill-rule="evenodd" clip-rule="evenodd" d="M36.8107 0.136834L3.61008 2.58722C0.932954 2.81959 0 4.56999 0 6.66848V43.0632C0 44.6984 0.58154 46.0959 1.98003 47.964L9.7846 58.1126C11.0665 59.7468 12.2316 60.0963 14.6795 59.9794L53.2352 57.6459C56.4961 57.4138 57.4289 55.8962 57.4289 53.33V12.3849C57.4289 11.0584 56.9052 10.6752 55.3614 9.54567C55.2764 9.48353 55.1885 9.41912 55.0973 9.35218L44.4993 1.88676C41.9368 0.0211191 40.8878 -0.213635 36.8107 0.136834ZM15.5526 11.7133C12.405 11.9263 11.6898 11.9747 9.90232 10.5193L5.35673 6.9032C4.89311 6.4356 5.12564 5.85231 6.28959 5.73662L38.2061 3.40337C40.8846 3.16956 42.2821 4.10429 43.331 4.92046L48.8051 8.88697C49.0383 9.00313 49.6196 9.70217 48.9205 9.70217L15.9591 11.6859C15.8216 11.6951 15.6885 11.7041 15.5595 11.7129L15.555 11.7131L15.5526 11.7133ZM11.8812 52.9795V18.2186C11.8812 16.7025 12.3472 16.002 13.7442 15.8842L51.5992 13.6687C52.8833 13.5521 53.4647 14.3691 53.4647 15.8842V50.412C53.4647 51.9295 53.2311 53.2145 51.1337 53.33L14.9091 55.4309C12.8127 55.5464 11.8812 54.8477 11.8812 52.9795ZM47.6421 20.0832C47.8744 21.134 47.6421 22.1841 46.5918 22.3022L44.8463 22.6507V48.3134C43.331 49.1297 41.9335 49.5965 40.769 49.5965C38.9047 49.5965 38.4378 49.0128 37.0413 47.264L25.6246 29.2999V46.6807L29.2373 47.4979C29.2373 47.4979 29.2373 49.5965 26.3227 49.5965L18.2874 50.0636C18.0539 49.5965 18.2874 48.431 19.1024 48.1973L21.1993 47.615V24.6345L18.2879 24.4006C18.0544 23.3498 18.6359 21.8345 20.2678 21.7169L28.8878 21.1346L40.769 39.3324V23.2339L37.7399 22.8854C37.5072 21.6007 38.4378 20.6679 39.6028 20.5522L47.6421 20.0832Z" fill="#9A9A9A"/>
<path d="M135.683 42.5043H131.704V24.8782H135.683V42.5043Z" fill="#9A9A9A"/>
<path d="M136.07 19.5613C136.07 20.8986 135.007 21.962 133.685 21.962C132.38 21.962 131.301 20.8986 131.301 19.5613C131.301 18.224 132.38 17.1445 133.685 17.1445C135.007 17.1445 136.07 18.224 136.07 19.5613Z" fill="#9A9A9A"/>
<path d="M82.8673 26.6824V42.504H78.8555V19.2549H82.4646L93.8717 35.0604H94.1456V19.2549H98.1413V42.504H94.5483L83.1412 26.6824H82.8673Z" fill="#9A9A9A"/>
<path fill-rule="evenodd" clip-rule="evenodd" d="M117.905 33.6911C117.905 39.4106 114.698 42.8586 109.43 42.8586C104.145 42.8586 100.955 39.4106 100.955 33.6911C100.955 28.0036 104.194 24.5234 109.43 24.5234C114.682 24.5234 117.905 27.9875 117.905 33.6911ZM105.047 33.6911C105.047 37.3806 106.642 39.5073 109.43 39.5073C112.217 39.5073 113.796 37.3806 113.796 33.6911C113.796 30.0175 112.201 27.8747 109.43 27.8747C106.642 27.8747 105.047 30.0175 105.047 33.6911Z" fill="#9A9A9A"/>
<path d="M121.555 20.5596V24.9903H118.768V28.1804H121.555V37.7991C121.555 41.2148 123.166 42.5842 127.21 42.5842C127.983 42.5842 128.725 42.5036 129.305 42.3908V39.2652L129.265 39.2691C128.804 39.3152 128.5 39.3457 127.951 39.3457C126.276 39.3457 125.534 38.5724 125.534 36.8324V28.1804H129.305V24.9903H125.534V20.5596H121.555Z" fill="#9A9A9A"/>
<path fill-rule="evenodd" clip-rule="evenodd" d="M146.598 42.8586C151.866 42.8586 155.073 39.4106 155.073 33.6911C155.073 27.9875 151.85 24.5234 146.598 24.5234C141.362 24.5234 138.123 28.0036 138.123 33.6911C138.123 39.4106 141.313 42.8586 146.598 42.8586ZM146.598 39.5073C143.811 39.5073 142.215 37.3806 142.215 33.6911C142.215 30.0175 143.811 27.8747 146.598 27.8747C149.369 27.8747 150.964 30.0175 150.964 33.6911C150.964 37.3806 149.385 39.5073 146.598 39.5073Z" fill="#9A9A9A"/>
<path d="M161.447 42.5041H157.451V24.878H161.302V27.6974H161.576C162.414 25.7318 164.186 24.5234 166.812 24.5234C170.744 24.5234 172.887 26.8919 172.887 31.097V42.5041H168.891V32.0476C168.891 29.357 167.763 28.0036 165.33 28.0036C162.945 28.0036 161.447 29.6469 161.447 32.241V42.5041Z" fill="#9A9A9A"/>
</svg>
