<svg width="246" height="60" viewBox="0 0 246 60" fill="none" xmlns="http://www.w3.org/2000/svg">
<path d="M50.6385 0H10.8969C4.8787 0 0 4.87895 0 10.8974V49.1026C0 55.1211 4.8787 60 10.8969 60H50.6385C56.6567 60 61.5354 55.1211 61.5354 49.1026V10.8974C61.5354 4.87895 56.6567 0 50.6385 0Z" fill="#676767"/>
<path d="M13.8516 42.0733V15.6941C13.8516 15.5019 13.9342 15.4051 14.0993 15.4051C14.5391 15.4051 14.9407 15.3987 15.5464 15.3845C16.1515 15.371 16.8051 15.3572 17.5072 15.3432C18.209 15.3296 18.9521 15.3159 19.7364 15.3019C20.5206 15.2884 21.298 15.2815 22.0686 15.2812C24.1598 15.2812 25.921 15.5427 27.3524 16.0656C28.6437 16.5024 29.8212 17.2217 30.7994 18.171C31.6286 18.9939 32.2694 19.9868 32.6776 21.0814C33.0638 22.1466 33.2594 23.2715 33.2556 24.4046C33.2556 26.6067 32.7465 28.4232 31.7282 29.8538C30.7032 31.2904 29.2625 32.3782 27.6002 32.9706C25.8664 33.6176 23.9398 33.837 21.821 33.837C21.2153 33.837 20.7887 33.8301 20.5413 33.8164C20.2936 33.8028 19.9222 33.7959 19.4268 33.7957V42.0321C19.434 42.0825 19.4294 42.134 19.4132 42.1824C19.3971 42.2307 19.3699 42.2747 19.3339 42.3107C19.2978 42.3468 19.2539 42.3739 19.2055 42.3901C19.1572 42.4062 19.1057 42.4108 19.0552 42.4036H14.1405C13.9477 42.4036 13.8516 42.2939 13.8516 42.0733ZM19.4268 20.359V28.9628C19.7841 28.9905 20.1143 29.0043 20.4174 29.004H21.7797C22.782 29.0007 23.7777 28.8418 24.7313 28.5328C25.5491 28.2899 26.2798 27.817 26.8365 27.1705C27.3731 26.5378 27.6414 25.6571 27.6415 24.5285C27.6633 23.7299 27.4555 22.9419 27.0428 22.2579C26.609 21.5966 25.9821 21.0849 25.2472 20.7924C24.2877 20.4194 23.2627 20.2439 22.2338 20.2764C21.5732 20.2764 20.9885 20.2833 20.4794 20.297C19.9699 20.3112 19.619 20.3319 19.4268 20.359Z" fill="#989898"/>
<path d="M49.2175 27.3975C48.4418 26.9988 47.6155 26.7072 46.7614 26.5305C45.8202 26.3146 44.858 26.2038 43.8924 26.2002C43.3701 26.1861 42.8485 26.2487 42.3444 26.386C42.0235 26.4575 41.7383 26.6403 41.5394 26.902C41.4049 27.1114 41.3333 27.355 41.3331 27.6039C41.3406 27.8453 41.4277 28.0775 41.5807 28.2643C41.8218 28.5464 42.1165 28.7779 42.4476 28.9455C43.0361 29.2625 43.6426 29.545 44.2639 29.7918C45.6493 30.2556 46.9731 30.8863 48.2061 31.6701C49.0461 32.2003 49.7411 32.9308 50.2289 33.7961C50.639 34.6155 50.8444 35.5221 50.8274 36.4382C50.8521 37.6479 50.5065 38.8363 49.8368 39.844C49.1198 40.8669 48.1239 41.6622 46.9677 42.1351C45.7151 42.6854 44.1671 42.9606 42.3238 42.9608C41.1527 42.9726 39.9836 42.8619 38.8356 42.6305C37.9311 42.4647 37.0506 42.1873 36.2143 41.8049C36.124 41.7583 36.0489 41.6869 35.9978 41.5992C35.9466 41.5115 35.9215 41.411 35.9253 41.3095V36.851C35.9204 36.8074 35.9273 36.7632 35.9455 36.7232C35.9637 36.6832 35.9924 36.6489 36.0286 36.624C36.0641 36.6039 36.1048 36.5952 36.1453 36.5989C36.1859 36.6025 36.2243 36.6185 36.2556 36.6446C37.2432 37.227 38.3156 37.6518 39.4341 37.9037C40.42 38.1508 41.4313 38.2824 42.4476 38.2959C43.4106 38.2959 44.1192 38.172 44.5735 37.9244C44.7786 37.8304 44.9522 37.6791 45.073 37.4886C45.1939 37.2981 45.257 37.0766 45.2547 36.851C45.2547 36.4937 45.0483 36.1497 44.6355 35.819C44.2227 35.4887 43.3833 35.0896 42.1173 34.6218C40.8211 34.1706 39.5922 33.5457 38.464 32.7641C37.6571 32.2029 36.9927 31.4607 36.5239 30.5968C36.1179 29.7833 35.9127 28.8844 35.9253 27.9754C35.923 26.8831 36.2231 25.8115 36.7922 24.8792C37.4411 23.8526 38.3729 23.0355 39.4755 22.5262C40.6861 21.9211 42.1997 21.6184 44.0163 21.6179C45.0801 21.6094 46.143 21.6853 47.1948 21.845C47.9565 21.9416 48.7012 22.143 49.4077 22.4436C49.4637 22.4597 49.5153 22.4885 49.5583 22.5279C49.6012 22.5673 49.6345 22.6162 49.6553 22.6706C49.6832 22.7715 49.6971 22.8756 49.6967 22.9803V27.1497C49.6995 27.1983 49.6896 27.2467 49.6679 27.2901C49.6461 27.3336 49.6134 27.3706 49.5728 27.3974C49.5176 27.4249 49.4568 27.4392 49.3952 27.4392C49.3335 27.4392 49.2727 27.4249 49.2175 27.3975Z" fill="#989898"/>
<path d="M79.6445 43.7404V20.0739C79.6445 19.8893 79.7184 19.7785 79.903 19.7785C81.306 19.7416 84.0381 19.6678 86.7334 19.6678C93.8961 19.6678 96.5544 23.6552 96.5544 27.7166C96.5544 33.587 92.0131 36.1346 86.438 36.1346C85.2565 36.1346 84.9612 36.1346 84.112 36.1346V43.7034C84.112 43.888 84.0381 43.9988 83.8166 43.9988H79.9399C79.7553 43.9988 79.6445 43.925 79.6445 43.7404ZM84.112 23.6183V32.184C84.7397 32.221 85.2196 32.221 86.438 32.221C89.5394 32.221 92.1608 31.1872 92.1608 27.8273C92.1608 25.1321 90.2409 23.5445 86.8442 23.5445C85.5519 23.5445 84.5181 23.5814 84.112 23.6183Z" fill="#9A9A9A"/>
<path d="M104.654 30.5964V43.7404C104.654 43.925 104.617 43.9988 104.396 43.9988H100.482C100.261 43.9988 100.187 43.888 100.187 43.7034V17.9694C100.187 17.8217 100.261 17.7109 100.482 17.7109H104.396C104.617 17.7109 104.654 17.7848 104.654 17.9694V27.1258C106.057 26.092 107.608 25.4275 109.712 25.4275C112.518 25.4275 115.878 26.8305 115.878 32.7379V43.6665C115.878 43.925 115.768 43.9988 115.583 43.9988H111.743C111.522 43.9988 111.411 43.888 111.411 43.6665V33.1809C111.411 30.7072 110.34 29.3042 108.199 29.3042C106.833 29.3042 105.614 29.7472 104.654 30.5964Z" fill="#9A9A9A"/>
<path d="M128.386 25.4275C134.072 25.4275 137.173 29.7472 137.173 34.8054C137.173 40.5282 133.518 44.368 128.312 44.368C122.146 44.368 119.414 39.6052 119.414 34.9162C119.414 29.6734 122.847 25.4275 128.386 25.4275ZM128.164 29.1565C125.69 29.1565 123.918 31.3348 123.918 34.8424C123.918 38.2391 125.58 40.6021 128.386 40.6021C130.675 40.6021 132.632 38.7191 132.632 34.9162C132.632 31.8517 131.302 29.1565 128.164 29.1565Z" fill="#9A9A9A"/>
<path d="M149.496 40.7497V43.4081C149.496 43.6296 149.46 43.7773 149.275 43.8511C148.278 44.2203 147.355 44.368 146.137 44.368C143.109 44.368 141.3 42.8912 141.3 39.236V29.5257H138.974C138.789 29.4888 138.716 29.4149 138.716 29.1934V26.092C138.716 25.8705 138.789 25.7967 139.011 25.7967H141.337C141.374 24.5044 141.522 22.1784 141.706 21.2554C141.743 21.0708 141.817 20.96 142.001 20.9231L145.731 20.4062C145.915 20.3693 145.989 20.4062 145.989 20.5908C145.878 21.8092 145.804 23.9875 145.804 25.7967H149.386C149.57 25.7967 149.644 25.8705 149.644 26.0551V29.2673C149.644 29.4519 149.57 29.5257 149.386 29.5257H145.767V38.276C145.767 39.9006 146.284 40.6759 147.872 40.6759C148.352 40.6759 148.758 40.639 149.275 40.5282C149.386 40.4913 149.496 40.5282 149.496 40.7497Z" fill="#9A9A9A"/>
<path d="M160.367 25.4275C166.053 25.4275 169.154 29.7472 169.154 34.8054C169.154 40.5282 165.499 44.368 160.293 44.368C154.127 44.368 151.395 39.6052 151.395 34.9162C151.395 29.6734 154.829 25.4275 160.367 25.4275ZM160.146 29.1565C157.672 29.1565 155.9 31.3348 155.9 34.8424C155.9 38.2391 157.561 40.6021 160.367 40.6021C162.656 40.6021 164.613 38.7191 164.613 34.9162C164.613 31.8517 163.284 29.1565 160.146 29.1565Z" fill="#9A9A9A"/>
<path d="M183.497 30.0795C182.353 29.4519 180.507 29.0088 178.882 29.0088C176.925 29.0088 176.261 29.8211 176.261 30.5964C176.261 31.4087 176.815 31.9625 179.178 32.8855C183.387 34.4362 184.827 36.0977 184.827 38.7191C184.827 42.1897 182.094 44.368 177.553 44.368C175.375 44.368 173.455 43.9619 172.347 43.3342C172.163 43.2235 172.089 43.1496 172.089 42.9281V39.4206C172.089 39.236 172.236 39.1621 172.384 39.236C173.972 40.2698 176.002 40.7128 177.664 40.7128C179.584 40.7128 180.507 40.0482 180.507 39.0883C180.507 38.1653 179.805 37.5745 177.516 36.6515C173.492 35.1746 172.052 33.5132 172.052 30.8549C172.052 28.0489 174.341 25.4275 178.956 25.4275C181.098 25.4275 182.722 25.7228 183.608 26.1659C183.793 26.2766 183.83 26.4243 183.83 26.6089V29.858C183.83 30.0426 183.719 30.1534 183.497 30.0795Z" fill="#9A9A9A"/>
<path d="M192.45 30.5964V43.7404C192.45 43.925 192.413 43.9988 192.192 43.9988H188.278C188.057 43.9988 187.983 43.888 187.983 43.7034V17.9694C187.983 17.8217 188.057 17.7109 188.278 17.7109H192.192C192.413 17.7109 192.45 17.7848 192.45 17.9694V27.1258C193.853 26.092 195.404 25.4275 197.508 25.4275C200.314 25.4275 203.674 26.8305 203.674 32.7379V43.6665C203.674 43.925 203.563 43.9988 203.379 43.9988H199.539C199.318 43.9988 199.207 43.888 199.207 43.6665V33.1809C199.207 30.7072 198.136 29.3042 195.995 29.3042C194.629 29.3042 193.41 29.7472 192.45 30.5964Z" fill="#9A9A9A"/>
<path d="M216.182 25.4275C221.867 25.4275 224.969 29.7472 224.969 34.8054C224.969 40.5282 221.314 44.368 216.108 44.368C209.942 44.368 207.21 39.6052 207.21 34.9162C207.21 29.6734 210.643 25.4275 216.182 25.4275ZM215.96 29.1565C213.486 29.1565 211.714 31.3348 211.714 34.8424C211.714 38.2391 213.376 40.6021 216.182 40.6021C218.471 40.6021 220.428 38.7191 220.428 34.9162C220.428 31.8517 219.098 29.1565 215.96 29.1565Z" fill="#9A9A9A"/>
<path d="M235.932 25.4275C242.024 25.4275 245.052 29.5626 245.052 34.2885C245.052 41.0451 239.588 44.368 234.012 44.368C233.606 44.368 233.237 44.3311 232.905 44.2942V50.94C232.905 51.0877 232.868 51.1984 232.646 51.2354C231.354 51.383 228.88 51.6046 228.696 51.6046C228.474 51.6046 228.437 51.5676 228.437 51.383V29.2673C228.437 28.8242 228.4 27.6058 228.327 27.0889C228.327 27.052 228.327 26.9412 228.474 26.9043C230.136 26.3505 232.72 25.4275 235.932 25.4275ZM235.526 29.2303C234.529 29.2303 233.717 29.3411 232.905 29.5996V40.4913C233.311 40.6021 233.902 40.6021 234.382 40.6021C237.262 40.6021 240.474 38.9037 240.474 34.5839C240.474 31.2241 238.665 29.2303 235.526 29.2303Z" fill="#9A9A9A"/>
</svg>
