<svg width="220" height="60" viewBox="0 0 220 60" fill="none" xmlns="http://www.w3.org/2000/svg">
<path fill-rule="evenodd" clip-rule="evenodd" d="M74.5287 38.06L74.4864 37.4951H73.9199H70.4036H69.7676L69.7936 38.1306C70.0838 45.2104 74.8569 49.8997 83.3455 49.8997C91.4417 49.8997 96.9468 45.6934 96.9468 39.3265C96.9468 35.8837 95.7524 33.4474 93.4764 31.7836C91.7256 30.5037 89.6322 29.7822 86.161 29.0296C85.929 28.9793 85.6873 28.9278 85.3976 28.8669C85.2256 28.8307 84.6083 28.7015 84.6411 28.7083C78.337 27.3867 76.3373 26.2387 76.3373 22.8195C76.3373 19.2839 79.2287 17.0323 84.0781 17.0323C88.7962 17.0323 91.778 19.9138 91.9168 24.4498L91.9349 25.0416H92.527H95.9945H96.6192L96.6048 24.4171C96.4416 17.3466 91.6976 12.5881 84.0293 12.5881C76.5137 12.5881 71.5513 17.1104 71.5513 22.966C71.5513 26.399 72.7444 28.7898 75.024 30.3871C76.7606 31.604 78.7724 32.2491 82.3212 32.9656C82.4874 32.9991 82.6608 33.0338 82.8673 33.0747C82.9951 33.1001 83.1394 33.1286 83.4103 33.1822C86.7681 33.8465 88.2496 34.2566 89.6012 35.0425C91.2791 36.0182 92.1119 37.4119 92.1119 39.5707C92.1119 43.3188 88.9605 45.4556 83.4432 45.4556C78.1614 45.4556 74.8836 42.8067 74.5287 38.06ZM106.836 11.9777V11.3672H106.226H102.758H102.148V11.9777V48.6056V49.216H102.758H106.226H106.836V48.6056V42.0748L111.772 37.2684L120.585 48.9728L120.768 49.216H121.073H125.37H126.6L125.856 48.2364L115.093 34.0593L125.02 24.1801L126.068 23.137H124.589H119.949H119.695L119.516 23.3173L106.836 36.0871V11.9777ZM150.644 37.7881H151.217L151.253 37.2157C151.259 37.1151 151.269 36.9486 151.278 36.7482C151.285 36.5895 151.291 36.4348 151.296 36.2886C151.3 36.1302 151.303 35.986 151.303 35.859C151.303 28.1967 146.228 22.5509 138.727 22.5509C131.241 22.5509 125.907 28.5606 125.907 36.1521C125.907 43.9638 130.999 49.8021 138.776 49.8021C144.657 49.8021 149.199 46.313 150.836 41.0208L151.081 40.23H150.253H146.639H146.208L146.064 40.6363C145.036 43.5329 142.253 45.4556 138.825 45.4556C134.343 45.4556 131.219 42.3778 130.656 37.7881H150.644ZM130.798 33.7346C131.59 29.6251 134.612 26.8974 138.727 26.8974C142.969 26.8974 145.896 29.5356 146.536 33.7346H130.798ZM166.687 27.2881H167.297V26.6776V23.7474V23.137H166.687H161.583V16.666V16.0556H160.973H157.505H156.895V16.666V23.137H152.768H152.158V23.7474V26.6776V27.2881H152.768H156.895V41.9149C156.895 46.7131 159.384 49.3137 163.952 49.3137C164.749 49.3137 165.437 49.266 166.014 49.1858C166.371 49.1363 166.617 49.085 166.753 49.0472L167.2 48.923V48.459V45.3335V44.576L166.46 44.7369C166.43 44.7434 166.37 44.7556 166.284 44.7716C166.139 44.7988 165.978 44.8261 165.804 44.8516C165.361 44.9169 164.92 44.9587 164.515 44.966C164.473 44.9668 164.432 44.9672 164.392 44.9672C162.39 44.9672 161.583 44.0272 161.583 41.6707V27.2881H166.687ZM181.265 49.8021C187.754 49.8021 192.336 45.6956 193.487 39.8846L193.631 39.1556H192.888H189.372H188.903L188.782 39.6092C187.796 43.3175 185.121 45.4556 181.265 45.4556C176.453 45.4556 173.133 41.6598 173.133 36.2009C173.133 30.6998 176.447 26.8974 181.265 26.8974C185.121 26.8974 187.796 29.0355 188.782 32.7438L188.903 33.1974H189.372H192.888H193.631L193.487 32.4684C192.336 26.6574 187.754 22.5509 181.265 22.5509C173.726 22.5509 168.396 28.6031 168.396 36.2009C168.396 43.7569 173.734 49.8021 181.265 49.8021ZM202.265 11.9777V11.3672H201.655H198.187H197.577V11.9777V48.6056V49.216H198.187H201.655H202.265V48.6056V33.9056C202.265 29.4267 204.991 26.7997 209.127 26.7997C213.077 26.7997 215.06 29.0863 215.06 33.4172V48.6056V49.216H215.671H219.138H219.749V48.6056V32.7335C219.749 26.6158 215.961 22.5509 209.713 22.5509C206.498 22.5509 203.915 23.7286 202.265 25.4188V11.9777Z" fill="#9A9A9A"/>
<path fill-rule="evenodd" clip-rule="evenodd" d="M12.1531 6.64621L27.8509 5L43.5487 6.64621L55.7018 22.8292L27.8509 55L0 22.8292L12.1531 6.64621Z" fill="#8A8A8A"/>
<path fill-rule="evenodd" clip-rule="evenodd" d="M11.2813 22.8291L27.8509 55L0 22.8292L11.2813 22.8291Z" fill="#6A6868"/>
<path fill-rule="evenodd" clip-rule="evenodd" d="M44.4203 22.8291L27.8509 55L55.7018 22.8292L44.4203 22.8291Z" fill="#6A6868"/>
<path fill-rule="evenodd" clip-rule="evenodd" d="M11.2832 22.8291H44.4229L27.853 55L11.2832 22.8291Z" fill="#8A8A8A"/>
<path fill-rule="evenodd" clip-rule="evenodd" d="M27.8527 5L12.1549 6.64593L11.2832 22.8291L27.8527 5Z" fill="#979797"/>
<path fill-rule="evenodd" clip-rule="evenodd" d="M27.8527 5L43.5505 6.64593L44.4229 22.8291L27.8527 5Z" fill="#979797"/>
<path fill-rule="evenodd" clip-rule="evenodd" d="M55.7008 22.8291L43.5487 6.64621L44.4203 22.8291L55.7008 22.8291Z" fill="#8A8A8A"/>
<path fill-rule="evenodd" clip-rule="evenodd" d="M0 22.8292L12.1531 6.64621L11.2813 22.8291L0 22.8292Z" fill="#8A8A8A"/>
<path fill-rule="evenodd" clip-rule="evenodd" d="M27.8527 5L11.2832 22.8291H44.4229L27.8527 5Z" fill="#DBDBDB"/>
</svg>
