<svg width="229" height="60" viewBox="0 0 229 60" fill="none" xmlns="http://www.w3.org/2000/svg">
<path d="M78.9199 44.3732L81.3882 38.6407C84.0555 40.6312 87.5986 41.6662 91.1019 41.6662C93.6896 41.6662 95.3218 40.671 95.3218 39.1582C95.282 34.9385 79.8356 38.2426 79.7161 27.6534C79.6763 22.2792 84.4536 18.139 91.2214 18.139C95.2422 18.139 99.2631 19.1342 102.129 21.4033L99.8204 27.2553C97.1929 25.5833 93.9285 24.389 90.8233 24.389C88.7133 24.389 87.3199 25.3843 87.3199 26.6582C87.3597 30.7983 102.926 28.5292 103.085 38.6407C103.085 44.1344 98.427 47.9959 91.7389 47.9959C86.8422 47.9959 82.3436 46.8414 78.9199 44.3732Z" fill="#9A9A9A"/>
<path d="M173.629 36.5706C172.395 38.7203 170.086 40.1933 167.419 40.1933C163.477 40.1933 160.293 37.0085 160.293 33.0674C160.293 29.1263 163.477 25.9416 167.419 25.9416C170.086 25.9416 172.395 27.4145 173.629 29.5642L180.437 25.7824C177.889 21.2441 172.992 18.139 167.419 18.139C159.178 18.139 152.49 24.8269 152.49 33.0674C152.49 41.3079 159.178 47.9959 167.419 47.9959C173.032 47.9959 177.889 44.9306 180.437 40.3525L173.629 36.5706Z" fill="#9A9A9A"/>
<path d="M106.512 5.75781H115.031V47.438H106.512V5.75781Z" fill="#9A9A9A"/>
<path d="M183.78 5.75781V47.438H192.299V34.9379L202.411 47.438H213.319L200.46 32.5892L212.364 18.7356H201.933L192.299 30.2404V5.75781H183.78Z" fill="#9A9A9A"/>
<path d="M140.347 36.6503C139.113 38.6805 136.565 40.1933 133.699 40.1933C129.758 40.1933 126.573 37.0085 126.573 33.0674C126.573 29.1263 129.758 25.9416 133.699 25.9416C136.565 25.9416 139.113 27.534 140.347 29.604V36.6503ZM140.347 18.7361V22.1199C138.954 19.7712 135.49 18.139 131.868 18.139C124.383 18.139 118.491 24.7473 118.491 33.0276C118.491 41.3079 124.383 47.9959 131.868 47.9959C135.49 47.9959 138.954 46.3637 140.347 44.015V47.3987H148.867V18.7361H140.347Z" fill="#9A9A9A"/>
<path d="M26.1935 36.6022C26.1935 39.4954 23.8302 41.8589 20.9371 41.8589C18.044 41.8589 15.6807 39.4954 15.6807 36.6022C15.6807 33.709 18.044 31.3455 20.9371 31.3455H26.1935V36.6022Z" fill="#AFAFAF"/>
<path d="M28.8408 36.6023C28.8408 33.7091 31.2042 31.3456 34.0972 31.3456C36.9903 31.3456 39.3537 33.7091 39.3537 36.6023V49.7643C39.3537 52.6575 36.9903 55.021 34.0972 55.021C31.2042 55.021 28.8408 52.6575 28.8408 49.7643V36.6023Z" fill="#AFAFAF"/>
<path d="M34.0972 15.4938C31.2042 15.4938 28.8408 13.1303 28.8408 10.2371C28.8408 7.34393 31.2042 4.98047 34.0972 4.98047C36.9903 4.98047 39.3537 7.34393 39.3537 10.2371V15.4938H34.0972Z" fill="#A2A2A2"/>
<path d="M34.0985 18.1425C36.9916 18.1425 39.3549 20.506 39.3549 23.3992C39.3549 26.2924 36.9916 28.6559 34.0985 28.6559H20.9371C18.044 28.6559 15.6807 26.2924 15.6807 23.3992C15.6807 20.506 18.044 18.1425 20.9371 18.1425H34.0985Z" fill="#A2A2A2"/>
<path d="M55.2066 23.3991C55.2066 20.5059 57.5699 18.1424 60.463 18.1424C63.356 18.1424 65.7194 20.5059 65.7194 23.3991C65.7194 26.2923 63.356 28.6558 60.463 28.6558H55.2066V23.3991Z" fill="#BEBEBE"/>
<path d="M52.5592 23.3992C52.5592 26.2924 50.1959 28.6559 47.3028 28.6559C44.4097 28.6559 42.0464 26.2924 42.0464 23.3992V10.2371C42.0464 7.34393 44.4097 4.98047 47.3028 4.98047C50.1959 4.98047 52.5592 7.34393 52.5592 10.2371V23.3992Z" fill="#BEBEBE"/>
<path d="M47.3028 44.5077C50.1959 44.5077 52.5592 46.8712 52.5592 49.7644C52.5592 52.6576 50.1959 55.0211 47.3028 55.0211C44.4097 55.0211 42.0464 52.6576 42.0464 49.7644V44.5077H47.3028Z" fill="#A1A1A1"/>
<path d="M47.3028 41.859C44.4097 41.859 42.0464 39.4956 42.0464 36.6024C42.0464 33.7092 44.4097 31.3457 47.3028 31.3457H60.4642C63.3573 31.3457 65.7207 33.7092 65.7207 36.6024C65.7207 39.4956 63.3573 41.859 60.4642 41.859H47.3028Z" fill="#A1A1A1"/>
</svg>
