<svg width="56" height="50" viewBox="0 0 56 50" fill="none" xmlns="http://www.w3.org/2000/svg">
<path d="M7.6 15.5C4.5 15.5 1.6 17.2 0 19.9H7.6C7.9 19.9 8.2 20.2 8.2 20.5V28C8.2 28.3 7.9 28.6 7.6 28.6H0C1.6 31.3 4.4 33 7.6 33C12.4 33 16.4 29.1 16.4 24.2C16.4 19.3 12.4 15.5 7.6 15.5Z" fill="#D23346"/>
<path d="M17.1001 27.4H24.3001V21.1H17.1001C17.7001 23.2 17.8001 25.3 17.1001 27.4Z" fill="#D23346"/>
<path d="M28.0999 39.9C27.4999 40.5 26.6999 40.7 25.8999 40.5L28.0999 45.3L30.2999 40.5C29.4999 40.7 28.5999 40.5 28.0999 39.9Z" fill="#D23346"/>
<path d="M11.8 41.8C9.7 41.8 8 43.5 8 45.6C8 47.7 9.7 49.4 11.8 49.4C13.9 49.4 15.6 47.7 15.6 45.6C15.6 43.5 13.9 41.8 11.8 41.8Z" fill="#D23346"/>
<path d="M43.1001 7.40001C44.5001 7.40001 45.6001 6.30001 45.6001 4.90001C45.6001 3.50001 44.5001 2.40001 43.1001 2.40001C41.7001 2.40001 40.6001 3.50001 40.6001 4.90001C40.6001 6.30001 41.7001 7.40001 43.1001 7.40001Z" fill="#D23346"/>
<path d="M25.5999 38.4C25.5999 38.9 25.9999 39.3 26.4999 39.3C26.9999 39.3 27.3999 38.9 27.3999 38.4C27.3999 37.1 27.3999 26.8 27.3999 25C27.3999 24.7 27.6999 24.4 27.9999 24.4C28.2999 24.4 28.5999 24.7 28.5999 25C28.5999 26.8 28.5999 37.2 28.5999 38.4C28.5999 38.9 28.9999 39.3 29.4999 39.3C29.9999 39.3 30.3999 38.9 30.3999 38.4C30.3999 36.5 30.3999 20 30.3999 17.5H25.3999C25.5999 22.1 25.5999 33.7 25.5999 38.4Z" fill="#D23346"/>
<path d="M30.6001 13.7H25.6001V16.2H30.6001V13.7Z" fill="#D23346"/>
<path d="M47.5999 28V20.5C47.5999 20.2 47.8999 19.9 48.1999 19.9H55.7999C54.1999 17.2 51.3999 15.5 48.1999 15.5C43.3999 15.5 39.3999 19.4 39.3999 24.3C39.3999 29.2 43.2999 33.1 48.1999 33.1C51.2999 33.1 54.1999 31.4 55.7999 28.7H48.1999C47.8999 28.7 47.5999 28.4 47.5999 28Z" fill="#D23346"/>
<path d="M38.6998 21.2H31.7998V27.5H38.6998C38.0998 25.4 37.9998 23.2 38.6998 21.2Z" fill="#D23346"/>
<path d="M28.1001 6.20001C26.7001 6.20001 25.6001 7.30001 25.6001 8.70001V12.5H30.6001V8.70001C30.6001 7.30001 29.4001 6.20001 28.1001 6.20001Z" fill="#D23346"/>
<path d="M50.9 8.70001C51.4 8.70001 51.8 9.10001 51.8 9.60001C51.8 10.1 51.4 10.5 50.9 10.5C50.4 10.5 50 10.1 50 9.60001C50 9.10001 50.4 8.70001 50.9 8.70001Z" fill="#D23346"/>
<path d="M34.6002 0C35.1002 0 35.5002 0.400009 35.5002 0.900009C35.5002 1.40001 35.1002 1.8 34.6002 1.8C34.1002 1.8 33.7002 1.40001 33.7002 0.900009C33.7002 0.400009 34.1002 0 34.6002 0Z" fill="#D23346"/>
<path d="M50.9 40C51.4 40 51.8 40.4 51.8 40.9C51.8 41.4 51.4 41.8 50.9 41.8C50.4 41.8 50 41.4 50 40.9C50 40.4 50.4 40 50.9 40Z" fill="#D23346"/>
<path d="M39.6002 46.8C40.1002 46.8 40.5002 47.2 40.5002 47.7C40.5002 48.2 40.1002 48.6 39.6002 48.6C39.1002 48.6 38.7002 48.2 38.7002 47.7C38.7002 47.2 39.1002 46.8 39.6002 46.8Z" fill="#D23346"/>
<path d="M17.6998 34.3C18.1998 34.3 18.5998 34.7 18.5998 35.2C18.5998 35.7 18.1998 36.1 17.6998 36.1C17.1998 36.1 16.7998 35.7 16.7998 35.2C16.7998 34.7 17.1998 34.3 17.6998 34.3Z" fill="#D23346"/>
<path d="M1.5001 47.4C1.99715 47.4 2.4001 46.9971 2.4001 46.5C2.4001 46.0029 1.99715 45.6 1.5001 45.6C1.00304 45.6 0.600098 46.0029 0.600098 46.5C0.600098 46.9971 1.00304 47.4 1.5001 47.4Z" fill="#D23346"/>
<path d="M6.5001 2.5C7.0001 2.5 7.4001 2.90001 7.4001 3.40001C7.4001 3.90001 7.0001 4.3 6.5001 4.3C6.0001 4.3 5.6001 3.90001 5.6001 3.40001C5.6001 2.90001 6.0001 2.5 6.5001 2.5Z" fill="#D23346"/>
<path d="M19.0001 12.4C19.4972 12.4 19.9001 11.9971 19.9001 11.5C19.9001 11.0029 19.4972 10.6 19.0001 10.6C18.503 10.6 18.1001 11.0029 18.1001 11.5C18.1001 11.9971 18.503 12.4 19.0001 12.4Z" fill="#D23346"/>
</svg>
