<svg width="56" height="58" viewBox="0 0 56 58" fill="none" xmlns="http://www.w3.org/2000/svg">
<path d="M8.9001 38.9714C9.6001 39.3714 10.4001 39.2714 10.8001 39.1714L32.7001 11.1714L29.4001 8.67142L7.6001 36.6714C7.8001 37.7714 8.3001 38.5714 8.9001 38.9714Z" fill="#D23346"/>
<path d="M43.5002 13.2714L32.5002 4.77142L30.2002 7.67142L41.2002 16.1714L43.5002 13.2714Z" fill="#D23346"/>
<path d="M7.6 21.8714C7.6 21.1714 7 20.5714 6.3 20.5714C5.6 20.5714 5 21.1714 5 21.8714C5 22.5714 5.6 23.1714 6.3 23.1714C7 23.1714 7.6 22.6714 7.6 21.8714Z" fill="#D23346"/>
<path d="M33.5998 12.0714L11.7998 40.0714C11.7998 40.4714 11.7998 41.5714 12.4998 42.1714C12.9998 42.5714 13.6998 42.6714 14.7998 42.3714L29.9998 22.8714C30.1998 22.5714 30.5998 22.5714 30.8998 22.7714C31.1998 22.9714 31.1998 23.3714 30.9998 23.6714L15.6998 43.1714C15.6998 43.4714 15.6998 44.0714 15.9998 44.4714C16.3998 44.9714 17.2998 45.1714 18.3998 45.1714L40.2998 17.1714L33.5998 12.0714Z" fill="#D23346"/>
<path d="M53 48.7714H8.4L16.2 46.0714C15.2 45.6714 14.6 44.7714 14.5 43.6714C12.1 44.0714 10.8 42.7714 10.6 40.5714C9.4 40.6714 8.3 40.2714 7.5 39.3714L7 49.4714C7 49.4714 7 49.4714 7 49.5714C7 49.8714 7.3 50.1714 7.6 50.1714H53.1C53.8 50.1714 54.4 50.7714 54.4 51.4714C54.4 52.1714 53.8 52.7714 53.1 52.7714H34.4C33.2 52.7714 32.2 53.7714 32.2 54.9714C32.2 56.1714 33.2 57.1714 34.4 57.1714H48.6C48.9 57.1714 49.2 56.8714 49.2 56.5714C49.2 56.2714 48.9 55.7714 48.6 55.7714H34.4C33.9 55.7714 33.5 55.3714 33.5 54.8714C33.5 54.3714 33.9 53.9714 34.4 53.9714H53C54.4 53.9714 55.5 52.8714 55.5 51.4714C55.5 49.9714 54.4 48.7714 53 48.7714Z" fill="#D23346"/>
<path d="M45.9998 9.87143C47.1998 8.27143 46.8998 6.07143 45.3998 4.87143L40.1998 0.771426C38.6998 -0.428574 36.3998 -0.228568 35.1998 1.37143L33.2998 3.77143L44.2998 12.2714L45.9998 9.87143Z" fill="#D23346"/>
<path d="M50.5 34.5714C51.9 34.5714 53 33.4714 53 32.0714C53 30.6714 51.9 29.5714 50.5 29.5714C49.1 29.5714 48 30.6714 48 32.0714C48 33.4714 49.1 34.5714 50.5 34.5714Z" fill="#D23346"/>
<path d="M4.0001 3.07141C4.5001 3.07141 4.9001 3.47144 4.9001 3.97144C4.9001 4.47144 4.5001 4.87143 4.0001 4.87143C3.5001 4.87143 3.1001 4.47144 3.1001 3.97144C3.1001 3.47144 3.5001 3.07141 4.0001 3.07141Z" fill="#D23346"/>
<path d="M17.4 8.67142C17.9 8.67142 18.3 9.07141 18.3 9.57141C18.3 10.0714 17.9 10.4714 17.4 10.4714C16.9 10.4714 16.5 10.0714 16.5 9.57141C16.5 9.07141 16.9 8.67142 17.4 8.67142Z" fill="#D23346"/>
<path d="M49.5001 19.3714C50.0001 19.3714 50.4001 19.7714 50.4001 20.2714C50.4001 20.7714 50.0001 21.1714 49.5001 21.1714C49.0001 21.1714 48.6001 20.7714 48.6001 20.2714C48.6001 19.7714 49.0001 19.3714 49.5001 19.3714Z" fill="#D23346"/>
<path d="M0.9 38.9714C1.4 38.9714 1.8 39.3714 1.8 39.8714C1.8 40.3714 1.4 40.7714 0.9 40.7714C0.4 40.7714 0 40.3714 0 39.8714C0 39.3714 0.4 38.9714 0.9 38.9714Z" fill="#D23346"/>
<path d="M33.6998 37.6714C34.1969 37.6714 34.5998 37.2685 34.5998 36.7714C34.5998 36.2744 34.1969 35.8714 33.6998 35.8714C33.2027 35.8714 32.7998 36.2744 32.7998 36.7714C32.7998 37.2685 33.2027 37.6714 33.6998 37.6714Z" fill="#D23346"/>
<path d="M50.7999 42.7714C51.2999 42.7714 51.6999 43.1714 51.6999 43.6714C51.6999 44.1714 51.2999 44.5714 50.7999 44.5714C50.2999 44.5714 49.8999 44.1714 49.8999 43.6714C49.8999 43.1714 50.2999 42.7714 50.7999 42.7714Z" fill="#D23346"/>
<path d="M14.7999 54.0714C15.2999 54.0714 15.6999 54.4714 15.6999 54.9714C15.6999 55.4714 15.2999 55.8714 14.7999 55.8714C14.2999 55.8714 13.8999 55.4714 13.8999 54.9714C13.8999 54.5714 14.2999 54.0714 14.7999 54.0714Z" fill="#D23346"/>
</svg>
