<svg width="352" height="64" viewBox="0 0 352 64" fill="none" xmlns="http://www.w3.org/2000/svg">
<g opacity="0.3">
<path d="M27.8001 2.20001L16.4001 32.8H20.9001C24.5001 32.8 27.7001 30.5 28.9001 27.1L34.3001 11.7L45.0001 42.5H12.8001L5.20007 62.8C11.9001 62.8 17.9001 58.6 20.2001 52.2L21.0001 50.1H58.7001L40.9001 2.20001H27.8001Z" fill="black"/>
</g>
<path d="M23 0L11.6 30.5H16.1C19.7 30.5 22.9 28.2 24.1 24.8L29.5 9.4L40.2 40.2H8.00002L0.400024 60.5C7.10002 60.5 13.1 56.3 15.4 49.9L16.2 47.8H53.9L36.1 0H23Z" fill="#D63447"/>
<g opacity="0.3">
<path d="M320.4 2.20001L309 32.8H313.5C317.1 32.8 320.3 30.5 321.5 27.1L326.9 11.7L337.6 42.5H305.4L297.8 62.8C304.5 62.8 310.5 58.6 312.8 52.2L313.6 50.1H351.3L333.5 2.20001H320.4Z" fill="black"/>
</g>
<path d="M315.6 0L304.2 30.5H308.7C312.3 30.5 315.5 28.2 316.7 24.8L322.1 9.4L332.8 40.2H300.6L293 60.5C299.7 60.5 305.7 56.3 308 49.9L308.8 47.8H346.5L328.7 0H315.6Z" fill="#D63447"/>
<g opacity="0.3">
<path d="M67.5001 45.7H69.5001C74.2001 45.7 78.0001 41.9 78.0001 37.2V2.20001H67.5001V45.7Z" fill="black"/>
<path d="M91.5001 55.3H67.5001V62.9H99.1001C99.1001 58.7 95.7001 55.3 91.5001 55.3Z" fill="black"/>
</g>
<path d="M62.7001 43.4H64.7001C69.4001 43.4 73.2001 39.6 73.2001 34.9V0H62.7001V43.4Z" fill="#D63447"/>
<path d="M86.7001 53H62.7001V60.6H94.3001C94.2001 56.4 90.8001 53 86.7001 53Z" fill="#D63447"/>
<g opacity="0.3">
<path d="M143.3 2.20001H107.9V10.1H143.3V2.20001Z" fill="black"/>
<path d="M140.6 36V28.4H118.4V28.3C118.4 23.6 114.6 19.8 109.9 19.8H107.9V62.9H118.4V36H140.6Z" fill="black"/>
<path d="M143.3 54.9H136.1C131.7 54.9 128.1 58.5 128.1 62.9H143.3V54.9Z" fill="black"/>
</g>
<path d="M138.5 0H103.1V7.9H138.5V0Z" fill="#D63447"/>
<path d="M135.8 33.7V26.1H113.6V26C113.6 21.3 109.8 17.5 105.1 17.5H103.1V60.6H113.6V33.7H135.8Z" fill="#D63447"/>
<path d="M138.5 52.6H131.3C126.9 52.6 123.3 56.2 123.3 60.6H138.5V52.6Z" fill="#D63447"/>
<g opacity="0.3">
<path d="M152.1 62.9H162.6V54.7C162.6 50 158.8 46.2 154.1 46.2H152.1V62.9Z" fill="black"/>
<path d="M162.6 2.20001H152.1V36.6H183.8V29H162.6V2.20001Z" fill="black"/>
<path d="M180.2 10.2H189V2.29999H172.3C172.3 6.59999 175.8 10.2 180.2 10.2Z" fill="black"/>
</g>
<path d="M147.3 60.6H157.8V52.4C157.8 47.7 154 43.9 149.3 43.9H147.3V60.6Z" fill="#D63447"/>
<path d="M157.8 0H147.3V34.3H178.9V26.7H157.8V0Z" fill="#D63447"/>
<path d="M175.4 7.9H184.2V0H167.5C167.5 4.3 171 7.9 175.4 7.9Z" fill="#D63447"/>
<g opacity="0.3">
<path d="M211.9 20.7H210.1V55.2H197.9V63H232.6V55.2H220.4V29.2C220.4 24.5 216.6 20.7 211.9 20.7Z" fill="black"/>
<path d="M197.9 10.1H224.9C229.2 10.1 232.7 6.59999 232.7 2.29999H198V10.1H197.9Z" fill="black"/>
</g>
<path d="M207 18.4H205.2V52.9H193V60.7H227.7V52.9H215.5V26.9C215.5 22.2 211.7 18.4 207 18.4Z" fill="#D63447"/>
<path d="M193 7.8H220C224.3 7.8 227.8 4.3 227.8 0H193.1V7.8H193Z" fill="#D63447"/>
<g opacity="0.3">
<path d="M262.2 63.1H272.8V50.8H270.7C266 50.8 262.2 54.6 262.2 59.3V63.1Z" fill="black"/>
<path d="M253.6 2.40005H241.5L261.7 41.1H268C271.2 41.1 274.1 39.3 275.5 36.5L293.3 2.30005H281.5L267.6 31L253.6 2.40005Z" fill="black"/>
</g>
<path d="M257.3 60.8H267.9V48.5H265.8C261.1 48.5 257.3 52.3 257.3 57V60.8Z" fill="#D63447"/>
<path d="M248.8 0.100006H236.7L256.9 38.8H263.2C266.4 38.8 269.3 37 270.7 34.2L288.5 0H276.7L262.8 28.7L248.8 0.100006Z" fill="#D63447"/>
</svg>
