<svg width="56" height="55" viewBox="0 0 56 55" fill="none" xmlns="http://www.w3.org/2000/svg">
<path d="M52.0999 4.90001C53.2999 4.90001 54.2999 3.9 54.2999 2.7C54.2999 1.5 53.2999 0.5 52.0999 0.5C50.8999 0.5 49.8999 1.5 49.8999 2.7C49.8999 3.9 50.8999 4.90001 52.0999 4.90001Z" fill="#D23346"/>
<path d="M3.90012 50.3C3.20012 50.3 2.6001 50.9 2.6001 51.6C2.6001 52.3 3.20012 52.9 3.90012 52.9C4.60012 52.9 5.2001 52.3 5.2001 51.6C5.2001 50.9 4.60012 50.3 3.90012 50.3Z" fill="#D23346"/>
<path d="M47.9999 33.3C43.1999 33.3 39.0999 29.4 39.0999 24.4C39.0999 19.4 42.9999 15.5 47.9999 15.5C50.3999 15.5 52.6999 16.5 54.3999 18.2C54.8999 11.3 48.6999 5.90001 42.0999 7.10001C41.8999 7.10001 41.6999 7.10001 41.4999 6.90001C39.9999 5.20001 37.8999 4.2 35.5999 4.2C31.3999 4.2 27.8999 7.60001 27.8999 11.9V22.7C33.8999 22.6 34.5999 19.3 34.5999 19.3C34.6999 19 34.9999 18.7 35.2999 18.8C35.5999 18.9 35.8999 19.2 35.7999 19.5C35.7999 19.7 34.8999 23.9 27.8999 23.9V48C27.8999 50.5 32.6999 52.9 35.5999 52.9C38.0999 52.9 40.1999 51 40.4999 48.6C36.6999 48.3 33.5999 45 33.5999 41C33.5999 40.7 33.8999 40.4 34.1999 40.4C34.4999 40.4 34.7999 40.7 34.7999 41C34.7999 44.4 37.5999 47.3 41.0999 47.3C45.9999 47.3 49.7999 42.7 48.5999 37.8C48.4999 37.6 48.5999 37.3 48.7999 37.2C50.2999 36 51.1999 34.3 51.4999 32.4C50.3999 33.1 49.1999 33.3 47.9999 33.3ZM34.1999 39.6C33.8999 39.6 33.5999 39.3 33.5999 39C33.5999 38.7 33.8999 38.4 34.1999 38.4C34.4999 38.4 34.7999 38.7 34.7999 39C34.7999 39.3 34.4999 39.6 34.1999 39.6Z" fill="#D23346"/>
<path d="M52.7001 45.3C51.8001 45.3 51.1001 46 51.1001 46.9C51.1001 47.8 51.8001 48.5 52.7001 48.5C53.6001 48.5 54.3001 47.8 54.3001 46.9C54.3001 46 53.6001 45.3 52.7001 45.3Z" fill="#D23346"/>
<path d="M18.8 4.3C16.5 4.3 14.4 5.3 12.9 7C12.8 7.2 12.5 7.3 12.3 7.2C5.79999 6.1 0 11 0 17.5C0 20.8 1.49998 23.9 4.19998 25.9C4.49998 26.1 4.49999 26.5 4.29999 26.8C1.89999 30.1 2.4 34.8 5.5 37.4C5.7 37.6 5.79998 37.8 5.69998 38C4.49998 42.9 8.19998 47.5 13.2 47.5C16.6 47.5 19.5 44.7 19.5 41.2C19.5 40.9 19.8 40.6 20.1 40.6C20.4 40.6 20.7 40.9 20.7 41.2C20.7 45.1 17.7 48.4 13.8 48.8C14.1 51.2 16.2 53.1 18.7 53.1C21.6 53.1 26.4 50.7 26.4 48.2V34.2C23.8 35 21.1 35.1 18.6 33.7C15.3 31.7 14.5 27.7 14.5 27.5C14.4 27.2 14.7 26.8 15 26.8C15.3 26.7 15.7 27 15.7 27.3C15.7 27.3 16.4 30.9 19.2 32.5C21 33.6 23.4 33.7 26.3 32.8V11.9C26.6 7.80001 23.2 4.3 18.8 4.3ZM14.6 25.7C14.3 25.7 14 25.4 14 25.1C14 24.8 14.3 24.5 14.6 24.5C14.9 24.5 15.2 24.8 15.2 25.1C15.2 25.4 15 25.7 14.6 25.7ZM17.3 18.1C17 18.1 16.8 17.9 16.7 17.6C16 14.5 13.3 14.2 13.3 14.2C13 14.2 12.7 13.8 12.8 13.5C12.8 13.2 13.2 12.9 13.5 13C14.7 13.2 17.3 14.3 18 17.4C18 17.7 17.7 18.1 17.3 18.1Z" fill="#D23346"/>
<path d="M47.9999 16.9C43.8999 16.9 40.3999 20.3 40.3999 24.5C40.3999 28.6 43.7999 32.1 47.9999 32.1C52.0999 32.1 55.5999 28.8 55.5999 24.5C55.5999 20.3 52.0999 16.9 47.9999 16.9ZM52.4999 28C52.6999 28.2 52.6999 28.6 52.4999 28.9C52.2999 29.1 51.8999 29.1 51.5999 28.9L47.9999 25.4L44.4999 28.9C44.3999 29 44.1999 29.1 44.0999 29.1C43.4999 29.1 43.2999 28.4 43.6999 28L47.1999 24.5L43.6999 21C43.4999 20.8 43.4999 20.4 43.6999 20.1C43.8999 19.9 44.2999 19.9 44.5999 20.1L48.0999 23.6L51.5999 20.1C51.7999 19.9 52.1999 19.9 52.4999 20.1C52.6999 20.3 52.6999 20.7 52.4999 21L48.9999 24.5L52.4999 28Z" fill="#D23346"/>
<path d="M53.2999 38.4C53.7999 38.4 54.1999 38.8 54.1999 39.3C54.1999 39.8 53.7999 40.2 53.2999 40.2C52.7999 40.2 52.3999 39.8 52.3999 39.3C52.3999 38.8 52.7999 38.4 53.2999 38.4Z" fill="#D23346"/>
<path d="M45.1998 51.7C45.6998 51.7 46.0998 52.1 46.0998 52.6C46.0998 53.1 45.6998 53.5 45.1998 53.5C44.6998 53.5 44.2998 53.1 44.2998 52.6C44.2998 52.1 44.6998 51.7 45.1998 51.7Z" fill="#D23346"/>
<path d="M43.9 1.8C44.4 1.8 44.8 2.2 44.8 2.7C44.8 3.2 44.4 3.60001 43.9 3.60001C43.4 3.60001 43 3.2 43 2.7C43 2.2 43.4 1.8 43.9 1.8Z" fill="#D23346"/>
<path d="M12.4002 53C12.9002 53 13.3002 53.4 13.3002 53.9C13.3002 54.4 12.9002 54.8 12.4002 54.8C11.9002 54.8 11.5002 54.4 11.5002 53.9C11.4002 53.4 11.9002 53 12.4002 53Z" fill="#D23346"/>
<path d="M8.60019 0C9.10019 0 9.50021 0.400009 9.50021 0.900009C9.50021 1.40001 9.10019 1.8 8.60019 1.8C8.10019 1.8 7.7002 1.40001 7.7002 0.900009C7.7002 0.400009 8.10019 0 8.60019 0Z" fill="#D23346"/>
<path d="M1.09988 41.6C1.59988 41.6 1.9999 42 1.9999 42.5C1.9999 43 1.59988 43.4 1.09988 43.4C0.599877 43.4 0.199883 43 0.199883 42.5C0.0998828 42 0.599877 41.6 1.09988 41.6Z" fill="#D23346"/>
</svg>
