<svg width="57" height="56" viewBox="0 0 57 56" fill="none" xmlns="http://www.w3.org/2000/svg">
<path d="M37.7 13.3H34.5L36.1 14.9L37.7 13.3Z" fill="#D23346"/>
<path d="M28.7002 32H43.7002V28.3H33.0002C30.8002 28.3 29.0002 29.9 28.7002 32Z" fill="#D23346"/>
<path d="M33.0001 27H43.7001V8.69998H33.1001C30.6001 8.69998 28.6001 10.7 28.6001 13.2V29C29.7001 27.8 31.2001 27 33.0001 27ZM32.5001 12.3C32.6001 12.1 32.8001 12 33.0001 12C39.8001 12 39.3001 12 39.4001 12C39.6001 12.1 39.8001 12.2 39.8001 12.4C39.9001 12.6 39.8001 12.2 39.8001 18.8C39.8001 19.1 39.5001 19.4 39.2001 19.4H32.9001C32.6001 19.4 32.3001 19.1 32.3001 18.8C32.4001 12.3 32.3001 12.5 32.5001 12.3ZM31.1001 21.4H41.1001C41.4001 21.4 41.7001 21.7 41.7001 22C41.7001 22.3 41.4001 22.6 41.1001 22.6H31.1001C30.8001 22.6 30.5001 22.3 30.5001 22C30.5001 21.7 30.8001 21.4 31.1001 21.4ZM31.1001 23.9H41.1001C41.4001 23.9 41.7001 24.2 41.7001 24.5C41.7001 24.8 41.4001 25.1 41.1001 25.1H31.1001C30.8001 25.1 30.5001 24.8 30.5001 24.5C30.5001 24.2 30.8001 23.9 31.1001 23.9Z" fill="#D23346"/>
<path d="M38.6 17.4V14.1L37 15.8L38.6 17.4Z" fill="#D23346"/>
<path d="M33.6001 14.1V17.4L35.2001 15.8L33.6001 14.1Z" fill="#D23346"/>
<path d="M7.3999 5C8.7999 5 9.8999 3.9 9.8999 2.5C9.8999 1.1 8.7999 0 7.3999 0C5.9999 0 4.8999 1.1 4.8999 2.5C4.8999 3.9 5.9999 5 7.3999 5Z" fill="#D23346"/>
<path d="M34.5 18.3H37.7L36.1 16.6L34.5 18.3Z" fill="#D23346"/>
<path d="M12.9999 49.4H7.3999V50.7H12.9999V49.4Z" fill="#D23346"/>
<path d="M27.3999 29.1V13.3C27.3999 10.8 25.3999 8.79999 22.8999 8.79999H12.3999V27.1H23.0999C24.7999 27 26.2999 27.8 27.3999 29.1ZM14.8999 13.9H19.8999C20.1999 13.9 20.4999 14.2 20.4999 14.5C20.4999 14.8 20.1999 15.1 19.8999 15.1H14.8999C14.5999 15.1 14.2999 14.8 14.2999 14.5C14.2999 14.2 14.4999 13.9 14.8999 13.9ZM14.8999 16.4H24.8999C25.1999 16.4 25.4999 16.7 25.4999 17C25.4999 17.3 25.1999 17.6 24.8999 17.6H14.8999C14.5999 17.6 14.2999 17.3 14.2999 17C14.2999 16.7 14.4999 16.4 14.8999 16.4ZM14.8999 18.9H24.8999C25.1999 18.9 25.4999 19.2 25.4999 19.5C25.4999 19.8 25.1999 20.1 24.8999 20.1H14.8999C14.5999 20.1 14.2999 19.8 14.2999 19.5C14.2999 19.2 14.4999 18.9 14.8999 18.9ZM14.8999 21.4H24.8999C25.1999 21.4 25.4999 21.7 25.4999 22C25.4999 22.3 25.1999 22.6 24.8999 22.6H14.8999C14.5999 22.6 14.2999 22.3 14.2999 22C14.2999 21.7 14.4999 21.4 14.8999 21.4ZM14.2999 24.5C14.2999 24.2 14.5999 23.9 14.8999 23.9H24.8999C25.1999 23.9 25.4999 24.2 25.4999 24.5C25.4999 24.8 25.1999 25.1 24.8999 25.1H14.8999C14.4999 25.1 14.2999 24.9 14.2999 24.5Z" fill="#D23346"/>
<path d="M22.9999 28.3H12.3999V32.1H27.3999C26.9999 29.9 25.1999 28.3 22.9999 28.3Z" fill="#D23346"/>
<path d="M49.2998 41.2H6.7998V43.7H49.2998V41.2Z" fill="#D23346"/>
<path d="M48.6 49.4H43V50.7H48.6V49.4Z" fill="#D23346"/>
<path d="M53 49.4H49.9V51.3C49.9 51.6 49.6 51.9 49.3 51.9H42.4C42.1 51.9 41.8 51.6 41.8 51.3V49.4H34.9V51.3C34.9 51.6 34.6 51.9 34.3 51.9H21.8C21.5 51.9 21.2 51.6 21.2 51.3V49.4H14.3V51.3C14.3 51.6 14 51.9 13.7 51.9H6.79999C6.49999 51.9 6.20001 51.6 6.20001 51.3V49.4H3.10001C1.40001 49.4 0 50.8 0 52.5C0 54.2 1.40001 55.6 3.10001 55.6H53.1C54.8 55.6 56.2 54.2 56.2 52.5C56.2 50.8 54.7 49.4 53 49.4Z" fill="#D23346"/>
<path d="M11.1002 16.2H6.7002V40H49.2002V16.2H44.8002C44.8002 18.8 44.8002 30.7 44.8002 32.6C44.8002 32.9 44.5002 33.2 44.2002 33.2C43.3002 33.2 12.6002 33.2 11.7002 33.2C11.4002 33.2 11.1002 32.9 11.1002 32.6C11.1002 30.7 11.1002 18.8 11.1002 16.2Z" fill="#D23346"/>
<path d="M2.3999 44.2C2.3999 46.4 4.1999 48.1 6.2999 48.1C6.9999 48.1 19.4999 48.1 21.7999 48.1C22.0999 48.1 22.3999 48.4 22.3999 48.7V50.6H33.6999V48.7C33.6999 48.4 33.9999 48.1 34.2999 48.1C35.2999 48.1 50.6999 48.1 49.7999 48.1C51.9999 48.1 53.6999 46.3 53.6999 44.2V15.8C53.6999 13.6 51.8999 11.9 49.7999 11.9H44.9999V15H49.9999C50.2999 15 50.5999 15.3 50.5999 15.6V44.4C50.5999 44.7 50.2999 45 49.9999 45H6.09991C5.79991 45 5.49991 44.7 5.49991 44.4V15.6C5.49991 15.3 5.79991 15 6.09991 15H11.0999V11.9H6.2999C4.0999 11.9 2.3999 13.7 2.3999 15.8V44.2Z" fill="#D23346"/>
<path d="M53 6.89999C54.4 6.89999 55.5 5.79999 55.5 4.39999C55.5 2.99999 54.4 1.89999 53 1.89999C51.6 1.89999 50.5 2.99999 50.5 4.39999C50.5 5.79999 51.6 6.89999 53 6.89999Z" fill="#D23346"/>
<path d="M45.1998 3.19998C45.6998 3.19998 46.0998 3.59998 46.0998 4.09998C46.0998 4.59998 45.6998 5 45.1998 5C44.6998 5 44.2998 4.59998 44.2998 4.09998C44.2998 3.59998 44.6998 3.19998 45.1998 3.19998Z" fill="#D23346"/>
<path d="M35.7999 0.699982C36.2999 0.699982 36.6999 1.09998 36.6999 1.59998C36.6999 2.09998 36.2999 2.5 35.7999 2.5C35.2999 2.5 34.8999 2.09998 34.8999 1.59998C34.8999 1.09998 35.2999 0.699982 35.7999 0.699982Z" fill="#D23346"/>
<path d="M26.4 3.79999C26.9 3.79999 27.3 4.19998 27.3 4.69998C27.3 5.19998 26.9 5.59998 26.4 5.59998C25.9 5.59998 25.5 5.19998 25.5 4.69998C25.5 4.19998 25.9 3.79999 26.4 3.79999Z" fill="#D23346"/>
<path d="M15.7999 0C16.2999 0 16.6999 0.399994 16.6999 0.899994C16.6999 1.39999 16.2999 1.79999 15.7999 1.79999C15.2999 1.79999 14.8999 1.39999 14.8999 0.899994C14.8999 0.399994 15.2999 0 15.7999 0Z" fill="#D23346"/>
<path d="M2.10019 8.19998C2.60019 8.19998 3.00018 8.59998 3.00018 9.09998C3.00018 9.59998 2.60019 10 2.10019 10C1.60019 10 1.2002 9.59998 1.2002 9.09998C1.2002 8.59998 1.60019 8.19998 2.10019 8.19998Z" fill="#D23346"/>
</svg>
