<svg width="52" height="50" viewBox="0 0 52 50" fill="none" xmlns="http://www.w3.org/2000/svg">
<path d="M13.8392 40.8H9.23923L7.83923 36.4C7.73923 36.1 7.53923 36 7.23923 36C6.93923 36 6.73923 36.2 6.63923 36.4L5.23923 40.8H0.639229C0.339229 40.8 0.139231 41 0.0392307 41.2C-0.0607693 41.5 0.0392295 41.7 0.23923 41.9L4.03923 44.6L2.63923 49C2.53923 49.3 2.63923 49.5 2.83923 49.7C2.93923 49.8 3.03923 49.8 3.23923 49.8C3.43923 49.8 3.53923 49.8 3.63923 49.7L7.43923 47L11.2392 49.7C11.4392 49.9 11.7392 49.9 11.9392 49.7C12.1392 49.5 12.2392 49.3 12.1392 49L10.7392 44.6L14.5392 41.9C14.7392 41.7 14.8392 41.5 14.7392 41.2C14.3392 41 14.1392 40.8 13.8392 40.8Z" fill="#D23346"/>
<path d="M49.7394 40.8H45.1394L43.6394 36.4C43.5394 36.1 43.3394 36 43.0394 36C42.7394 36 42.5394 36.2 42.4394 36.4L41.0394 40.8H36.3394C36.0394 40.8 35.8394 41 35.7394 41.2C35.6394 41.5 35.7394 41.7 35.9394 41.9L39.7394 44.6L38.3394 49.1C38.2394 49.4 38.3394 49.6 38.5394 49.8C38.7394 50 39.0394 50 39.2394 49.8L43.0394 47.1L46.8394 49.8C47.0394 50 47.3394 50 47.5394 49.8C47.7394 49.6 47.8394 49.4 47.7394 49.1L46.3394 44.7L50.1394 42C50.3394 41.8 50.4394 41.6 50.3394 41.3C50.2394 41 49.9394 40.8 49.7394 40.8Z" fill="#D23346"/>
<path d="M21.4393 20.6V18.9C21.4393 18.6 21.7393 18.3 22.0393 18.3C22.3393 18.3 22.6393 18.6 22.6393 18.9V20.6H27.6393V18.9C27.6393 18.6 27.9393 18.3 28.2393 18.3C28.5393 18.3 28.8393 18.6 28.8393 18.9V20.6H30.4393C31.5393 17.3 29.3393 13.9 26.0393 13.3L27.2393 16.3C27.3393 16.5 27.2393 16.8 27.1393 17L25.5393 18.6C25.3393 18.8 24.9393 18.8 24.6393 18.6L23.0393 17C22.8393 16.8 22.8393 16.6 22.9393 16.3L24.1393 13.3C20.8393 13.9 18.6393 17.3 19.7393 20.6H21.4393Z" fill="#D23346"/>
<path d="M24.3394 16.4L25.2394 17.2L26.0394 16.4L25.2394 14.3L24.3394 16.4Z" fill="#D23346"/>
<path d="M25.2393 12C26.6393 12 27.7393 10.9 27.7393 9.5C27.7393 8.1 26.6393 7 25.2393 7C23.8393 7 22.7393 8.1 22.7393 9.5C22.7393 10.9 23.8393 12 25.2393 12Z" fill="#D23346"/>
<path d="M24.9394 27.5C32.1394 27.5 38.0394 21.6 38.0394 14.4C38.0394 7.20001 32.1394 1.3 24.9394 1.3C17.7394 1.3 11.8394 7.20001 11.8394 14.4C11.8394 21.6 17.6394 27.5 24.9394 27.5ZM22.8394 12.4C21.9394 11.7 21.4394 10.7 21.4394 9.5C21.4394 7.4 23.1394 5.7 25.2394 5.7C27.3394 5.7 29.0394 7.4 29.0394 9.5C29.0394 10.7 28.5394 11.7 27.6394 12.4C31.3394 13.7 33.1394 17.8 31.6394 21.4C31.5394 21.6 31.3394 21.8 31.0394 21.8H19.4394C19.1394 21.8 18.9394 21.6 18.8394 21.4C18.5394 20.6 18.3394 19.7 18.3394 18.8C18.3394 15.9 20.2394 13.4 22.8394 12.4Z" fill="#D23346"/>
<path d="M34.4393 37.7H27.7393L25.7393 31.4C25.6393 31.1 25.4393 31 25.1393 31C24.8393 31 24.6393 31.2 24.5393 31.4L22.4393 37.7H15.7393C15.4393 37.7 15.2393 37.9 15.1393 38.1C15.0393 38.4 15.1393 38.6 15.3393 38.8L20.7393 42.7L18.6393 49C18.5393 49.3 18.6393 49.5 18.8393 49.7C19.0393 49.9 19.3393 49.9 19.5393 49.7L24.9393 45.8L30.3393 49.7C30.5393 49.9 30.8393 49.9 31.0393 49.7C31.2393 49.5 31.3393 49.3 31.2393 49L29.1393 42.7L34.5393 38.8C34.7393 38.6 34.8393 38.4 34.7393 38.1C34.9393 37.9 34.7393 37.7 34.4393 37.7Z" fill="#D23346"/>
<path d="M46.7393 13.1C48.1393 13.1 49.2393 12 49.2393 10.6C49.2393 9.20001 48.1393 8.10001 46.7393 8.10001C45.3393 8.10001 44.2393 9.20001 44.2393 10.6C44.2393 12 45.4393 13.1 46.7393 13.1Z" fill="#D23346"/>
<path d="M4.23916 28.8C5.93916 28.8 7.33916 27.4 7.33916 25.7C7.33916 24 6.03916 22.5 4.23916 22.5C2.43916 22.5 1.13916 23.9 1.13916 25.6C1.13916 27.3 2.53916 28.8 4.23916 28.8Z" fill="#D23346"/>
<path d="M42.1393 0.699997C42.6393 0.699997 43.0393 1.1 43.0393 1.6C43.0393 2.1 42.6393 2.5 42.1393 2.5C41.6393 2.5 41.2393 2.1 41.2393 1.6C41.2393 1.1 41.6393 0.699997 42.1393 0.699997Z" fill="#D23346"/>
<path d="M4.63926 0C5.13926 0 5.53926 0.4 5.53926 0.9C5.53926 1.4 5.13926 1.8 4.63926 1.8C4.13926 1.8 3.73926 1.4 3.73926 0.9C3.73926 0.4 4.13926 0 4.63926 0Z" fill="#D23346"/>
<path d="M5.23936 11.9C5.73936 11.9 6.13935 12.3 6.13935 12.8C6.13935 13.3 5.73936 13.7 5.23936 13.7C4.73936 13.7 4.33936 13.3 4.33936 12.8C4.33936 12.3 4.73936 11.9 5.23936 11.9Z" fill="#D23346"/>
<path d="M13.9391 32.5C14.4361 32.5 14.8391 32.0971 14.8391 31.6C14.8391 31.1029 14.4361 30.7 13.9391 30.7C13.442 30.7 13.0391 31.1029 13.0391 31.6C13.0391 32.0971 13.442 32.5 13.9391 32.5Z" fill="#D23346"/>
<path d="M50.8395 21.3C51.3395 21.3 51.7395 21.7 51.7395 22.2C51.7395 22.7 51.3395 23.1 50.8395 23.1C50.3395 23.1 49.9395 22.7 49.9395 22.2C49.9395 21.7 50.3395 21.3 50.8395 21.3Z" fill="#D23346"/>
<path d="M39.6393 27.5C40.1393 27.5 40.5393 27.9 40.5393 28.4C40.5393 28.9 40.1393 29.3 39.6393 29.3C39.1393 29.3 38.7393 28.9 38.7393 28.4C38.7393 27.9 39.1393 27.5 39.6393 27.5Z" fill="#D23346"/>
</svg>
