<?xml version="1.0" encoding="UTF-8"?>
<svg version="1.1" xmlns="http://www.w3.org/2000/svg" width="223" height="223">
<path d="M0 0 C2.34625825 1.34868052 4.44319189 2.68329116 6.625 4.25 C13.07978417 8.63334974 19.53376437 11.6338694 27 14 C27.73089844 14.24492187 28.46179688 14.48984375 29.21484375 14.7421875 C47.1445097 19.76662364 66.52559551 14.83820333 82.27148438 6.02099609 C85.3245525 4.21761602 88.21330474 2.21119796 91.0078125 0.03125 C93.84108559 -1.43538548 95.84794958 -1.33600538 99 -1 C118.09306616 7.24077627 131.31492088 28.64085842 138.85400391 47.08984375 C143.17480248 58.67125112 148.58131172 76.14096575 143.8125 87.9375 C140.85554571 91.30231005 137.95410223 91.92981264 133.5407486 92.25447559 C132.1888813 92.26671205 130.83688798 92.26805775 129.48498535 92.26069641 C128.36293379 92.26643473 128.36293379 92.26643473 127.21821451 92.27228898 C124.71636802 92.28259241 122.21475215 92.27863194 119.71289062 92.2746582 C117.91733081 92.2790061 116.12177285 92.28418951 114.32621765 92.29014587 C109.4523456 92.30353746 104.57855109 92.30411446 99.70466423 92.30158257 C95.63639593 92.30051316 91.56814334 92.30539536 87.49987841 92.310188 C77.90371559 92.32128332 68.30759191 92.32172017 58.71142578 92.31567383 C48.80877249 92.30963041 38.90626114 92.32195436 29.00363207 92.3432439 C20.50245269 92.36084904 12.00131854 92.36686305 3.50012159 92.36360615 C-1.57773225 92.36179172 -6.65548479 92.3644456 -11.73332214 92.37832069 C-16.50711128 92.39087703 -21.28067869 92.38897576 -26.05446434 92.37590981 C-27.80683148 92.37353984 -29.55921412 92.37629371 -31.31156349 92.38453293 C-33.70296272 92.39496656 -36.09361326 92.38692748 -38.48498535 92.3742218 C-39.17905408 92.38159609 -39.87312282 92.38897037 -40.58822393 92.39656812 C-44.89150653 92.34843806 -47.55182835 91.58397 -51 89 C-53.72042279 85.48276699 -53.16784177 81.53621615 -52.875 77.3125 C-52.82569336 76.56718018 -52.77638672 75.82186035 -52.72558594 75.05395508 C-50.58760559 48.3767736 -38.16201731 24.13463614 -18.15625 6.4921875 C-7.9034924 -1.92110476 -7.9034924 -1.92110476 0 0 Z " fill="#737373" transform="translate(60,121)"/>
<path d="M0 0 C1.67578125 1.32421875 1.67578125 1.32421875 3.98828125 3.57421875 C3.98828125 4.23421875 3.98828125 4.89421875 3.98828125 5.57421875 C4.57738281 5.81527344 5.16648437 6.05632813 5.7734375 6.3046875 C14.574683 11.34949312 18.19614215 24.22594493 20.7734375 33.35546875 C24.4402248 49.86815328 19.69513598 65.56674744 10.98828125 79.57421875 C3.0973521 91.17269501 -9.74366757 98.04447592 -23.01171875 101.57421875 C-38.4839936 104.21832305 -55.66102851 102.51239272 -69.01171875 93.57421875 C-72.55419102 90.7666773 -75.81401426 87.76637167 -79.01171875 84.57421875 C-79.58921875 84.00832031 -80.16671875 83.44242187 -80.76171875 82.859375 C-90.67122136 72.30472248 -94.52437976 58.10230705 -94.36108398 43.98266602 C-93.83038907 27.79017471 -87.92421688 14.48862811 -76.41357422 3.12182617 C-55.19820463 -16.38010974 -23.00815265 -16.30674897 0 0 Z " fill="#FC2941" transform="translate(144.01171875,24.42578125)"/>
<path d="M0 0 C0.66 0 1.32 0 2 0 C3.2265625 1.28515625 3.2265625 1.28515625 4.625 3.0625 C7.52441621 6.57306767 10.70842892 9.47717299 14.1640625 12.4296875 C16.22669972 14.19390062 18.19535545 15.96977488 20 18 C20 18.66 20 19.32 20 20 C20.66 20 21.32 20 22 20 C22.24105469 19.4328125 22.48210937 18.865625 22.73046875 18.28125 C25.22680522 13.79552539 29.31639742 10.5161661 33 7 C33.845625 6.13375 34.69125 5.2675 35.5625 4.375 C38.47021163 2.73475242 40.60757635 2.58785322 43.88671875 3.19921875 C50.36091384 5.65247197 56.10410599 12.40703094 60 18 C60 18.66 60 19.32 60 20 C60.66 20.33 61.32 20.66 62 21 C61.17423462 21.77863403 61.17423462 21.77863403 60.33178711 22.57299805 C57.85148587 24.92874554 55.39454901 27.30752049 52.9375 29.6875 C52.07060547 30.50412109 51.20371094 31.32074219 50.31054688 32.16210938 C49.49521484 32.95810547 48.67988281 33.75410156 47.83984375 34.57421875 C47.08050537 35.30213623 46.32116699 36.03005371 45.53881836 36.7800293 C43.74904573 38.8989308 43.74904573 38.8989308 44.05102539 41.54760742 C45.11307438 44.29221306 46.21367494 45.65028464 48.34375 47.6640625 C49.01277344 48.31117188 49.68179688 48.95828125 50.37109375 49.625 C51.07363281 50.285 51.77617188 50.945 52.5 51.625 C53.88978836 52.94593646 55.27541059 54.27127405 56.65625 55.6015625 C57.27306641 56.18244629 57.88988281 56.76333008 58.52539062 57.36181641 C60 59 60 59 61 62 C57.23232652 68.58118625 52.96637232 73.70794214 46 77 C34.00421429 79.94781471 20.57146563 78.47882174 8.34863281 78.02996826 C3.6833157 77.87513222 -0.98323233 77.80772556 -5.65039062 77.73242188 C-14.77015638 77.57265153 -23.88445439 77.31747018 -33 77 C-31.17261035 73.00744664 -28.52425027 70.36438985 -25.375 67.375 C-23.52792799 65.62028159 -21.75602961 63.84999775 -20 62 C-20 61.34 -20 60.68 -20 60 C-19.42330566 59.75072754 -18.84661133 59.50145508 -18.25244141 59.24462891 C-15.67919372 57.82273245 -14.00316834 56.19800478 -11.9609375 54.0859375 C-11.21585938 53.32539063 -10.47078125 52.56484375 -9.703125 51.78125 C-8.93484375 50.9871875 -8.1665625 50.193125 -7.375 49.375 C-5.84578272 47.79497816 -4.31215367 46.21921026 -2.7734375 44.6484375 C-2.09716309 43.94895996 -1.42088867 43.24948242 -0.72412109 42.52880859 C1 41 1 41 3 41 C2.67 40.34 2.34 39.68 2 39 C1.39816895 38.86650146 0.79633789 38.73300293 0.17626953 38.59545898 C-2.6285883 37.8280091 -3.79781427 36.54506427 -5.8203125 34.47265625 C-6.52027344 33.76302734 -7.22023438 33.05339844 -7.94140625 32.32226562 C-8.66199219 31.57654297 -9.38257812 30.83082031 -10.125 30.0625 C-10.85332031 29.32064453 -11.58164062 28.57878906 -12.33203125 27.81445312 C-13.68067483 26.43963439 -15.02621967 25.06176432 -16.36767578 23.67993164 C-17.56876985 22.44380716 -18.78126486 21.21873514 -20 20 C-19.34 20 -18.68 20 -18 20 C-17.73445313 19.40832031 -17.46890625 18.81664062 -17.1953125 18.20703125 C-15.96662421 15.93837477 -14.71612243 14.48152395 -12.875 12.6875 C-12.26140625 12.089375 -11.6478125 11.49125 -11.015625 10.875 C-8.27889819 8.32920762 -5.45822381 5.89043206 -2.6015625 3.48046875 C-0.88889677 2.07215122 -0.88889677 2.07215122 0 0 Z " fill="#737373" transform="translate(46,134)"/>
<path d="M0 0 C2.34625825 1.34868052 4.44319189 2.68329116 6.625 4.25 C13.07978417 8.63334974 19.53376437 11.6338694 27 14 C27.73089844 14.24492187 28.46179688 14.48984375 29.21484375 14.7421875 C47.1445097 19.76662364 66.52559551 14.83820333 82.27148438 6.02099609 C85.3245525 4.21761602 88.21330474 2.21119796 91.0078125 0.03125 C93.84108559 -1.43538548 95.84794958 -1.33600538 99 -1 C118.09306616 7.24077627 131.31492088 28.64085842 138.85400391 47.08984375 C143.17480248 58.67125112 148.58131172 76.14096575 143.8125 87.9375 C140.85554571 91.30231005 137.95410223 91.92981264 133.5407486 92.25447559 C132.1888813 92.26671205 130.83688798 92.26805775 129.48498535 92.26069641 C128.36293379 92.26643473 128.36293379 92.26643473 127.21821451 92.27228898 C124.71636802 92.28259241 122.21475215 92.27863194 119.71289062 92.2746582 C117.91733081 92.2790061 116.12177285 92.28418951 114.32621765 92.29014587 C109.4523456 92.30353746 104.57855109 92.30411446 99.70466423 92.30158257 C95.63639593 92.30051316 91.56814334 92.30539536 87.49987841 92.310188 C77.90371559 92.32128332 68.30759191 92.32172017 58.71142578 92.31567383 C48.80877249 92.30963041 38.90626114 92.32195436 29.00363207 92.3432439 C20.50245269 92.36084904 12.00131854 92.36686305 3.50012159 92.36360615 C-1.57773225 92.36179172 -6.65548479 92.3644456 -11.73332214 92.37832069 C-16.50711128 92.39087703 -21.28067869 92.38897576 -26.05446434 92.37590981 C-27.80683148 92.37353984 -29.55921412 92.37629371 -31.31156349 92.38453293 C-33.70296272 92.39496656 -36.09361326 92.38692748 -38.48498535 92.3742218 C-39.17905408 92.38159609 -39.87312282 92.38897037 -40.58822393 92.39656812 C-44.89150653 92.34843806 -47.55182835 91.58397 -51 89 C-53.72042279 85.48276699 -53.16784177 81.53621615 -52.875 77.3125 C-52.82569336 76.56718018 -52.77638672 75.82186035 -52.72558594 75.05395508 C-50.58760559 48.3767736 -38.16201731 24.13463614 -18.15625 6.4921875 C-7.9034924 -1.92110476 -7.9034924 -1.92110476 0 0 Z M-14 13 C-15.53237551 14.55383147 -15.53237551 14.55383147 -17.125 16.5625 C-20.23051758 20.22675087 -23.53291385 23.36671346 -27.203125 26.45703125 C-28.8981002 27.91249908 -30.51629545 29.32854272 -32 31 C-32 31.66 -32 32.32 -32 33 C-32.66 33.33 -33.32 33.66 -34 34 C-33.55011719 34.37769531 -33.10023437 34.75539063 -32.63671875 35.14453125 C-29.34734641 37.95928473 -26.14737718 40.81310351 -23.125 43.9140625 C-22.63813721 44.41317139 -22.15127441 44.91228027 -21.6496582 45.42651367 C-20.68308112 46.42536917 -19.72312228 47.43067634 -18.77026367 48.44262695 C-17.56859767 49.68421109 -16.28855032 50.84883953 -15 52 C-14.01 52 -13.02 52 -12 52 C-11.67 52.66 -11.34 53.32 -11 54 C-11.57669434 54.24999756 -12.15338867 54.49999512 -12.74755859 54.75756836 C-15.31087205 56.17147494 -16.99597808 57.78512074 -19.0390625 59.87890625 C-19.78414062 60.63494141 -20.52921875 61.39097656 -21.296875 62.16992188 C-22.06515625 62.95947266 -22.8334375 63.74902344 -23.625 64.5625 C-25.15663169 66.12847891 -26.69038195 67.69238939 -28.2265625 69.25390625 C-28.90283691 69.94814697 -29.57911133 70.6423877 -30.27587891 71.35766602 C-32 73 -32 73 -34 74 C-34.92603519 75.01491164 -35.81736811 76.06177035 -36.6875 77.125 C-39.49097758 80.48225093 -42.50375001 83.51545185 -45.6796875 86.51953125 C-47.22186173 87.91815951 -47.22186173 87.91815951 -47 90 C-22.96541018 90.11674842 1.0691372 90.20494663 25.10395336 90.25906086 C36.2634904 90.28485375 47.42285136 90.32002514 58.58227539 90.37719727 C68.30767171 90.42699885 78.03294053 90.45928312 87.75846082 90.47044247 C92.90916908 90.4769667 98.05951253 90.49232319 103.21010399 90.52865028 C108.05693689 90.56255839 112.90325431 90.57306342 117.75019455 90.56553841 C119.52999865 90.56691527 121.30981978 90.5768787 123.08952141 90.59602737 C125.51878647 90.62088547 127.94610238 90.61493312 130.37541199 90.60127258 C131.08067321 90.61583679 131.78593444 90.630401 132.51256722 90.64540654 C136.32049751 90.58747588 137.91396661 90.06812026 140.93723011 87.67433453 C144.9740957 82.44062955 143.69789616 75.29617736 143 69 C141.27147298 57.64074716 138.65015566 41.11064101 129 34 C128.01 33.67 127.02 33.34 126 33 C125.30378232 31.68185617 124.64123463 30.345749 124 29 C122.84005822 27.65966822 121.62620348 26.36494024 120.375 25.109375 C119.66859375 24.40039062 118.9621875 23.69140625 118.234375 22.9609375 C117.49703125 22.23132813 116.7596875 21.50171875 116 20.75 C115.26265625 20.00492188 114.5253125 19.25984375 113.765625 18.4921875 C113.05921875 17.78835937 112.3528125 17.08453125 111.625 16.359375 C110.97789062 15.71452148 110.33078125 15.06966797 109.6640625 14.40527344 C108.10833644 12.78493391 108.10833644 12.78493391 106 13 C104.57002108 14.45326531 104.57002108 14.45326531 103.0625 16.375 C99.15213995 21.01441022 94.72575485 24.92888609 90.16015625 28.8984375 C89.44730469 29.59195313 88.73445312 30.28546875 88 31 C88 31.66 88 32.32 88 33 C87.34 33 86.68 33 86 33 C85.79375 32.45472656 85.5875 31.90945312 85.375 31.34765625 C83.47602493 28.1053721 80.79817589 25.88260417 78 23.4375 C72.24571429 18.36857143 72.24571429 18.36857143 70 15 C63.89511711 15.07144856 61.28286266 17.02545551 57.05273438 21.32226562 C56.39595703 22.02029297 55.73917969 22.71832031 55.0625 23.4375 C54.37865234 24.13166016 53.69480469 24.82582031 52.99023438 25.54101562 C49.36573354 28.74830082 49.36573354 28.74830082 48 33 C47.34 33 46.68 33 46 33 C45.74605469 32.4328125 45.49210937 31.865625 45.23046875 31.28125 C41.604844 24.55945682 35.98569647 19.03152866 29 16 C26.64246779 15.39387963 26.64246779 15.39387963 24 16 C21.54871458 17.68971362 19.4869657 19.72223258 17.375 21.8125 C16.51648438 22.63331055 16.51648438 22.63331055 15.640625 23.47070312 C14.08026696 24.96755822 12.53547373 26.4776698 11 28 C10.165896 28.77089966 10.165896 28.77089966 9.31494141 29.55737305 C7.77545221 30.92102144 7.77545221 30.92102144 8 33 C7.34 33 6.68 33 6 33 C5.74605469 32.41992188 5.49210937 31.83984375 5.23046875 31.2421875 C1.90811563 25.18812182 -4.35803762 20.54401488 -9.65234375 16.2265625 C-11 15 -11 15 -12 13 C-12.66 13 -13.32 13 -14 13 Z " fill="#747474" transform="translate(60,121)"/>
<path d="M0 0 C3.63288381 0.32342444 5.30635286 1.98253371 7.75 4.5625 C8.4409375 5.27664062 9.131875 5.99078125 9.84375 6.7265625 C11.28125 8.2421875 12.71875 9.7578125 14.15625 11.2734375 C14.8471875 11.98757812 15.538125 12.70171875 16.25 13.4375 C16.87390625 14.09621094 17.4978125 14.75492188 18.140625 15.43359375 C20.12483942 17.10516934 21.46428252 17.6016904 24 18 C24 18.66 24 19.32 24 20 C22.63671875 21.33984375 22.63671875 21.33984375 20.6875 22.9375 C15.13656431 27.6443757 10.10425917 32.81840357 5 38 C3.64583333 39.35416667 2.29166667 40.70833333 0.9375 42.0625 C0.50824219 42.49304688 0.07898438 42.92359375 -0.36328125 43.3671875 C-1.66823923 44.66903102 -2.97953707 45.96451861 -4.29296875 47.2578125 C-5.10378906 48.05960938 -5.91460937 48.86140625 -6.75 49.6875 C-7.91789062 50.83798828 -7.91789062 50.83798828 -9.109375 52.01171875 C-11.05230615 53.8610699 -11.05230615 53.8610699 -12 56 C12.05201369 55.96286011 36.10387796 55.9030389 60.15576553 55.81609726 C71.32308448 55.77626097 82.49033248 55.74389182 93.65771484 55.72900391 C103.3894075 55.71601116 113.12094438 55.68910746 122.85254931 55.64538693 C128.00702364 55.62271856 133.16130544 55.60709253 138.31583405 55.60811615 C143.16516903 55.60885959 148.01407754 55.59103634 152.86330223 55.55883217 C154.64509068 55.55029747 156.42692676 55.54860732 158.20872688 55.55419731 C160.63820931 55.56080533 163.06632208 55.54299528 165.4956665 55.51898193 C166.20384057 55.52674235 166.91201464 55.53450277 167.64164853 55.54249835 C170.97561335 55.48399696 172.73735764 55.19695617 175.43581772 53.17337418 C179.21846388 47.91752542 177.60161845 38.9394112 176.65429688 32.73632812 C175.23056636 25.10115934 173.38088357 17.62370112 169.63671875 10.76171875 C168.8220164 8.50754232 169.23729556 7.22906523 170 5 C175.34790837 16.57252303 179.40457753 29.17360764 180 42 C180.0515625 42.77988281 180.103125 43.55976563 180.15625 44.36328125 C180.34018643 49.04599612 180.23711835 52.31638257 177 56 C172.878668 58.13914058 169.03156165 58.2854533 164.48498535 58.26069641 C163.36293379 58.26643473 163.36293379 58.26643473 162.21821451 58.27228898 C159.71636802 58.28259241 157.21475215 58.27863194 154.71289062 58.2746582 C152.91733081 58.2790061 151.12177285 58.28418951 149.32621765 58.29014587 C144.4523456 58.30353746 139.57855109 58.30411446 134.70466423 58.30158257 C130.63639593 58.30051316 126.56814334 58.30539536 122.49987841 58.310188 C112.90371559 58.32128332 103.30759191 58.32172017 93.71142578 58.31567383 C83.80877249 58.30963041 73.90626114 58.32195436 64.00363207 58.3432439 C55.50245269 58.36084904 47.00131854 58.36686305 38.50012159 58.36360615 C33.42226775 58.36179172 28.34451521 58.3644456 23.26667786 58.37832069 C18.49288872 58.39087703 13.71932131 58.38897576 8.94553566 58.37590981 C7.19316852 58.37353984 5.44078588 58.37629371 3.68843651 58.38453293 C1.29703728 58.39496656 -1.09361326 58.38692748 -3.48498535 58.3742218 C-4.17905408 58.38159609 -4.87312282 58.38897037 -5.58822393 58.39656812 C-9.89150653 58.34843806 -12.55182835 57.58397 -16 55 C-18.72055845 51.48259159 -18.16743966 47.53636254 -17.875 43.3125 C-17.82641846 42.56863037 -17.77783691 41.82476074 -17.7277832 41.05834961 C-16.84277838 29.92973548 -14.70995404 16.70483031 -9 7 C-6.5 5.125 -6.5 5.125 -4 4 C-3.319375 3.2575 -2.63875 2.515 -1.9375 1.75 C-1.298125 1.1725 -0.65875 0.595 0 0 Z " fill="#757575" transform="translate(25,155)"/>
<path d="M0 0 C4.06724521 2.41685847 8.21830319 5.03075616 11.41015625 8.55859375 C13.72556464 10.65782151 16.29720791 11.53759885 19.1875 12.6875 C20.27417969 13.12449219 21.36085938 13.56148437 22.48046875 14.01171875 C23.31191406 14.33785156 24.14335938 14.66398438 25 15 C22.56385297 18.17404457 20.14593105 20.89137971 17.0625 23.4375 C14.48455757 25.62659078 12.22946529 27.78974545 10.125 30.4375 C9.073125 31.7059375 9.073125 31.7059375 8 33 C7.34 33 6.68 33 6 33 C4.66015625 31.6015625 4.66015625 31.6015625 3.0625 29.625 C-0.84786005 24.98558978 -5.27424515 21.07111391 -9.83984375 17.1015625 C-10.90912109 16.06128906 -10.90912109 16.06128906 -12 15 C-12 14.34 -12 13.68 -12 13 C-12.66 13 -13.32 13 -14 13 C-14.26192139 13.59240479 -14.52384277 14.18480957 -14.79370117 14.79516602 C-16.06573268 17.12014406 -17.34893173 18.49988628 -19.30078125 20.27734375 C-19.94853516 20.87353516 -20.59628906 21.46972656 -21.26367188 22.08398438 C-21.93978516 22.69564453 -22.61589844 23.30730469 -23.3125 23.9375 C-24.64267076 25.15413534 -25.97211221 26.37156858 -27.30078125 27.58984375 C-27.93540283 28.17080811 -28.57002441 28.75177246 -29.22387695 29.3503418 C-32.49773295 32.39109024 -35.60156054 35.58302847 -38.6875 38.8125 C-41 41 -41 41 -43 41 C-41.64274217 36.3445353 -39.68733553 32.42226436 -37.0625 28.375 C-36.6698999 27.76962402 -36.2772998 27.16424805 -35.87280273 26.54052734 C-29.02644218 16.28773069 -13.91418695 -5.01435794 0 0 Z " fill="#747474" transform="translate(60,121)"/>
<path d="M0 0 C3.24014874 3.66572052 4.5557679 7.74572848 6.0625 12.3125 C6.32562988 13.107771 6.58875977 13.90304199 6.85986328 14.72241211 C9.19754185 22.09322578 10.42125968 29.27427604 11 37 C11.07089844 37.90878906 11.14179688 38.81757813 11.21484375 39.75390625 C11.40342518 44.33266326 11.07250956 47.50369602 8 51 C3.878668 53.13914058 0.03156165 53.2854533 -4.51501465 53.26069641 C-5.63706621 53.26643473 -5.63706621 53.26643473 -6.78178549 53.27228898 C-9.28363198 53.28259241 -11.78524785 53.27863194 -14.28710938 53.2746582 C-16.08266919 53.2790061 -17.87822715 53.28418951 -19.67378235 53.29014587 C-24.5476544 53.30353746 -29.42144891 53.30411446 -34.29533577 53.30158257 C-38.36360407 53.30051316 -42.43185666 53.30539536 -46.50012159 53.310188 C-56.09628441 53.32128332 -65.69240809 53.32172017 -75.28857422 53.31567383 C-85.19122751 53.30963041 -95.09373886 53.32195436 -104.99636793 53.3432439 C-113.49754731 53.36084904 -121.99868146 53.36686305 -130.49987841 53.36360615 C-135.57773225 53.36179172 -140.65548479 53.3644456 -145.73332214 53.37832069 C-150.50711128 53.39087703 -155.28067869 53.38897576 -160.05446434 53.37590981 C-161.80683148 53.37353984 -163.55921412 53.37629371 -165.31156349 53.38453293 C-167.70296272 53.39496656 -170.09361326 53.38692748 -172.48498535 53.3742218 C-173.17905408 53.38159609 -173.87312282 53.38897037 -174.58822393 53.39656812 C-178.89150653 53.34843806 -181.55182835 52.58397 -185 50 C-187.72080047 46.48227869 -187.16673316 42.53664288 -186.875 38.3125 C-186.82786865 37.57370605 -186.7807373 36.83491211 -186.73217773 36.07373047 C-186.04551646 27.32180274 -184.93257981 16.39886972 -180 9 C-180.60403749 14.28972636 -181.46327802 19.4103334 -182.5625 24.625 C-185.36750165 37.00467515 -185.36750165 37.00467515 -182.93492031 48.65033054 C-180.01539219 50.68679577 -177.07627888 50.41681098 -173.64283752 50.38768005 C-172.88763933 50.39306559 -172.13244113 50.39845113 -171.35435814 50.40399987 C-168.81623394 50.41834163 -166.27862673 50.4111606 -163.74047852 50.40405273 C-161.92388488 50.40975307 -160.10729482 50.41671602 -158.29071045 50.42485046 C-153.35064303 50.44283441 -148.41075272 50.44160365 -143.47066236 50.43590808 C-139.35020153 50.43282371 -135.22977509 50.43890029 -131.10931915 50.44494683 C-121.39047745 50.4590077 -111.67172361 50.45741784 -101.95288086 50.44604492 C-91.91841934 50.43456232 -81.88422504 50.44863824 -71.84979874 50.4754414 C-63.24165986 50.49757591 -54.633605 50.50424085 -46.02543968 50.49836498 C-40.88105145 50.49498879 -35.73683454 50.49745431 -30.59247017 50.51461601 C-25.75544843 50.53004725 -20.91882347 50.52617223 -16.08181763 50.50731087 C-14.30484533 50.50361434 -12.52784388 50.5067643 -10.75089836 50.51719666 C-8.32818593 50.53033612 -5.9068007 50.51892303 -3.48414612 50.50120544 C-2.77801841 50.51081045 -2.0718907 50.52041546 -1.34436518 50.53031152 C1.98700892 50.48005334 3.7380772 50.19639883 6.43455601 48.17448521 C10.21854486 42.91832286 8.60175802 33.94032514 7.65429688 27.73632812 C6.23432602 20.12132161 4.36797998 12.65159282 0.734375 5.76171875 C0 4 0 4 0 0 Z " fill="#F4F4F4" transform="translate(194,160)"/>
<path d="M0 0 C0.99 0.495 0.99 0.495 2 1 C-4.45343846 5.53611254 -11.25166262 10.19238022 -18.84545898 12.58032227 C-24.53289096 14.41319009 -27.88822172 17.23724271 -31.9375 21.5625 C-32.51306641 22.15224609 -33.08863281 22.74199219 -33.68164062 23.34960938 C-36.69957747 26.40792052 -36.69957747 26.40792052 -39 30 C-39.66 30 -40.32 30 -41 30 C-42.49381291 28.29781633 -43.92097016 26.53677109 -45.3125 24.75 C-50.34193174 18.2945664 -54.49641426 14.80878271 -62.375 12.5 C-67.66884646 10.85358228 -72.35653024 9.05789472 -77 6 C-76.34 5.67 -75.68 5.34 -75 5 C-72.59529109 5.87092671 -70.28221086 6.80144657 -67.9375 7.8125 C-51.92064706 14.39037912 -33.25065349 15.9111672 -16.84228516 9.10498047 C-11.01869023 6.45278904 -5.32869274 3.55246183 0 0 Z " fill="#9F9F9F" transform="translate(147,124)"/>
<path d="M0 0 C9.43004477 7.76591923 12.76229249 20.29585328 14 32 C14.25649893 48.10813268 9.41071415 64.20458175 -1.87890625 76.09765625 C-14.94358957 87.81496892 -29.63814865 93.44429126 -47.328125 93.28125 C-61.7924559 92.1733438 -74.54691381 87.13190198 -85 77 C-81.48983594 77 -81.12923065 77.49611921 -78.5625 79.6875 C-65.82136498 89.63122714 -49.63331735 91.70045605 -34 90 C-24.83355398 88.07791261 -16.33184902 83.77707023 -9 78 C-8.39027344 77.56300781 -7.78054687 77.12601562 -7.15234375 76.67578125 C2.54051499 69.24103905 8.38860183 56.40716145 10.6796875 44.59765625 C12.49462863 29.87892634 9.71835883 17.95233887 2.26953125 5.2421875 C1 3 1 3 0 0 Z " fill="#FEF1F3" transform="translate(152,34)"/>
<path d="M0 0 C3.49320112 2.13161762 6.76006871 4.50323202 10 7 C9.34 7.33 8.68 7.66 8 8 C7.43152344 7.566875 6.86304688 7.13375 6.27734375 6.6875 C2.70901837 4.11401659 -0.18120214 2.19007807 -4.5 1.1875 C-9.69219175 2.39283023 -13.07231148 5.50872132 -17 9 C-16.01 9.66 -15.02 10.32 -14 11 C-14.50830474 15.04215031 -15.40467129 16.87596345 -18.421875 19.59375 C-19.11796875 20.23183594 -19.8140625 20.86992187 -20.53125 21.52734375 C-21.2634375 22.17832031 -21.995625 22.82929688 -22.75 23.5 C-24.18287458 24.80144184 -25.61517891 26.10351183 -27.046875 27.40625 C-27.72903076 28.02218018 -28.41118652 28.63811035 -29.11401367 29.27270508 C-32.44334874 32.32190192 -35.56977528 35.54976482 -38.6875 38.8125 C-41 41 -41 41 -43 41 C-41.64274217 36.3445353 -39.68733553 32.42226436 -37.0625 28.375 C-36.6698999 27.76962402 -36.2772998 27.16424805 -35.87280273 26.54052734 C-29.04361859 16.3134533 -13.88762007 -5.05478104 0 0 Z M-24.625 14.5 C-25.40875 15.325 -26.1925 16.15 -27 17 C-26.67 17.66 -26.34 18.32 -26 19 C-24.02 16.69 -22.04 14.38 -20 12 C-22.36278736 11.77011494 -22.36278736 11.77011494 -24.625 14.5 Z " fill="#787878" transform="translate(60,121)"/>
<path d="M0 0 C14.908007 6.43445895 28.8957563 23.24807773 35 38 C34.505 38.99 34.505 38.99 34 40 C33.67 39.01 33.34 38.02 33 37 C32.4225 36.71125 31.845 36.4225 31.25 36.125 C28.2661637 34.63308185 26.30063303 32.361176 24 30 C22.80360428 28.80056431 21.6055794 27.60275227 20.40625 26.40625 C17.80208333 23.80208333 15.19791667 21.19791667 12.59375 18.59375 C11.97781982 17.97798096 11.36188965 17.36221191 10.72729492 16.7277832 C9.21936942 15.21943143 7.7130621 13.70946227 6.20703125 12.19921875 C4.55291616 10.55095894 2.87578112 8.92574641 1.1875 7.3125 C-1 5 -1 5 -1 3 C-1.928125 3 -2.85625 3 -3.8125 3 C-5.875 3 -7.9375 3 -10 3 C-6.64565553 -0.09631797 -4.49848863 -0.37672072 0 0 Z " fill="#7C7C7C" transform="translate(159,120)"/>
<path d="M0 0 C-0.70125 0.680625 -1.4025 1.36125 -2.125 2.0625 C-4.84618539 4.76042739 -7.26095775 7.66593452 -9.66796875 10.64453125 C-10.10753906 11.09183594 -10.54710937 11.53914062 -11 12 C-11.66 12 -12.32 12 -13 12 C-13.33 11.34 -13.66 10.68 -14 10 C-14.99 9.34 -15.98 8.68 -17 8 C-6.81093394 -1.18451025 -6.81093394 -1.18451025 0 0 Z M-21 11 C-20.34 11.33 -19.68 11.66 -19 12 C-22.465 14.97 -22.465 14.97 -26 18 C-24.38262276 14.76524552 -23.52370777 13.29427979 -21 11 Z " fill="#7B7B7B" transform="translate(59,122)"/>
<path d="M0 0 C3.48402466 2.14558704 6.76024962 4.50337144 10 7 C9.34 7.33 8.68 7.66 8 8 C7.43152344 7.566875 6.86304688 7.13375 6.27734375 6.6875 C2.75017806 4.14370104 -0.19550849 2.20477966 -4.4375 1.125 C-10.09927775 2.51561208 -13.71304944 6.18562666 -18 10 C-18.70511719 10.57363281 -19.41023438 11.14726562 -20.13671875 11.73828125 C-25.56075851 16.20325701 -29.77189033 21.41124865 -34 27 C-34 21.15549535 -28.4766549 16.53109608 -24.55615234 12.52441406 C-8.88287297 -2.86058621 -8.88287297 -2.86058621 0 0 Z " fill="#F2F2F2" transform="translate(60,121)"/>
<path d="M0 0 C10.419443 0.9752188 19.61444654 11.72266053 26.171875 19.296875 C28.67135118 22.5352166 30.99582613 25.83358596 33.171875 29.296875 C32.841875 29.956875 32.511875 30.616875 32.171875 31.296875 C31.69878906 30.69101563 31.22570312 30.08515625 30.73828125 29.4609375 C18.42453787 12.6676612 18.42453787 12.6676612 1.01953125 2.5234375 C-2.18635646 2.26837373 -3.97908658 2.87235579 -6.828125 4.296875 C-4.6159158 1.57415599 -3.56053145 0.37375744 0 0 Z " fill="#F7F7F7" transform="translate(155.828125,119.703125)"/>
<path d="M0 0 C0.556875 0.268125 1.11375 0.53625 1.6875 0.8125 C1.6875 2.8125 1.6875 2.8125 0.04296875 4.50390625 C-0.67246094 5.12136719 -1.38789063 5.73882812 -2.125 6.375 C-3.18654297 7.30505859 -3.18654297 7.30505859 -4.26953125 8.25390625 C-6.3125 9.8125 -6.3125 9.8125 -9.3125 10.8125 C-8.0966464 6.05961775 -5.84586916 -0.47398939 0 0 Z " fill="#969696" transform="translate(26.3125,151.1875)"/>
<path d="M0 0 C-2.25886817 2.56919192 -4.20020805 3.68000131 -7.4375 4.75 C-8.19933594 5.01296875 -8.96117188 5.2759375 -9.74609375 5.546875 C-12.20513089 6.04123949 -13.64672554 5.79335904 -16 5 C-13.00995759 3.46325727 -9.98176115 2.09693707 -6.875 0.8125 C-5.57175781 0.26529297 -5.57175781 0.26529297 -4.2421875 -0.29296875 C-2 -1 -2 -1 0 0 Z " fill="#FEE8EB" transform="translate(136,119)"/>
<path d="M0 0 C4.42857143 5.14285714 4.42857143 5.14285714 5 9 C4.34 8.67 3.68 8.34 3 8 C3 7.34 3 6.68 3 6 C1.68 5.34 0.36 4.68 -1 4 C-0.67 2.68 -0.34 1.36 0 0 Z " fill="#C4C4C4" transform="translate(189,151)"/>
</svg>
