<?xml version="1.0" encoding="UTF-8"?>
<svg version="1.1" xmlns="http://www.w3.org/2000/svg" width="230" height="225">
<path d="M0 0 C0.68945351 -0.00226556 1.37890702 -0.00453111 2.08925307 -0.00686532 C4.39290341 -0.01318098 6.69649456 -0.01237753 9.00015259 -0.0115509 C10.6545367 -0.0145439 12.30892011 -0.01794676 13.96330261 -0.02172852 C18.45300651 -0.03055812 22.94269135 -0.03290619 27.43240309 -0.0335443 C30.23844189 -0.03425536 33.04447586 -0.03639075 35.85051346 -0.03904152 C45.64274656 -0.04829131 55.43496605 -0.05237684 65.22720337 -0.05158997 C74.35043909 -0.05098918 83.47361569 -0.06154213 92.59683645 -0.07733363 C100.4339273 -0.09041486 108.27099885 -0.09577362 116.10810053 -0.09513456 C120.78693574 -0.09487975 125.46571838 -0.09772133 130.14454269 -0.10831261 C134.54566379 -0.11800343 138.94668218 -0.118066 143.34780693 -0.11079597 C144.96065483 -0.10975138 146.57350916 -0.1121056 148.18634605 -0.11815643 C150.39298685 -0.12589713 152.59927477 -0.12121805 154.8059082 -0.11352539 C156.03922567 -0.11407016 157.27254314 -0.11461493 158.54323387 -0.1151762 C165.63259183 0.39087853 170.11029767 2.21407269 175.02993774 7.13371277 C177.88412028 12.43433749 178.15420218 18.36856893 178.16365051 24.29270935 C178.17004799 26.11348244 178.17004799 26.11348244 178.17657471 27.97103882 C178.17612152 29.2896138 178.17566833 30.60818878 178.17520142 31.96672058 C178.1781961 33.37993457 178.18159934 34.79314775 178.18537903 36.20635986 C178.1941929 40.03507069 178.19655607 43.86375914 178.19719481 47.69247913 C178.19790693 50.08831577 178.20004435 52.48414676 178.20269203 54.87998199 C178.21193763 63.24923054 178.216028 71.61846319 178.21524048 79.98771667 C178.21464027 87.77091804 178.22518288 95.55404997 178.24098414 103.33723378 C178.25409165 110.03384959 178.25942301 116.7304428 178.25878507 123.42707133 C178.25853097 127.42020406 178.2613329 131.41327508 178.27196312 135.40639496 C178.28169799 139.16569748 178.28168665 142.92487999 178.27444649 146.68418694 C178.27291487 148.70755474 178.28121008 150.73092268 178.28988647 152.75427246 C178.22557206 171.53925383 178.22557206 171.53925383 173.02993774 178.13371277 C169.55189112 181.47737536 166.82624678 181.51680703 162.09315491 181.53916931 C161.39512743 181.5465217 160.69709994 181.5538741 159.97792011 181.56144929 C157.63892374 181.58244211 155.30041769 181.58215498 152.96133423 181.58195496 C151.28402369 181.59260893 149.60672094 181.60455809 147.9294281 181.6177063 C143.37121417 181.64961306 138.81311349 181.66296059 134.25480533 181.67275524 C129.47928048 181.68586225 124.70385227 181.71500651 119.9283905 181.74217224 C111.90098013 181.78550552 103.87358843 181.8176001 95.84609985 181.84220886 C86.58373841 181.8706595 77.32152631 181.91287389 68.05926079 181.96344829 C58.18389114 182.0173685 48.30849792 182.06314802 38.43307233 182.10548496 C35.5968451 182.11805093 32.7606263 182.13189665 29.92440605 182.14594269 C25.45027785 182.16755527 20.97616157 182.18353416 16.50199699 182.19529915 C14.8666367 182.20037316 13.23128064 182.20717928 11.59593582 182.21591759 C-11.74838076 182.33712358 -11.74838076 182.33712358 -16.97006226 179.50871277 C-24.20168523 170.92116048 -23.11897996 159.80302956 -23.11532593 149.2631073 C-23.11832153 147.85797538 -23.12172499 146.45284427 -23.12550354 145.04771423 C-23.13430619 141.24598838 -23.13668006 137.44428506 -23.13731933 133.64254999 C-23.13803187 131.26363423 -23.14017005 128.88472413 -23.14281654 126.50580978 C-23.15205712 118.19606413 -23.15615298 109.88633448 -23.15536499 101.57658386 C-23.15476432 93.84730511 -23.16531731 86.11809617 -23.18110865 78.38883507 C-23.19420933 71.7380742 -23.19954784 65.08733608 -23.19890958 58.43656242 C-23.19865537 54.47086304 -23.20146423 50.50522579 -23.21208763 46.53953934 C-23.22181144 42.80813274 -23.22181863 39.07684711 -23.214571 35.3454361 C-23.21303704 33.3350058 -23.2213416 31.3245754 -23.23001099 29.31416321 C-23.1982877 20.13337674 -23.12055776 11.51430737 -16.97006226 4.13371277 C-11.64140473 0.17137769 -6.48023499 0.0088108 0 0 Z M-14.97006226 14.13371277 C-17.92904106 23.01064918 -16.59607682 32.78407692 -16.97006226 42.13371277 C13.38993774 42.13371277 43.74993774 42.13371277 75.02993774 42.13371277 C75.02993774 30.25371277 75.02993774 18.37371277 75.02993774 6.13371277 C60.95770414 6.01733289 60.95770414 6.01733289 46.88540649 5.93840027 C41.14420755 5.91450603 35.40326424 5.88626537 29.66226196 5.83195496 C25.03273343 5.78843419 20.4034791 5.76456238 15.77376175 5.7542038 C14.00912791 5.7468236 12.24450875 5.73241166 10.47999191 5.71079254 C8.00461365 5.68167515 5.53036256 5.67776016 3.05484009 5.67961121 C2.32835266 5.6652301 1.60186523 5.650849 0.85336304 5.6360321 C-6.08132015 5.69199416 -10.5351918 9.04182447 -14.97006226 14.13371277 Z M80.02993774 6.13371277 C80.02993774 18.01371277 80.02993774 29.89371277 80.02993774 42.13371277 C110.38993774 42.13371277 140.74993774 42.13371277 172.02993774 42.13371277 C173.20782317 26.07807362 173.20782317 26.07807362 167.71743774 11.25871277 C162.43373859 7.08090413 158.87128246 5.69337572 152.11856079 5.7931366 C151.33754501 5.79269852 150.55652924 5.79226044 149.75184631 5.79180908 C147.18152489 5.79389185 144.61186336 5.81719823 142.04165649 5.84074402 C140.25518653 5.84634181 138.46871194 5.85061104 136.68223572 5.85360718 C131.98857833 5.86504158 127.29520105 5.89449665 122.60165405 5.92771912 C116.96571389 5.96385688 111.32967988 5.97758785 105.69365692 5.99507904 C97.13888927 6.02413486 88.58473578 6.0816317 80.02993774 6.13371277 Z M-15.97006226 47.13371277 C-16.802009 50.04245595 -17.09899644 52.63270477 -17.11050415 55.65426636 C-17.11621429 56.55548721 -17.12192444 57.45670807 -17.12780762 58.38523865 C-17.12892548 59.3665979 -17.13004333 60.34795715 -17.13119507 61.35905457 C-17.13615997 62.39856766 -17.14112488 63.43808075 -17.14624023 64.50909424 C-17.16085244 67.95038006 -17.16766294 71.39161976 -17.17318726 74.83293152 C-17.17894024 77.22704062 -17.18469796 79.62114971 -17.19046021 82.01525879 C-17.20096804 87.03806269 -17.20681189 92.0608506 -17.21029663 97.08366394 C-17.21577558 103.50834391 -17.23979196 109.93281133 -17.26826859 116.35742474 C-17.28692788 121.30492767 -17.29210237 126.25237979 -17.29363251 131.19991493 C-17.29665299 133.56770296 -17.30466102 135.93549023 -17.31781769 138.30324364 C-17.33494378 141.62279102 -17.33298149 144.94182422 -17.32650757 148.26139832 C-17.33572235 149.23263641 -17.34493713 150.20387451 -17.35443115 151.20454407 C-17.31312233 157.99386878 -16.63651576 164.8555784 -12.21615601 170.28996277 C-11.3209021 170.95511902 -11.3209021 170.95511902 -10.40756226 171.63371277 C-9.80814819 172.09777527 -9.20873413 172.56183777 -8.59115601 173.03996277 C-5.18654023 175.33705293 -2.80650579 175.27363217 1.29083252 175.3053894 C2.26498157 175.31491307 2.26498157 175.31491307 3.2588104 175.32462913 C5.44503953 175.34474322 7.63125336 175.35774931 9.8175354 175.37077332 C11.3811882 175.38362229 12.94483771 175.39687657 14.50848389 175.4105072 C18.76493828 175.44617624 23.0214138 175.47538166 27.27792788 175.50289893 C29.93772922 175.52039028 32.59751694 175.53926857 35.25730515 175.55864906 C44.53842101 175.62625085 53.81955543 175.68864682 63.10073853 175.7462616 C71.74736914 175.80007291 80.39386457 175.86517462 89.0403744 175.93559998 C96.46463929 175.99556952 103.88893262 176.04760741 111.31329763 176.09352714 C115.74687876 176.12108315 120.18038126 176.15182036 124.61388016 176.19054222 C128.7883768 176.22672775 132.96282213 176.25301034 137.1374321 176.27182007 C138.66602715 176.28036439 140.19460753 176.29238009 141.72314453 176.30820656 C156.69515593 176.63302744 156.69515593 176.63302744 169.02993774 169.13371277 C171.83698383 164.92314364 172.15465332 161.22657897 172.15692139 156.24925232 C172.15974121 155.29302475 172.16256104 154.33679718 172.16546631 153.35159302 C172.16344208 152.31450699 172.16141785 151.27742096 172.15933228 150.20890808 C172.16108459 149.10763077 172.16283691 148.00635345 172.16464233 146.8717041 C172.1690405 143.23506592 172.1661308 139.59847643 172.16275024 135.96183777 C172.16342367 133.43789155 172.16439403 130.91394539 172.16564941 128.38999939 C172.16712347 123.10420554 172.1650758 117.81842917 172.16030884 112.53263855 C172.15485584 106.41534981 172.15663824 100.29809435 172.16213524 94.1808064 C172.16721098 88.29735616 172.16668572 82.41391629 172.16375351 76.53046417 C172.16308427 74.02489467 172.16391256 71.51932432 172.16623306 69.0137558 C172.16875744 65.52279366 172.16492256 62.03189659 172.15933228 58.54093933 C172.16236862 56.9731649 172.16236862 56.9731649 172.16546631 55.37371826 C172.16264648 54.42876999 172.15982666 53.48382172 172.15692139 52.51023865 C172.15654436 51.68435368 172.15616734 50.8584687 172.15577888 50.00755692 C172.23547641 48.1198723 172.23547641 48.1198723 171.02993774 47.13371277 C168.61404801 47.03603892 166.22678391 47.00374598 163.81044006 47.01345825 C163.04596135 47.01260383 162.28148263 47.0117494 161.49383789 47.01086909 C158.91266757 47.00921198 156.33156114 47.0147394 153.75039673 47.02018738 C151.90790814 47.02046923 150.06541943 47.02031156 148.22293091 47.01974487 C143.20454538 47.0194568 138.18618353 47.02535502 133.16780353 47.03231883 C127.92939037 47.03855084 122.69097672 47.03915605 117.45256042 47.04034424 C107.52549283 47.04345801 97.59843619 47.05167201 87.67137343 47.06169373 C76.37289679 47.07285345 65.07441964 47.07836496 53.77593887 47.08338916 C30.52726574 47.09385458 7.27860236 47.1114549 -15.97006226 47.13371277 Z " fill="#FA4C60" transform="translate(38.970062255859375,27.866287231445313)"/>
<path d="M0 0 C1.77927635 -0.01268921 1.77927635 -0.01268921 3.59449768 -0.02563477 C5.54893044 -0.01652573 5.54893044 -0.01652573 7.54284668 -0.00723267 C8.92757074 -0.01129733 10.31229157 -0.01663861 11.69700623 -0.02316284 C15.4593874 -0.03685499 19.22152215 -0.03153009 22.9839077 -0.02202559 C26.91831509 -0.01443876 30.85270117 -0.02147187 34.78710938 -0.02618408 C41.39469192 -0.0316445 48.00217392 -0.02444257 54.60974121 -0.01016235 C62.25276703 0.00616476 69.89555279 0.00087645 77.53857279 -0.01564157 C84.09660859 -0.02924834 90.65457205 -0.03118008 97.2126174 -0.02332556 C101.13125132 -0.01864457 105.04977234 -0.01803583 108.96839905 -0.02793503 C112.65220459 -0.03659071 116.33570013 -0.03060874 120.01947212 -0.01325226 C122.01915687 -0.00738247 124.01886779 -0.01631488 126.01853943 -0.02563477 C127.20472366 -0.01717529 128.3909079 -0.00871582 129.61303711 0 C131.16271809 0.00169662 131.16271809 0.00169662 132.74370575 0.00342751 C135.30651855 0.38095093 135.30651855 0.38095093 137.13813114 1.76246452 C138.76159203 4.01133279 138.69382723 5.59648852 138.71057129 8.3555603 C138.72959755 9.87228333 138.72959755 9.87228333 138.74900818 11.41964722 C138.74607254 12.51031494 138.7431369 13.60098267 138.7401123 14.72470093 C138.74535416 15.84533936 138.75059601 16.96597778 138.7559967 18.12057495 C138.76242319 20.49104991 138.76107186 22.86155674 138.75256348 25.23202515 C138.74405151 28.86687745 138.77281168 32.50016016 138.80456543 36.13485718 C138.80617738 38.43563796 138.80560003 40.73642153 138.8026123 43.03720093 C138.81384628 44.12786865 138.82508026 45.21853638 138.83665466 46.34225464 C138.82727371 47.35340332 138.81789276 48.364552 138.80822754 49.40634155 C138.80806137 50.29664063 138.8078952 51.1869397 138.807724 52.10421753 C138.30651855 54.38095093 138.30651855 54.38095093 136.63338566 55.99943733 C133.74125562 57.71656031 131.92880608 57.75816923 128.57543945 57.76190186 C127.40615402 57.77036133 126.23686859 57.7788208 125.03215027 57.78753662 C123.11351921 57.77842758 123.11351921 57.77842758 121.15612793 57.76913452 C119.792583 57.77320056 118.42904137 57.77854263 117.06550598 57.7850647 C113.36509687 57.79874041 109.66493871 57.79343872 105.96452522 57.78392744 C102.09198454 57.77633212 98.21946535 57.7833761 94.34692383 57.78808594 C87.84367007 57.79354387 81.34051852 57.78635093 74.83728027 57.77206421 C67.31865228 57.75573757 59.80026833 57.76102605 52.28164625 57.77754343 C45.82633357 57.79115725 39.37109436 57.79307848 32.91577196 57.78522742 C29.06027762 57.78055031 25.20489799 57.77992702 21.34941101 57.78983688 C17.72468326 57.79850283 14.10027016 57.79249177 10.4755764 57.77515411 C8.51068428 57.76929488 6.54576555 57.77820801 4.58088684 57.78753662 C2.82695869 57.77484741 2.82695869 57.77484741 1.03759766 57.76190186 C0.0214463 57.76077078 -0.99470505 57.7596397 -2.04164886 57.75847435 C-5.10497998 57.32236867 -6.48455118 56.51773493 -8.69348145 54.38095093 C-9.19468689 52.10421753 -9.19468689 52.10421753 -9.19519043 49.40634155 C-9.20457138 48.39519287 -9.21395233 47.38404419 -9.22361755 46.34225464 C-9.21238358 45.25158691 -9.2011496 44.16091919 -9.1895752 43.03720093 C-9.19103043 41.9165625 -9.19248566 40.79592407 -9.19398499 39.6413269 C-9.19232418 37.27081707 -9.18074285 34.90029666 -9.16003418 32.52987671 C-9.13109438 28.89513489 -9.13941931 25.26185195 -9.15246582 21.62704468 C-9.14622826 19.32625632 -9.13783719 17.02547257 -9.1270752 14.72470093 C-9.13001083 13.6340332 -9.13294647 12.54336548 -9.13597107 11.41964722 C-9.1232869 10.40849854 -9.11060272 9.39734985 -9.09753418 8.3555603 C-9.0921312 7.46526123 -9.08672821 6.57496216 -9.0811615 5.65768433 C-8.18159773 0.37480515 -4.80940977 0.00526542 0 0 Z M-0.69348145 7.38095093 C-0.69348145 20.91095093 -0.69348145 34.44095093 -0.69348145 48.38095093 C9.69418711 48.38095093 11.612569 48.058469 18.49401855 41.69345093 C22.33448887 38.21814009 26.27452444 34.94393608 30.3494873 31.74813843 C32.72073187 29.84988981 35.0433811 27.91779994 37.3572998 25.95126343 C38.4264563 25.05347168 38.4264563 25.05347168 39.51721191 24.13754272 C40.9443981 22.93799797 42.36343836 21.7286846 43.77355957 20.50912476 C44.43154541 19.96022583 45.08953125 19.4113269 45.76745605 18.84579468 C46.64603271 18.09737305 46.64603271 18.09737305 47.5423584 17.33383179 C49.30651855 16.38095093 49.30651855 16.38095093 51.4185791 16.65194702 C56.09255826 18.45674487 59.61276194 22.54488527 62.74401855 26.31845093 C65.92197537 30.11649688 69.52076066 33.20579914 73.30651855 36.38095093 C77.25255385 35.0564556 79.53344601 33.47069239 82.36901855 30.44345093 C87.53944163 24.965874 87.53944163 24.965874 90.30651855 23.38095093 C95.14631046 23.60863903 97.57872605 26.13727847 100.7557373 29.47470093 C101.50377373 30.23478455 101.50377373 30.23478455 102.266922 31.01022339 C103.85237578 32.62458947 105.42355072 34.25201463 106.99401855 35.88095093 C108.5777376 37.50718754 110.16427302 39.13057955 111.75325012 40.75167847 C112.73963925 41.7597554 113.72250473 42.77129472 114.70146179 43.78659058 C117.24042529 46.42673286 117.24042529 46.42673286 120.30651855 48.38095093 C123.60651855 48.38095093 126.90651855 48.38095093 130.30651855 48.38095093 C130.30651855 34.85095093 130.30651855 21.32095093 130.30651855 7.38095093 C87.07651855 7.38095093 43.84651855 7.38095093 -0.69348145 7.38095093 Z M44.43151855 26.69345093 C41.85076747 29.14398062 39.55385492 31.23467305 36.48620605 33.04891968 C35.76690918 33.48848999 35.0476123 33.9280603 34.30651855 34.38095093 C34.30651855 35.04095093 34.30651855 35.70095093 34.30651855 36.38095093 C33.7651123 36.61684937 33.22370605 36.8527478 32.66589355 37.09579468 C29.66233669 38.73183807 27.19480935 40.76930388 24.55651855 42.94345093 C23.5716748 43.74911499 22.58683105 44.55477905 21.57214355 45.38485718 C20.8244873 46.04356812 20.07683105 46.70227905 19.30651855 47.38095093 C19.30651855 47.71095093 19.30651855 48.04095093 19.30651855 48.38095093 C26.62055724 48.40631434 33.93458458 48.42382349 41.24865723 48.43588257 C43.73661727 48.44091006 46.22457436 48.44773295 48.71252441 48.45639038 C52.28943613 48.46852518 55.86630876 48.47419511 59.4432373 48.47860718 C60.5548674 48.48376846 61.6664975 48.48892975 62.81181335 48.49424744 C63.8525148 48.49432297 64.89321625 48.4943985 65.9654541 48.49447632 C66.87812546 48.49669693 67.79079681 48.49891754 68.73112488 48.50120544 C71.34784542 48.37902123 73.75551829 47.96141881 76.30651855 47.38095093 C70.10413284 39.83750884 63.27059227 32.49603026 55.68151855 26.31845093 C53.30651855 24.38095093 53.30651855 24.38095093 52.30651855 22.38095093 C48.23507977 22.38095093 47.33824597 23.9236666 44.43151855 26.69345093 Z M88.05651855 31.50595093 C87.14901855 32.45470093 86.24151855 33.40345093 85.30651855 34.38095093 C83.00744585 36.42191568 80.66204906 38.40556367 78.30651855 40.38095093 C79.29651855 41.86595093 79.29651855 41.86595093 80.30651855 43.38095093 C80.63651855 45.03095093 80.96651855 46.68095093 81.30651855 48.38095093 C90.87651855 48.38095093 100.44651855 48.38095093 110.30651855 48.38095093 C107.87195614 43.5118261 104.69281945 40.43676593 100.86901855 36.63095093 C100.18774902 35.93356812 99.50647949 35.2361853 98.80456543 34.51766968 C98.14649902 33.85895874 97.48843262 33.2002478 96.8104248 32.52157593 C96.21044678 31.91861694 95.61046875 31.31565796 94.99230957 30.69442749 C92.02406996 28.38173682 90.66367583 29.04363572 88.05651855 31.50595093 Z " fill="#F94C60" transform="translate(51.6934814453125,88.61904907226563)"/>
<path d="M0 0 C0.70602356 -0.0049649 1.41204712 -0.00992981 2.13946533 -0.01504517 C4.47392757 -0.02964476 6.80832189 -0.03646437 9.14282227 -0.04199219 C10.7656301 -0.04774457 12.38843793 -0.05350229 14.01124573 -0.05926514 C17.41326209 -0.06976823 20.81525486 -0.07561571 24.21728516 -0.07910156 C28.57652166 -0.08459102 32.93544655 -0.10863138 37.29458523 -0.13707352 C40.64631565 -0.15569434 43.99797083 -0.16090515 47.34974861 -0.16243744 C48.95691701 -0.16546474 50.56408406 -0.17349593 52.17120171 -0.18662262 C54.41906378 -0.20367525 56.66616201 -0.20180544 58.9140625 -0.1953125 C60.1929686 -0.19895813 61.47187469 -0.20260376 62.78953552 -0.20635986 C66.24015142 0.18596698 67.62428082 0.69412737 70.02172852 3.16113281 C71.2412297 6.81963636 71.24426211 10.2251685 71.27172852 14.03613281 C71.29235352 14.74382813 71.31297852 15.45152344 71.33422852 16.18066406 C71.36793048 20.7051524 70.82916838 23.57687706 68.02172852 27.16113281 C65.05535915 28.6443175 62.37539243 28.30485389 59.06518555 28.32226562 C58.34955444 28.32723053 57.63392334 28.33219543 56.89660645 28.33731079 C54.52424159 28.35194072 52.15194361 28.35873576 49.77954102 28.36425781 C48.13288368 28.37000858 46.48622638 28.37576632 44.83956909 28.38153076 C41.38449796 28.39204311 37.92945011 28.39788424 34.47436523 28.40136719 C30.04672066 28.40685248 25.61938353 28.43088008 21.1918354 28.45933914 C17.78949077 28.47796129 14.38722025 28.48317089 10.98482895 28.48470306 C9.35254104 28.48773108 7.72025447 28.49576467 6.08801651 28.50888824 C3.8041265 28.52594036 1.52098836 28.52407092 -0.76293945 28.51757812 C-2.06262665 28.52122375 -3.36231384 28.52486938 -4.7013855 28.52862549 C-8.15946332 28.14081271 -9.54838889 27.59619441 -11.97827148 25.16113281 C-14.18157983 18.87168899 -13.087931 10.58750881 -11.97827148 4.16113281 C-8.77466403 -0.64427837 -5.42424011 0.02897772 0 0 Z M-6.97827148 6.16113281 C-6.97827148 11.44113281 -6.97827148 16.72113281 -6.97827148 22.16113281 C16.78172852 22.16113281 40.54172852 22.16113281 65.02172852 22.16113281 C65.02172852 16.88113281 65.02172852 11.60113281 65.02172852 6.16113281 C41.26172852 6.16113281 17.50172852 6.16113281 -6.97827148 6.16113281 Z " fill="#BEBEBE" transform="translate(135.978271484375,37.8388671875)"/>
<path d="M0 0 C1.00727394 0.00349709 1.00727394 0.00349709 2.03489685 0.00706482 C3.44779247 0.01676701 4.86065125 0.03847336 6.27319336 0.0715332 C8.43076409 0.12102884 10.58605275 0.13302179 12.74414062 0.13867188 C24.47858892 0.25870276 24.47858892 0.25870276 27.87109375 2.55859375 C30.01821685 6.85283996 29.13915435 12.53989406 29.16625977 17.30712891 C29.18347442 19.41895447 29.22736314 21.52921434 29.27148438 23.640625 C29.2816117 24.98566559 29.29012768 26.33071946 29.296875 27.67578125 C29.31145752 28.89894043 29.32604004 30.12209961 29.34106445 31.38232422 C28.87109375 34.55859375 28.87109375 34.55859375 27.3112793 36.95556641 C24.04301292 39.10258362 21.18879647 39.13436419 17.40234375 39.08984375 C16.32635925 39.09558411 16.32635925 39.09558411 15.2286377 39.10144043 C13.71572461 39.10415602 12.2027643 39.0968193 10.68994141 39.08007812 C8.37816399 39.05865926 6.06949362 39.07988726 3.7578125 39.10546875 C2.28514941 39.10282541 0.81248825 39.09770028 -0.66015625 39.08984375 C-1.34879761 39.09794067 -2.03743896 39.1060376 -2.74694824 39.11437988 C-5.94432849 39.05211521 -7.88069694 38.72430755 -10.56030273 36.93530273 C-13.50097243 32.47967324 -12.75526155 27.32303184 -12.70532227 22.14135742 C-12.69146526 20.12966076 -12.72551841 18.12263118 -12.76367188 16.11132812 C-12.76173828 14.83708984 -12.75980469 13.56285156 -12.7578125 12.25 C-12.7585376 11.08670166 -12.7592627 9.92340332 -12.76000977 8.72485352 C-11.320047 1.50052966 -6.80002567 -0.07336419 0 0 Z M17.87109375 5.55859375 C11.27109375 5.88859375 4.67109375 6.21859375 -2.12890625 6.55859375 C1.18200377 9.86950377 4.21117313 12.73522641 7.87109375 15.55859375 C10.86329643 14.19489076 13.16135904 12.60951292 15.62109375 10.43359375 C16.2346875 9.89476562 16.84828125 9.3559375 17.48046875 8.80078125 C17.939375 8.39085937 18.39828125 7.9809375 18.87109375 7.55859375 C18.54109375 6.89859375 18.21109375 6.23859375 17.87109375 5.55859375 Z M20.62109375 11.68359375 C17.88083524 14.54840946 15.37212513 17.48589805 12.87109375 20.55859375 C14.32397036 21.89787096 15.78356634 23.22986222 17.24609375 24.55859375 C18.05820313 25.30109375 18.8703125 26.04359375 19.70703125 26.80859375 C21.66643367 28.76819188 21.66643367 28.76819188 23.87109375 28.55859375 C23.87109375 22.28859375 23.87109375 16.01859375 23.87109375 9.55859375 C22.47645351 9.44415649 22.47645351 9.44415649 20.62109375 11.68359375 Z M-6.12890625 10.55859375 C-6.12890625 16.49859375 -6.12890625 22.43859375 -6.12890625 28.55859375 C-1.98836493 26.07426896 0.62364382 23.99161224 3.87109375 20.55859375 C2.44528515 17.10663608 0.77363041 15.45716815 -2.25390625 13.30859375 C-3.53265625 12.40109375 -4.81140625 11.49359375 -6.12890625 10.55859375 Z M2.74609375 27.99609375 C1.83601562 28.81980469 0.9259375 29.64351562 -0.01171875 30.4921875 C-1.05972656 31.51505859 -1.05972656 31.51505859 -2.12890625 32.55859375 C-2.12890625 32.88859375 -2.12890625 33.21859375 -2.12890625 33.55859375 C4.80109375 33.55859375 11.73109375 33.55859375 18.87109375 33.55859375 C17.52505893 29.5204893 15.21772652 28.08564299 11.87109375 25.55859375 C11.21109375 25.55859375 10.55109375 25.55859375 9.87109375 25.55859375 C9.87109375 24.89859375 9.87109375 24.23859375 9.87109375 23.55859375 C6.61258964 23.55859375 5.08684487 25.85874123 2.74609375 27.99609375 Z " fill="#818181" transform="translate(161.12890625,152.44140625)"/>
<path d="M0 0 C0.69371201 -0.0038269 1.38742401 -0.00765381 2.10215759 -0.01159668 C3.5620164 -0.01430756 5.02192445 -0.00700402 6.48168945 0.00976562 C8.71220239 0.03122459 10.93950724 0.00992441 13.16992188 -0.015625 C14.592455 -0.01298221 16.01498613 -0.00785822 17.4375 0 C18.725354 0.00451172 20.01320801 0.00902344 21.34008789 0.01367188 C24.65234375 0.53125 24.65234375 0.53125 27.07006836 2.12280273 C29.2205413 5.39612715 29.16960784 7.69583817 29.18359375 11.59765625 C29.18742065 12.27295883 29.19124756 12.94826141 29.19519043 13.64402771 C29.19790471 15.06698097 29.1905771 16.48998453 29.17382812 17.9128418 C29.15237271 20.09080974 29.17365751 22.26549244 29.19921875 24.44335938 C29.19657603 25.82813227 29.19145221 27.21290313 29.18359375 28.59765625 C29.17908203 29.85521729 29.17457031 31.11277832 29.16992188 32.40844727 C28.65234375 35.53125 28.65234375 35.53125 27.0859375 37.4375 C23.7895945 38.91900247 20.7325534 38.97997276 17.18359375 38.96484375 C16.46627075 38.9700856 15.74894775 38.97532745 15.0098877 38.98072815 C13.49700207 38.98713642 11.98406654 38.98582678 10.47119141 38.97729492 C8.15957855 38.96877666 5.85043186 38.99757027 3.5390625 39.02929688 C2.06640699 39.03090891 0.59374711 39.03033132 -0.87890625 39.02734375 C-1.56754761 39.03857773 -2.25618896 39.04981171 -2.96569824 39.06138611 C-6.15638261 39.01515761 -8.09628157 38.69720929 -10.77905273 36.92602539 C-12.87363168 33.72824719 -12.87982542 31.52895709 -12.9140625 27.71875 C-12.92026108 27.06801514 -12.92645966 26.41728027 -12.93284607 25.74682617 C-12.93992925 24.37517793 -12.9367962 23.00344345 -12.92407227 21.63183594 C-12.91019301 19.53679912 -12.94429689 17.44622289 -12.98242188 15.3515625 C-12.98337308 14.01562391 -12.98151414 12.67967975 -12.9765625 11.34375 C-12.9772876 10.13332031 -12.9780127 8.92289063 -12.97875977 7.67578125 C-12.34765625 4.53125 -12.34765625 4.53125 -10.26757812 2.13867188 C-6.62318094 0.13242513 -4.15150504 0.01453118 0 0 Z M-1.34765625 6.53125 C-0.28446323 9.72082907 0.50945106 10.61503632 2.96484375 12.78125 C3.55910156 13.32265625 4.15335938 13.8640625 4.765625 14.421875 C6.57085188 15.71776644 6.57085188 15.71776644 8.6171875 15.421875 C11.14304268 14.31651035 12.8586316 12.87816024 14.90234375 11.03125 C15.60875 10.4021875 16.31515625 9.773125 17.04296875 9.125 C17.5740625 8.5990625 18.10515625 8.073125 18.65234375 7.53125 C18.65234375 7.20125 18.65234375 6.87125 18.65234375 6.53125 C12.05234375 6.53125 5.45234375 6.53125 -1.34765625 6.53125 Z M-7.34765625 10.53125 C-7.34765625 16.80125 -7.34765625 23.07125 -7.34765625 29.53125 C-6.08953125 28.603125 -4.83140625 27.675 -3.53515625 26.71875 C-2.82746094 26.19667969 -2.11976562 25.67460937 -1.390625 25.13671875 C0.45195582 23.68872502 2.11599244 22.30023495 3.65234375 20.53125 C3.8847111 18.37705783 3.8847111 18.37705783 2.0078125 16.83984375 C1.29238281 16.22238281 0.57695313 15.60492188 -0.16015625 14.96875 C-0.86785156 14.34871094 -1.57554688 13.72867188 -2.3046875 13.08984375 C-4.36039093 11.34700246 -4.36039093 11.34700246 -7.34765625 10.53125 Z M21.65234375 10.53125 C21.65234375 11.19125 21.65234375 11.85125 21.65234375 12.53125 C19.67234375 13.52125 19.67234375 13.52125 17.65234375 14.53125 C17.65234375 15.19125 17.65234375 15.85125 17.65234375 16.53125 C15.67234375 17.52125 15.67234375 17.52125 13.65234375 18.53125 C13.31010853 21.57572897 13.31010853 21.57572897 15.33203125 23.3203125 C16.05648437 23.92617187 16.7809375 24.53203125 17.52734375 25.15625 C18.24664062 25.76726562 18.9659375 26.37828125 19.70703125 27.0078125 C21.57742227 28.57686351 21.57742227 28.57686351 23.65234375 29.53125 C23.65234375 23.26125 23.65234375 16.99125 23.65234375 10.53125 C22.99234375 10.53125 22.33234375 10.53125 21.65234375 10.53125 Z M7.65234375 23.53125 C5.98272006 25.00707808 4.31671315 26.48699891 2.65234375 27.96875 C1.72421875 28.79246094 0.79609375 29.61617187 -0.16015625 30.46484375 C-1.24296875 31.48771484 -1.24296875 31.48771484 -2.34765625 32.53125 C-2.34765625 32.86125 -2.34765625 33.19125 -2.34765625 33.53125 C4.58234375 33.53125 11.51234375 33.53125 18.65234375 33.53125 C13.64627238 27.35616357 13.64627238 27.35616357 7.65234375 23.53125 Z " fill="#979797" transform="translate(108.34765625,152.46875)"/>
<path d="M0 0 C0.69512695 0.00091644 1.39025391 0.00183289 2.10644531 0.0027771 C3.57233532 0.00880407 5.03821353 0.02452327 6.50390625 0.04931641 C8.74265116 0.08581768 10.97973857 0.09033562 13.21875 0.08984375 C25.41601638 0.17388138 25.41601638 0.17388138 28.75 2.4609375 C30.8971231 6.75518371 30.0180606 12.44223781 30.04516602 17.20947266 C30.06238067 19.32129822 30.10626939 21.43155809 30.15039062 23.54296875 C30.16051795 24.88800934 30.16903393 26.23306321 30.17578125 27.578125 C30.19036377 28.80128418 30.20494629 30.02444336 30.2199707 31.28466797 C29.75 34.4609375 29.75 34.4609375 28.19018555 36.85791016 C24.92191917 39.00492737 22.06770272 39.03670794 18.28125 38.9921875 C17.2052655 38.99792786 17.2052655 38.99792786 16.10754395 39.00378418 C14.59463086 39.00649977 13.08167055 38.99916305 11.56884766 38.98242188 C9.25707024 38.96100301 6.94839987 38.98223101 4.63671875 39.0078125 C3.16405566 39.00516916 1.6913945 39.00004403 0.21875 38.9921875 C-0.46989136 39.00028442 -1.15853271 39.00838135 -1.86804199 39.01672363 C-5.05556506 38.95465092 -7.00418803 38.62329966 -9.68359375 36.85351562 C-11.77943174 33.65226682 -11.76703654 31.46170705 -11.78125 27.6484375 C-11.7850769 26.99770264 -11.78890381 26.34696777 -11.79284668 25.67651367 C-11.79556076 24.30483446 -11.78823453 22.93310306 -11.77148438 21.56152344 C-11.75006119 19.46692065 -11.77129637 17.37574666 -11.796875 15.28125 C-11.79423163 13.94530496 -11.78910643 12.60936205 -11.78125 11.2734375 C-11.77673828 10.06300781 -11.77222656 8.85257813 -11.76757812 7.60546875 C-11.25 4.4609375 -11.25 4.4609375 -9.66992188 2.06396484 C-6.33617648 -0.14440605 -3.98095365 -0.02527747 0 0 Z M-0.25 6.4609375 C0.81319302 9.65051657 1.60710731 10.54472382 4.0625 12.7109375 C4.65675781 13.25234375 5.25101563 13.79375 5.86328125 14.3515625 C7.66850813 15.64745394 7.66850813 15.64745394 9.71484375 15.3515625 C12.24069893 14.24619785 13.95628785 12.80784774 16 10.9609375 C16.70640625 10.331875 17.4128125 9.7028125 18.140625 9.0546875 C18.67171875 8.52875 19.2028125 8.0028125 19.75 7.4609375 C19.75 7.1309375 19.75 6.8009375 19.75 6.4609375 C13.15 6.4609375 6.55 6.4609375 -0.25 6.4609375 Z M-6.25 9.4609375 C-6.25 16.0609375 -6.25 22.6609375 -6.25 29.4609375 C1.13717412 24.21518473 1.13717412 24.21518473 4.75 20.4609375 C3.61180149 17.04634197 2.50994482 16.1285217 -0.1875 13.8359375 C-1.25291016 12.91941406 -1.25291016 12.91941406 -2.33984375 11.984375 C-4.17714018 10.41067408 -4.17714018 10.41067408 -6.25 9.4609375 Z M22.75 10.4609375 C22.75 11.1209375 22.75 11.7809375 22.75 12.4609375 C21.9146875 12.8321875 21.9146875 12.8321875 21.0625 13.2109375 C18.35028873 14.67699765 16.11412635 16.49083221 13.75 18.4609375 C14.54117904 20.46077284 14.54117904 20.46077284 15.75 22.4609375 C16.74 22.7909375 17.73 23.1209375 18.75 23.4609375 C18.75 24.1209375 18.75 24.7809375 18.75 25.4609375 C21.38684747 27.85914055 21.38684747 27.85914055 24.75 28.4609375 C24.75 22.5209375 24.75 16.5809375 24.75 10.4609375 C24.09 10.4609375 23.43 10.4609375 22.75 10.4609375 Z M8.75 23.4609375 C7.08037631 24.93676558 5.4143694 26.41668641 3.75 27.8984375 C2.821875 28.72214844 1.89375 29.54585937 0.9375 30.39453125 C-0.1453125 31.41740234 -0.1453125 31.41740234 -1.25 32.4609375 C-1.25 32.7909375 -1.25 33.1209375 -1.25 33.4609375 C5.35 33.4609375 11.95 33.4609375 18.75 33.4609375 C16.81604999 29.59303747 15.9696994 28.58459514 12.625 26.2109375 C11.90054688 25.69015625 11.17609375 25.169375 10.4296875 24.6328125 C9.87539062 24.24609375 9.32109375 23.859375 8.75 23.4609375 Z " fill="#838383" transform="translate(54.25,152.5390625)"/>
<path d="M0 0 C0.67957854 -0.00085442 1.35915708 -0.00170885 2.05932891 -0.00258917 C4.34718604 -0.00424245 6.63497062 0.00127493 8.92282104 0.00672913 C10.55856321 0.00701106 12.19430551 0.00685315 13.83004761 0.00628662 C18.28021149 0.00599887 22.73034859 0.01189193 27.18050623 0.01886058 C31.82767254 0.0250979 36.47483942 0.02569822 41.12200928 0.02688599 C49.92635808 0.02999818 58.73069452 0.03821007 67.53503788 0.04823548 C77.55665731 0.05940007 87.57827733 0.06490794 97.59990144 0.06993091 C118.21910421 0.08039277 138.83829583 0.09799006 159.45748901 0.12025452 C159.45748901 0.45025452 159.45748901 0.78025452 159.45748901 1.12025452 C133.05748901 1.12025452 106.65748901 1.12025452 79.45748901 1.12025452 C79.45748901 13.00025452 79.45748901 24.88025452 79.45748901 37.12025452 C109.81748901 37.12025452 140.17748901 37.12025452 171.45748901 37.12025452 C171.45748901 37.45025452 171.45748901 37.78025452 171.45748901 38.12025452 C127.40248901 38.61525452 127.40248901 38.61525452 82.45748901 39.12025452 C82.45748901 39.45025452 82.45748901 39.78025452 82.45748901 40.12025452 C111.49748901 40.45025452 140.53748901 40.78025452 170.45748901 41.12025452 C170.45748901 41.45025452 170.45748901 41.78025452 170.45748901 42.12025452 C108.74748901 42.45025452 47.03748901 42.78025452 -16.54251099 43.12025452 C-16.54251099 81.40025452 -16.54251099 119.68025452 -16.54251099 159.12025452 C-18.54251099 157.12025452 -18.54251099 157.12025452 -18.78860664 155.06254387 C-18.78676306 154.20896357 -18.78491947 153.35538326 -18.78302002 152.47593689 C-18.78576935 151.49714569 -18.78851868 150.51835449 -18.79135132 149.50990295 C-18.78416077 148.43240784 -18.77697021 147.35491272 -18.76956177 146.24476624 C-18.76985382 145.11306 -18.77014587 143.98135376 -18.77044678 142.81535339 C-18.76904911 139.06013931 -18.75346725 135.3051216 -18.73782349 131.54994202 C-18.73409491 128.9520529 -18.73124721 126.35416238 -18.72924805 123.75627136 C-18.72238188 117.60808862 -18.70660561 111.45998739 -18.68654907 105.31183541 C-18.66202215 97.62689497 -18.65105817 89.94194306 -18.64016724 82.25697327 C-18.62067445 68.5446784 -18.58061242 54.83253835 -18.54251099 41.12025452 C11.15748901 40.79025452 40.85748901 40.46025452 71.45748901 40.12025452 C71.45748901 39.79025452 71.45748901 39.46025452 71.45748901 39.12025452 C70.34471085 39.10994705 69.23193268 39.09963959 68.08543396 39.08901978 C57.62250983 38.99146206 47.15964753 38.88874518 36.69682407 38.78091526 C31.31718098 38.72564013 25.9375325 38.67221293 20.55783081 38.62294006 C15.37069231 38.57536404 10.18362216 38.52302395 4.99656487 38.46731377 C3.01294585 38.44685947 1.02930807 38.42815159 -0.9543438 38.4111805 C-3.72265314 38.38720429 -6.490832 38.35714087 -9.25906372 38.32557678 C-10.08768417 38.31982132 -10.91630463 38.31406586 -11.77003479 38.30813599 C-17.42845883 38.23430668 -17.42845883 38.23430668 -18.54251099 37.12025452 C-18.82455474 33.23189674 -18.77439427 29.33011305 -18.79251099 25.43275452 C-18.81313599 24.34285217 -18.83376099 23.25294983 -18.85501099 22.13002014 C-18.88806864 15.34080448 -18.64777081 10.41916083 -13.78860474 5.25697327 C-13.1917688 4.77873108 -12.59493286 4.30048889 -11.98001099 3.80775452 C-11.38059692 3.3166217 -10.78118286 2.82548889 -10.16360474 2.31947327 C-6.73878787 -0.21406595 -4.22359688 -0.00318522 0 0 Z M-15.54251099 9.12025452 C-18.50148979 17.99719093 -17.16852555 27.77061867 -17.54251099 37.12025452 C12.81748901 37.12025452 43.17748901 37.12025452 74.45748901 37.12025452 C74.45748901 25.24025452 74.45748901 13.36025452 74.45748901 1.12025452 C60.38525541 1.00387464 60.38525541 1.00387464 46.31295776 0.92494202 C40.57175882 0.90104778 34.83081551 0.87280712 29.08981323 0.8184967 C24.4602847 0.77497594 19.83103036 0.75110413 15.20131302 0.74074554 C13.43667918 0.73336535 11.67206002 0.71895341 9.90754318 0.69733429 C7.43216492 0.6682169 4.95791383 0.66430191 2.48239136 0.66615295 C1.75590393 0.65177185 1.0294165 0.63739075 0.28091431 0.62257385 C-6.65376888 0.67853591 -11.10764053 4.02836622 -15.54251099 9.12025452 Z " fill="#BEBDBD" transform="translate(39.542510986328125,32.87974548339844)"/>
<path d="M0 0 C2.48786721 1.11375451 4.23121304 2.52771014 6.265625 4.33984375 C6.97203125 4.95730469 7.6784375 5.57476562 8.40625 6.2109375 C10.015625 7.90234375 10.015625 7.90234375 10.015625 9.90234375 C11.335625 10.56234375 12.655625 11.22234375 14.015625 11.90234375 C14.015625 12.56234375 14.015625 13.22234375 14.015625 13.90234375 C14.593125 14.14984375 15.170625 14.39734375 15.765625 14.65234375 C18.3159247 16.06917692 20.03348201 17.77861912 22.015625 19.90234375 C25.96166029 18.57784843 28.24255246 16.99208521 31.078125 13.96484375 C36.24854808 8.48726683 36.24854808 8.48726683 39.015625 6.90234375 C43.85910584 7.13064378 46.33171453 9.67514259 49.53515625 12.99609375 C50.03859055 13.50281616 50.54202484 14.00953857 51.06071472 14.53161621 C52.11832939 15.59962192 53.17117619 16.6723678 54.21948242 17.74951172 C55.83117272 19.40547519 57.45603519 21.04753191 59.08398438 22.6875 C60.11015929 23.727091 61.13557732 24.76742978 62.16015625 25.80859375 C62.6475679 26.30339233 63.13497955 26.79819092 63.63716125 27.3079834 C67.015625 30.78403793 67.015625 30.78403793 67.015625 31.90234375 C63.95820447 32.76056706 62.10159508 33.27921443 59.015625 32.90234375 C56.94347358 31.27721825 55.54679115 29.46747057 53.9453125 27.37890625 C51.72878536 24.53421352 49.30774964 22.02170535 46.765625 19.46484375 C45.93546875 18.62050781 45.1053125 17.77617188 44.25 16.90625 C42.09781555 14.70863585 42.09781555 14.70863585 39.015625 13.90234375 C38.685625 14.89234375 38.355625 15.88234375 38.015625 16.90234375 C36.23828125 18.65625 36.23828125 18.65625 34.078125 20.46484375 C31.98218537 22.23364943 29.95567612 23.96229263 28.015625 25.90234375 C29.005625 26.89234375 29.005625 26.89234375 30.015625 27.90234375 C30.015625 29.55234375 30.015625 31.20234375 30.015625 32.90234375 C26.715625 32.90234375 23.415625 32.90234375 20.015625 32.90234375 C21.335625 32.24234375 22.655625 31.58234375 24.015625 30.90234375 C21.49908859 28.35639269 18.97661706 25.8163992 16.453125 23.27734375 C15.74865234 22.56449219 15.04417969 21.85164063 14.31835938 21.1171875 C10.9792154 17.76265577 7.63374281 14.52571742 3.98828125 11.50390625 C3.00730469 10.64539063 2.02632812 9.786875 1.015625 8.90234375 C1.015625 8.24234375 1.015625 7.58234375 1.015625 6.90234375 C-4.4455932 9.69105092 -8.60670353 13.08657101 -13.06640625 17.29296875 C-14.984375 18.90234375 -14.984375 18.90234375 -16.984375 18.90234375 C-16.984375 19.56234375 -16.984375 20.22234375 -16.984375 20.90234375 C-19.26189688 22.83309456 -21.54665563 24.66207764 -23.921875 26.46484375 C-25.22294788 27.46576687 -26.52374346 28.46705057 -27.82421875 29.46875 C-28.86707031 30.27183594 -29.90992187 31.07492188 -30.984375 31.90234375 C-31.479375 32.39734375 -31.479375 32.39734375 -31.984375 32.90234375 C-34.65496351 33.04349536 -37.30869738 32.94481482 -39.984375 32.90234375 C-38.70375015 31.19484395 -37.36669943 29.52860779 -35.984375 27.90234375 C-35.324375 27.90234375 -34.664375 27.90234375 -33.984375 27.90234375 C-33.654375 26.91234375 -33.324375 25.92234375 -32.984375 24.90234375 C-30.93563893 23.1496678 -28.88710278 21.51731728 -26.734375 19.90234375 C-21.10409288 15.58817469 -15.63015425 11.14032035 -10.24902344 6.51953125 C-8.83362269 5.30659 -7.40934532 4.10402812 -5.984375 2.90234375 C-5.28570312 2.28359375 -4.58703125 1.66484375 -3.8671875 1.02734375 C-1.984375 -0.09765625 -1.984375 -0.09765625 0 0 Z " fill="#888787" transform="translate(102.984375,104.09765625)"/>
<path d="M0 0 C1.98 0.99 1.98 0.99 4 2 C4.10126342 9.20813016 4.17140779 16.41607752 4.21972656 23.62475586 C4.23986533 26.07795059 4.26717818 28.53109719 4.30175781 30.98413086 C4.35017482 34.50646833 4.37294629 38.02817223 4.390625 41.55078125 C4.41127014 42.65086014 4.43191528 43.75093903 4.45318604 44.88435364 C4.45348816 45.90518539 4.45379028 46.92601715 4.45410156 47.9777832 C4.46298401 48.87713089 4.47186646 49.77647858 4.48101807 50.70307922 C4 53 4 53 2.32854939 54.62016869 C-0.56748557 56.33627561 -2.38155111 56.37477513 -5.73780823 56.3742218 C-7.49390411 56.38474327 -7.49390411 56.38474327 -9.28547668 56.39547729 C-10.5661351 56.38783356 -11.84679352 56.38018982 -13.16625977 56.37231445 C-14.53142575 56.37474297 -15.89658996 56.37846287 -17.26174927 56.38337708 C-20.96623618 56.39278074 -24.67045864 56.38336568 -28.3749249 56.37004495 C-32.25059629 56.3587287 -36.1262547 56.36283803 -40.00193787 56.36479187 C-46.50939251 56.36567469 -53.01674295 56.35459621 -59.52416992 56.33618164 C-67.05072995 56.31500529 -74.57713742 56.31150609 -82.1037212 56.3177436 C-89.34177579 56.32343515 -96.57977658 56.31779464 -103.81782341 56.30657005 C-106.89950491 56.3019222 -109.98115354 56.30105101 -113.0628376 56.3031559 C-116.68997205 56.30503744 -120.31695087 56.29694538 -123.94404984 56.2810955 C-125.91270721 56.27481898 -127.88138817 56.27836318 -129.85005188 56.28216553 C-131.01796265 56.27508072 -132.18587341 56.26799591 -133.38917542 56.26069641 C-134.40624856 56.25864354 -135.4233217 56.25659067 -136.47121525 56.25447559 C-139 56 -139 56 -142 54 C-141.67 52.68 -141.34 51.36 -141 50 C-140.67 50.33 -140.34 50.66 -140 51 C-138.19039129 51.09641497 -136.37697872 51.12187398 -134.56480408 51.12025452 C-132.79576973 51.12231651 -132.79576973 51.12231651 -130.99099731 51.12442017 C-129.6854892 51.12082489 -128.37998108 51.11722961 -127.03491211 51.11352539 C-125.65547182 51.11324352 -124.27603139 51.11340125 -122.89659119 51.1139679 C-119.14055882 51.11425588 -115.38455811 51.10835905 -111.62853312 51.10139394 C-107.70739955 51.09516051 -103.78626533 51.09455661 -99.86512756 51.09336853 C-92.43488389 51.09025518 -85.00465486 51.08204175 -77.57441765 51.07201904 C-69.11748362 51.06085801 -60.6605489 51.05534748 -52.20360935 51.05032361 C-34.80239775 51.03985914 -17.40120042 51.02225963 0 51 C1.15355597 48.69288807 1.12671587 47.37923726 1.12939453 44.81323242 C1.13412277 43.51629707 1.13412277 43.51629707 1.13894653 42.19316101 C1.1369223 41.25672256 1.13489807 40.32028412 1.1328125 39.35546875 C1.13376923 38.39353104 1.13472595 37.43159332 1.13571167 36.44050598 C1.13639309 34.40198705 1.13454148 32.36346595 1.13037109 30.32495117 C1.12503976 27.21072474 1.13030835 24.09664369 1.13671875 20.98242188 C1.13605762 19.00260385 1.13477573 17.02278591 1.1328125 15.04296875 C1.13584885 13.64742012 1.13584885 13.64742012 1.13894653 12.22367859 C1.12379977 8.02354808 1.07494377 4.09321933 0 0 Z " fill="#A39698" transform="translate(186,90)"/>
<path d="M0 0 C4.34161825 -0.04952706 8.68308575 -0.08577954 13.02490234 -0.10986328 C14.50116847 -0.11990591 15.97741479 -0.13354265 17.45361328 -0.15087891 C19.57850034 -0.17520421 21.70312385 -0.1865004 23.828125 -0.1953125 C25.1059082 -0.20578613 26.38369141 -0.21625977 27.70019531 -0.22705078 C30.79146893 -0.01434847 32.47711687 0.26084372 35 2 C36.46098845 4.9219769 36.11134901 7.49893475 36.09765625 10.7578125 C36.0962413 11.42086395 36.09482635 12.08391541 36.09336853 12.76705933 C36.08776754 14.88641863 36.075215 17.00567259 36.0625 19.125 C36.05748512 20.56119639 36.05292219 21.99739444 36.04882812 23.43359375 C36.03779782 26.95576345 36.02053259 30.47787145 36 34 C35.67 34 35.34 34 35 34 C34.505 23.605 34.505 23.605 34 13 C32.00383446 14.99616554 32.59016573 18.81701963 32.4375 21.5625 C32.37272461 22.62887695 32.37272461 22.62887695 32.30664062 23.71679688 C32.20028223 25.47761912 32.09961154 27.2387832 32 29 C31.01 28.67 30.02 28.34 29 28 C29.66 28 30.32 28 31 28 C30.67 22.39 30.34 16.78 30 11 C27.03 13.64 24.06 16.28 21 19 C22.65 20.98 24.3 22.96 26 25 C24.68 25 23.36 25 22 25 C21.34 25.66 20.68 26.32 20 27 C19.01 26.34 18.02 25.68 17 25 C17 24.34 17 23.68 17 23 C15.02 24.65 13.04 26.3 11 28 C10.34 27.67 9.68 27.34 9 27 C10.62339805 25.29115995 12.29319053 23.62553283 14 22 C14.66 22 15.32 22 16 22 C15.01 20.68 14.02 19.36 13 18 C12.34 19.32 11.68 20.64 11 22 C10.34 21.67 9.68 21.34 9 21 C9 19.68 9 18.36 9 17 C7.48990073 15.22239242 7.48990073 15.22239242 5.5 13.75 C4.8503125 13.22921875 4.200625 12.7084375 3.53125 12.171875 C3.0259375 11.78515625 2.520625 11.3984375 2 11 C1.97309156 13.62506802 1.95320596 16.24986173 1.9375 18.875 C1.92912109 19.62136719 1.92074219 20.36773437 1.91210938 21.13671875 C1.79311916 25.19845578 1.79311916 25.19845578 3 29 C1.68 29 0.36 29 -1 29 C-1 21.74 -1 14.48 -1 7 C0.32 6.67 1.64 6.34 3 6 C4.75422772 4.02329393 4.75422772 4.02329393 6 2 C3.03 1.505 3.03 1.505 0 1 C0 0.67 0 0.34 0 0 Z M25 5 C18.4 5.33 11.8 5.66 5 6 C8.31091002 9.31091002 11.34007938 12.17663266 15 15 C17.99220268 13.63629701 20.29026529 12.05091917 22.75 9.875 C23.36359375 9.33617187 23.9771875 8.79734375 24.609375 8.2421875 C25.06828125 7.83226562 25.5271875 7.42234375 26 7 C25.67 6.34 25.34 5.68 25 5 Z " fill="#8A8A8A" transform="translate(154,153)"/>
<path d="M0 0 C3.01187134 -0.36076355 3.01187134 -0.36076355 6.92822266 -0.34057617 C7.64052536 -0.34101425 8.35282806 -0.34145233 9.0867157 -0.34190369 C11.44610812 -0.3398101 13.80479391 -0.31645325 16.1640625 -0.29296875 C17.79787813 -0.2873748 19.43169878 -0.28310375 21.06552124 -0.28010559 C25.36960702 -0.26864094 29.67338998 -0.23916008 33.97735596 -0.20599365 C38.36767479 -0.17532751 42.75804247 -0.16160767 47.1484375 -0.14648438 C55.7657641 -0.11429171 64.3828444 -0.06307608 73 0 C73.495 1.485 73.495 1.485 74 3 C50.24 3 26.48 3 2 3 C2 8.94 2 14.88 2 21 C19.49 21.33 36.98 21.66 55 22 C55.495 22.99 55.495 22.99 56 24 C48.78191706 24.7597811 41.66254445 25.14920105 34.40625 25.1328125 C32.9753302 25.13424759 32.9753302 25.13424759 31.51550293 25.13571167 C29.52237888 25.13638604 27.52925253 25.13458419 25.53613281 25.13037109 C22.47976839 25.12496421 19.42354773 25.13036559 16.3671875 25.13671875 C14.42187468 25.13605877 12.47656194 25.13477926 10.53125 25.1328125 C9.61879517 25.13483673 8.70634033 25.13686096 7.76623535 25.13894653 C6.92105347 25.13579437 6.07587158 25.13264221 5.20507812 25.12939453 C4.46326294 25.12859894 3.72144775 25.12780334 2.95715332 25.12698364 C1 25 1 25 -2 24 C-3.15670324 16.28864508 -4.49533751 6.74300626 0 0 Z " fill="#5C5C5C" transform="translate(126,39)"/>
<path d="M0 0 C1.05692047 0.00848969 1.05692047 0.00848969 2.13519287 0.01715088 C4.37728928 0.03947422 6.61776488 0.08965746 8.859375 0.140625 C10.38278935 0.16069548 11.90622886 0.1789453 13.4296875 0.1953125 C17.1567733 0.23932382 20.88291587 0.30832128 24.609375 0.390625 C24.609375 0.720625 24.609375 1.050625 24.609375 1.390625 C22.299375 1.720625 19.989375 2.050625 17.609375 2.390625 C18.104375 2.82375 18.599375 3.256875 19.109375 3.703125 C20.609375 5.390625 20.609375 5.390625 20.609375 8.390625 C21.929375 8.390625 23.249375 8.390625 24.609375 8.390625 C24.609375 9.050625 24.609375 9.710625 24.609375 10.390625 C23.949375 10.390625 23.289375 10.390625 22.609375 10.390625 C22.609375 11.050625 22.609375 11.710625 22.609375 12.390625 C21.1484375 13.8984375 21.1484375 13.8984375 19.234375 15.515625 C18.29464844 16.32386719 18.29464844 16.32386719 17.3359375 17.1484375 C15.609375 18.390625 15.609375 18.390625 13.609375 18.390625 C13.609375 17.400625 13.609375 16.410625 13.609375 15.390625 C11.299375 17.370625 8.989375 19.350625 6.609375 21.390625 C7.599375 22.050625 8.589375 22.710625 9.609375 23.390625 C5.979375 26.690625 2.349375 29.990625 -1.390625 33.390625 C-1.390625 32.400625 -1.390625 31.410625 -1.390625 30.390625 C-0.875 29.91625 -0.359375 29.441875 0.171875 28.953125 C0.8834375 28.1796875 0.8834375 28.1796875 1.609375 27.390625 C1.444375 26.730625 1.279375 26.070625 1.109375 25.390625 C0.944375 24.730625 0.779375 24.070625 0.609375 23.390625 C2.046875 21.765625 2.046875 21.765625 3.609375 20.390625 C3.609375 19.730625 3.609375 19.070625 3.609375 18.390625 C1.85688981 16.61771321 1.85688981 16.61771321 -0.328125 14.828125 C-1.05902344 14.20808594 -1.78992188 13.58804688 -2.54296875 12.94921875 C-3.15269531 12.43488281 -3.76242188 11.92054688 -4.390625 11.390625 C-4.720625 11.060625 -5.050625 10.730625 -5.390625 10.390625 C-5.720625 16.660625 -6.050625 22.930625 -6.390625 29.390625 C-6.720625 29.390625 -7.050625 29.390625 -7.390625 29.390625 C-7.45121094 28.31941406 -7.51179688 27.24820313 -7.57421875 26.14453125 C-7.65861037 24.74738109 -7.74325906 23.35024643 -7.828125 21.953125 C-7.86744141 21.24607422 -7.90675781 20.53902344 -7.94726562 19.81054688 C-7.86686938 16.30372081 -7.86686938 16.30372081 -9.390625 13.390625 C-9.720625 20.320625 -10.050625 27.250625 -10.390625 34.390625 C-10.720625 34.390625 -11.050625 34.390625 -11.390625 34.390625 C-11.48969758 30.19147193 -11.56218673 25.99294248 -11.61035156 21.79296875 C-11.63043482 20.36511379 -11.65770752 18.93734075 -11.69238281 17.50976562 C-11.74105169 15.45422132 -11.76362467 13.39976645 -11.78125 11.34375 C-11.80219727 10.10786133 -11.82314453 8.87197266 -11.84472656 7.59863281 C-11.390625 4.390625 -11.390625 4.390625 -9.828125 1.98046875 C-6.43986044 -0.22950509 -4.02515418 -0.06389134 0 0 Z M-0.390625 6.390625 C0.67256802 9.58020407 1.46648231 10.47441132 3.921875 12.640625 C4.51613281 13.18203125 5.11039063 13.7234375 5.72265625 14.28125 C7.52788313 15.57714144 7.52788313 15.57714144 9.57421875 15.28125 C12.10007393 14.17588535 13.81566285 12.73753524 15.859375 10.890625 C16.56578125 10.2615625 17.2721875 9.6325 18 8.984375 C18.53109375 8.4584375 19.0621875 7.9325 19.609375 7.390625 C19.609375 7.060625 19.609375 6.730625 19.609375 6.390625 C13.009375 6.390625 6.409375 6.390625 -0.390625 6.390625 Z " fill="#878787" transform="translate(54.390625,152.609375)"/>
<path d="M0 0 C1.02802734 0.00966797 2.05605469 0.01933594 3.11523438 0.02929688 C4.72301758 0.06700195 4.72301758 0.06700195 6.36328125 0.10546875 C7.44673828 0.11900391 8.53019531 0.13253906 9.64648438 0.14648438 C12.3234153 0.18186232 14.99934963 0.23122686 17.67578125 0.29296875 C15.39786684 2.90879894 14.98715127 3.26578278 11.3203125 3.5859375 C10.05574219 3.55113281 8.79117188 3.51632813 7.48828125 3.48046875 C6.21597656 3.45339844 4.94367188 3.42632812 3.6328125 3.3984375 C2.16908203 3.34623047 2.16908203 3.34623047 0.67578125 3.29296875 C0.67578125 4.28296875 0.67578125 5.27296875 0.67578125 6.29296875 C1.66578125 6.29296875 2.65578125 6.29296875 3.67578125 6.29296875 C3.67578125 6.95296875 3.67578125 7.61296875 3.67578125 8.29296875 C4.66578125 8.62296875 5.65578125 8.95296875 6.67578125 9.29296875 C6.34578125 10.61296875 6.01578125 11.93296875 5.67578125 13.29296875 C1.4846284 12.71086419 0.30036042 12.01140313 -3.32421875 9.29296875 C-3.32421875 15.89296875 -3.32421875 22.49296875 -3.32421875 29.29296875 C-2.33421875 29.62296875 -1.34421875 29.95296875 -0.32421875 30.29296875 C-0.32421875 30.95296875 -0.32421875 31.61296875 -0.32421875 32.29296875 C7.59578125 32.62296875 15.51578125 32.95296875 23.67578125 33.29296875 C23.67578125 32.30296875 23.67578125 31.31296875 23.67578125 30.29296875 C24.63484375 30.04546875 24.63484375 30.04546875 25.61328125 29.79296875 C27.83697366 28.51118275 27.83697366 28.51118275 28.1640625 26.37890625 C28.40337905 24.3572172 28.54471153 22.32454936 28.67578125 20.29296875 C29.66578125 20.95296875 30.65578125 21.61296875 31.67578125 22.29296875 C32.0390625 24.82421875 32.0390625 24.82421875 31.98828125 27.79296875 C31.98441406 28.77265625 31.98054688 29.75234375 31.9765625 30.76171875 C31.67578125 33.29296875 31.67578125 33.29296875 29.67578125 35.29296875 C27.0579325 35.4926751 24.54819218 35.57280698 21.9296875 35.55859375 C20.77931252 35.56146393 20.77931252 35.56146393 19.60569763 35.56439209 C17.98248975 35.56575399 16.35927098 35.5620572 14.73608398 35.55371094 C12.25154095 35.54302578 9.76772338 35.55359817 7.28320312 35.56640625 C5.70702965 35.56508437 4.13085663 35.56252138 2.5546875 35.55859375 C1.43895103 35.56466644 1.43895103 35.56466644 0.30067444 35.57086182 C-3.450293 35.53679007 -5.12334171 35.42688678 -8.32421875 33.29296875 C-8.71240234 30.35961914 -8.71240234 30.35961914 -8.72265625 26.640625 C-8.72552643 25.98468857 -8.72839661 25.32875214 -8.73135376 24.65293884 C-8.73339578 23.26511777 -8.72785613 21.87726801 -8.71533203 20.48950195 C-8.6993035 18.3666932 -8.71516015 16.24579558 -8.734375 14.12304688 C-8.73239209 12.77473538 -8.72854741 11.42642508 -8.72265625 10.078125 C-8.71927246 8.849729 -8.71588867 7.62133301 -8.71240234 6.35571289 C-8.32421875 3.29296875 -8.32421875 3.29296875 -7.13208008 1.38720703 C-4.65301122 -0.11329082 -2.88784692 -0.04786487 0 0 Z " fill="#7F7F7F" transform="translate(104.32421875,153.70703125)"/>
<path d="M0 0 C1.02814316 0.00222061 2.05628632 0.00444122 3.11558533 0.00672913 C4.85727745 0.00684242 4.85727745 0.00684242 6.63415527 0.00695801 C8.52943214 0.01469994 8.52943214 0.01469994 10.46299744 0.02259827 C12.39193092 0.02472069 12.39193092 0.02472069 14.35983276 0.02688599 C17.78427561 0.03071034 21.20867628 0.0405399 24.63310242 0.05158997 C28.12522308 0.06180587 31.61735053 0.06638399 35.10948181 0.07142639 C41.96561897 0.08216225 48.82172806 0.09923767 55.67784119 0.12025452 C56.80284119 3.87025452 56.80284119 3.87025452 55.67784119 6.12025452 C36.53784119 6.12025452 17.39784119 6.12025452 -2.32215881 6.12025452 C-2.65215881 4.47025452 -2.98215881 2.82025452 -3.32215881 1.12025452 C-2.32215881 0.12025452 -2.32215881 0.12025452 0 0 Z " fill="#D5D5D5" transform="translate(138.32215881347656,48.87974548339844)"/>
<path d="M0 0 C0.33 0 0.66 0 1 0 C1.44223108 8.69721116 1.44223108 8.69721116 -2 13 C-5.47803151 16.34427454 -8.20230258 16.38308771 -12.93678284 16.40545654 C-13.63481032 16.41280894 -14.3328378 16.42016133 -15.05201763 16.42773652 C-17.39101401 16.44872934 -19.72952006 16.44844221 -22.06860352 16.44824219 C-23.74591406 16.45889616 -25.4232168 16.47084532 -27.10050964 16.48399353 C-31.65872357 16.51590029 -36.21682425 16.52924783 -40.77513242 16.53904247 C-45.55065727 16.55214948 -50.32608548 16.58129374 -55.10154724 16.60845947 C-63.12895761 16.65179275 -71.15634931 16.68388734 -79.18383789 16.70849609 C-88.44619933 16.73694673 -97.70841143 16.77916113 -106.97067696 16.82973552 C-116.84604661 16.88365573 -126.72143982 16.92943525 -136.59686542 16.97177219 C-139.43309264 16.98433817 -142.26931145 16.99818388 -145.10553169 17.01222992 C-149.57965989 17.0338425 -154.05377617 17.04982139 -158.52794075 17.06158638 C-160.16330104 17.06666039 -161.7986571 17.07346651 -163.43400192 17.08220482 C-186.96501285 17.20438015 -186.96501285 17.20438015 -192.0625 14.1875 C-195.6960122 10.08514752 -196.25004109 7.50090403 -196 2 C-195.505 2.70125 -195.01 3.4025 -194.5 4.125 C-190.55611945 8.66046263 -186.04291607 12.86162586 -180 14 C-177.7815909 14.09610132 -175.56049441 14.13492199 -173.3400116 14.14044189 C-172.33773961 14.14489858 -172.33773961 14.14489858 -171.3152197 14.1494453 C-169.07756538 14.1581128 -166.83996469 14.15963888 -164.60229492 14.16113281 C-162.99731838 14.16576235 -161.39234294 14.17078719 -159.78736877 14.17617798 C-155.42777095 14.18929048 -151.06818852 14.19574463 -146.70857406 14.20018864 C-143.98411779 14.20312107 -141.25966572 14.2072262 -138.53521156 14.21169281 C-130.00878742 14.22536439 -121.48237287 14.23503285 -112.95593852 14.2388947 C-103.11744995 14.24337548 -93.27910031 14.26092572 -83.44065398 14.2898953 C-75.83288069 14.31151816 -68.22514646 14.3215993 -60.61734277 14.32293582 C-56.0748344 14.32398337 -51.53245669 14.32988053 -46.9899807 14.34775543 C-42.71605671 14.36424668 -38.44236146 14.36638654 -34.16841698 14.35761642 C-32.60232938 14.35684663 -31.03622942 14.36118123 -29.47017288 14.37107468 C-27.32682433 14.38381797 -25.18428306 14.37790529 -23.04093933 14.36749268 C-21.84319476 14.36895924 -20.64545019 14.3704258 -19.41141033 14.3719368 C-12.70582349 13.64084489 -7.76724366 10.65889722 -3 6 C-1.13076797 2.85011127 -1.13076797 2.85011127 0 0 Z " fill="#AFA5A6" transform="translate(214,193)"/>
<path d="M0 0 C0.66 0 1.32 0 2 0 C2 0.66 2 1.32 2 2 C0.25 3.7265625 0.25 3.7265625 -2 5.625 C-2.7425 6.25664062 -3.485 6.88828125 -4.25 7.5390625 C-4.8275 8.02117187 -5.405 8.50328125 -6 9 C-5.278125 9.70125 -4.55625 10.4025 -3.8125 11.125 C-1.00176187 13.92770745 1.49516226 16.92262792 4 20 C2.68 20.33 1.36 20.66 0 21 C0 21.99 0 22.98 0 24 C-3.56206722 24.14567407 -7.12336551 24.23419196 -10.6875 24.3125 C-11.69490234 24.35439453 -12.70230469 24.39628906 -13.74023438 24.43945312 C-21.09943646 24.5608921 -21.09943646 24.5608921 -23.82275391 22.86474609 C-25.20703125 21.48046875 -25.20703125 21.48046875 -27 19 C-26.28972656 18.37351563 -25.57945313 17.74703125 -24.84765625 17.1015625 C-23.92855469 16.28429687 -23.00945312 15.46703125 -22.0625 14.625 C-21.14597656 13.81289062 -20.22945313 13.00078125 -19.28515625 12.1640625 C-16.96398605 10.21290653 -16.96398605 10.21290653 -16 8 C-16.9590625 7.566875 -16.9590625 7.566875 -17.9375 7.125 C-20 6 -20 6 -21 4 C-20.01 3.67 -19.02 3.34 -18 3 C-17.34 2.34 -16.68 1.68 -16 1 C-15.38125 1.7734375 -15.38125 1.7734375 -14.75 2.5625 C-13.11709874 4.24773916 -13.11709874 4.24773916 -11 3.8125 C-8.74262618 2.97340108 -8.74262618 2.97340108 -6 1 C-5.67 1.66 -5.34 2.32 -5 3 C-2.3094472 1.77992056 -2.3094472 1.77992056 0 0 Z M-12 13 C-13.66962369 14.47582808 -15.3356306 15.95574891 -17 17.4375 C-17.928125 18.26121094 -18.85625 19.08492187 -19.8125 19.93359375 C-20.8953125 20.95646484 -20.8953125 20.95646484 -22 22 C-22 22.33 -22 22.66 -22 23 C-15.07 23 -8.14 23 -1 23 C-6.00607137 16.82491357 -6.00607137 16.82491357 -12 13 Z " fill="#898989" transform="translate(128,163)"/>
<path d="M0 0 C44.55 0.495 44.55 0.495 90 1 C90 1.99 90 2.98 90 4 C60.3 4 30.6 4 0 4 C0 2.68 0 1.36 0 0 Z " fill="#575757" transform="translate(21,70)"/>
<path d="M0 0 C29.37 0 58.74 0 89 0 C88.67 1.32 88.34 2.64 88 4 C58.96 3.67 29.92 3.34 0 3 C0 2.01 0 1.02 0 0 Z " fill="#595959" transform="translate(122,71)"/>
<path d="M0 0 C7.26 0 14.52 0 22 0 C21.67 0.66 21.34 1.32 21 2 C11.595 2.495 11.595 2.495 2 3 C4.31 4.98 6.62 6.96 9 9 C10.7092067 10.9637694 12.39155314 12.95288582 14 15 C14.61488281 14.36191406 15.22976562 13.72382813 15.86328125 13.06640625 C16.67152344 12.24011719 17.47976562 11.41382813 18.3125 10.5625 C19.11300781 9.73878906 19.91351563 8.91507813 20.73828125 8.06640625 C23 6 23 6 26 5 C24.84906278 8.45281166 23.6794007 9.38082163 20.9375 11.6875 C20.20402344 12.31011719 19.47054687 12.93273437 18.71484375 13.57421875 C17.86599609 14.27998047 17.86599609 14.27998047 17 15 C18.65 16.98 20.3 18.96 22 21 C20.68 21 19.36 21 18 21 C17.34 21.66 16.68 22.32 16 23 C15.01 22.34 14.02 21.68 13 21 C13 20.34 13 19.68 13 19 C11.02 20.65 9.04 22.3 7 24 C6.34 23.67 5.68 23.34 5 23 C6.62339805 21.29115995 8.29319053 19.62553283 10 18 C10.66 18 11.32 18 12 18 C11.01 16.68 10.02 15.36 9 14 C8.34 15.32 7.68 16.64 7 18 C6.34 17.67 5.68 17.34 5 17 C5 15.68 5 14.36 5 13 C3.48990073 11.22239242 3.48990073 11.22239242 1.5 9.75 C0.8503125 9.22921875 0.200625 8.7084375 -0.46875 8.171875 C-0.9740625 7.78515625 -1.479375 7.3984375 -2 7 C-2.02690844 9.62506802 -2.04679404 12.24986173 -2.0625 14.875 C-2.07087891 15.62136719 -2.07925781 16.36773437 -2.08789062 17.13671875 C-2.20688084 21.19845578 -2.20688084 21.19845578 -1 25 C-2.32 25 -3.64 25 -5 25 C-5 17.74 -5 10.48 -5 3 C-3.68 2.67 -2.36 2.34 -1 2 C-0.67 1.34 -0.34 0.68 0 0 Z " fill="#9D9D9D" transform="translate(158,157)"/>
<path d="M0 0 C-0.17298401 2.33528415 -0.70225369 3.69177582 -2.33203125 5.37890625 C-6.57211538 9 -6.57211538 9 -9 9 C-9 9.66 -9 10.32 -9 11 C-9.639375 11.474375 -10.27875 11.94875 -10.9375 12.4375 C-13.28372963 13.9091365 -13.28372963 13.9091365 -14 17 C-15.3828125 18.33447266 -15.3828125 18.33447266 -17.125 19.6640625 C-17.74890625 20.14617187 -18.3728125 20.62828125 -19.015625 21.125 C-19.67046875 21.62 -20.3253125 22.115 -21 22.625 C-22.29193414 23.6168392 -23.58361405 24.60900966 -24.875 25.6015625 C-26.421875 26.78878906 -26.421875 26.78878906 -28 28 C-28.33 28.33 -28.66 28.66 -29 29 C-31.67058851 29.14115161 -34.32432238 29.04247107 -37 29 C-35.71937515 27.2925002 -34.38232443 25.62626404 -33 24 C-32.34 24 -31.68 24 -31 24 C-30.67 23.01 -30.34 22.02 -30 21 C-27.88929261 19.18285414 -25.78128326 17.48711325 -23.5625 15.8125 C-22.28476043 14.83124436 -21.00741933 13.84946965 -19.73046875 12.8671875 C-19.09802246 12.3834668 -18.46557617 11.89974609 -17.81396484 11.40136719 C-14.517206 8.85447677 -11.30581056 6.2015271 -8.0859375 3.55859375 C-5.49183192 1.62030138 -3.29861842 0 0 0 Z " fill="#737373" transform="translate(100,108)"/>
<path d="M0 0 C0.33 0 0.66 0 1 0 C1.16276042 2.01822917 1.32552083 4.03645833 1.48828125 6.0546875 C1.87393036 8.39519216 1.87393036 8.39519216 5 10 C5 10.66 5 11.32 5 12 C12.92 12.33 20.84 12.66 29 13 C29 12.01 29 11.02 29 10 C29.639375 9.835 30.27875 9.67 30.9375 9.5 C33.16119241 8.218214 33.16119241 8.218214 33.48828125 6.0859375 C33.7275978 4.06424845 33.86893028 2.03158061 34 0 C34.99 0.66 35.98 1.32 37 2 C37.36328125 4.53125 37.36328125 4.53125 37.3125 7.5 C37.30863281 8.4796875 37.30476563 9.459375 37.30078125 10.46875 C37 13 37 13 35 15 C32.37039373 15.18742538 29.84806665 15.25569353 27.21875 15.23046875 C26.44946167 15.23001053 25.68017334 15.22955231 24.88757324 15.2290802 C23.26015685 15.22605753 21.63274336 15.21817074 20.00537109 15.20581055 C17.50998723 15.18757299 15.01497475 15.18530073 12.51953125 15.18554688 C10.94010095 15.18063093 9.36067317 15.17480228 7.78125 15.16796875 C6.65777161 15.16629951 6.65777161 15.16629951 5.51159668 15.16459656 C0.23214321 15.11607161 0.23214321 15.11607161 -2 14 C-2.05389087 12.04196493 -2.09274217 10.08351091 -2.125 8.125 C-2.14820312 7.03445312 -2.17140625 5.94390625 -2.1953125 4.8203125 C-2 2 -2 2 0 0 Z " fill="#515151" transform="translate(99,174)"/>
<path d="M0 0 C3.60241671 0.44638642 5.58501264 2.06368719 8.25 4.4375 C8.95640625 5.05496094 9.6628125 5.67242187 10.390625 6.30859375 C12 8 12 8 12 10 C13.32 10.66 14.64 11.32 16 12 C16 12.66 16 13.32 16 14 C17.32 14.66 18.64 15.32 20 16 C19.01 16.33 18.02 16.66 17 17 C17.495 19.475 17.495 19.475 18 22 C16.36114929 20.60014836 14.72321773 19.19920688 13.08984375 17.79296875 C11.65114965 16.55864988 10.20539344 15.33253049 8.75390625 14.11328125 C8.03074219 13.49839844 7.30757812 12.88351563 6.5625 12.25 C5.88316406 11.67765625 5.20382813 11.1053125 4.50390625 10.515625 C3 9 3 9 3 7 C-3.17398461 10.15267299 -7.94783982 14.28006804 -13 19 C-13.66 18.67 -14.32 18.34 -15 18 C-13.625 16.5 -13.625 16.5 -12 15 C-11.34 15 -10.68 15 -10 15 C-10 14.34 -10 13.68 -10 13 C-8.02705044 11.38658567 -5.94530349 9.98168195 -3.84765625 8.53515625 C-1.72122729 7.04300394 -1.72122729 7.04300394 -1 4 C-2.65 4.66 -4.3 5.32 -6 6 C-4 4 -2 2 0 0 Z " fill="#8E8E8E" transform="translate(101,104)"/>
<path d="M0 0 C1.485 0.99 1.485 0.99 3 2 C3.22137393 4.62697064 3.28162025 7.00893964 3.1875 9.625 C3.16719727 10.68460938 3.16719727 10.68460938 3.14648438 11.765625 C3.1111104 13.51074128 3.05730221 15.25546608 3 17 C3.9075 16.154375 4.815 15.30875 5.75 14.4375 C8.67025483 11.97396749 8.67025483 11.97396749 11.375 12.1875 C11.91125 12.455625 12.4475 12.72375 13 13 C11.66666667 15.66666667 10.33333333 18.33333333 9 21 C13.95 21.33 18.9 21.66 24 22 C24 22.66 24 23.32 24 24 C20.37501666 24.02893932 16.75006287 24.04677792 13.125 24.0625 C11.57619141 24.07506836 11.57619141 24.07506836 9.99609375 24.08789062 C9.00996094 24.09111328 8.02382813 24.09433594 7.0078125 24.09765625 C5.64100342 24.10551147 5.64100342 24.10551147 4.24658203 24.11352539 C2 24 2 24 0 23 C0 15.41 0 7.82 0 0 Z " fill="#595959" transform="translate(44,165)"/>
<path d="M0 0 C18.81 0 37.62 0 57 0 C57 0.66 57 1.32 57 2 C50.16582552 2.89087795 43.50841551 3.13308006 36.62109375 3.09765625 C35.56841812 3.0962413 34.51574249 3.09482635 33.4311676 3.09336853 C30.09991501 3.08781296 26.76873196 3.07526888 23.4375 3.0625 C21.1660166 3.05747925 18.89453214 3.05291735 16.62304688 3.04882812 C11.0820079 3.03785812 5.54100892 3.02116483 0 3 C0 2.01 0 1.02 0 0 Z " fill="#575757" transform="translate(136,50)"/>
<path d="M0 0 C0.33 0 0.66 0 1 0 C1.05787784 3.62493334 1.0935542 7.24974857 1.125 10.875 C1.14175781 11.90753906 1.15851563 12.94007813 1.17578125 14.00390625 C1.18222656 14.99003906 1.18867188 15.97617188 1.1953125 16.9921875 C1.20578613 17.90339355 1.21625977 18.81459961 1.22705078 19.75341797 C1 22 1 22 -1 24 C-3.24658203 24.22705078 -3.24658203 24.22705078 -6.0078125 24.1953125 C-6.99394531 24.18886719 -7.98007813 24.18242187 -8.99609375 24.17578125 C-10.54490234 24.15064453 -10.54490234 24.15064453 -12.125 24.125 C-13.16527344 24.11597656 -14.20554688 24.10695312 -15.27734375 24.09765625 C-17.85179092 24.07403747 -20.42578212 24.04110149 -23 24 C-23 23.34 -23 22.68 -23 22 C-17.72 22 -12.44 22 -7 22 C-7.33 20.35 -7.66 18.7 -8 17 C-10.47636012 15.62533375 -10.47636012 15.62533375 -13 15 C-12.67 14.01 -12.34 13.02 -12 12 C-9.0625 12.8125 -9.0625 12.8125 -6 14 C-5.67 14.99 -5.34 15.98 -5 17 C-4.01 17 -3.02 17 -2 17 C-2.02320313 15.94039062 -2.04640625 14.88078125 -2.0703125 13.7890625 C-2.08906944 12.4010487 -2.10726972 11.0130273 -2.125 9.625 C-2.14175781 8.92632812 -2.15851563 8.22765625 -2.17578125 7.5078125 C-2.19344267 5.67102514 -2.10303261 3.83398037 -2 2 C-1.34 1.34 -0.68 0.68 0 0 Z " fill="#585858" transform="translate(188,165)"/>
<path d="M0 0 C1.35117416 0.0001133 1.35117416 0.0001133 2.72964478 0.00022888 C3.70364227 0.00539017 4.67763977 0.01055145 5.68115234 0.01586914 C6.67714447 0.01728409 7.6731366 0.01869904 8.6993103 0.02015686 C11.88860037 0.02576603 15.0778209 0.03832009 18.26708984 0.05102539 C20.425943 0.05603921 22.58479725 0.06060232 24.74365234 0.06469727 C30.04315534 0.07573844 35.34261763 0.09248552 40.64208984 0.11352539 C41.13708984 1.59852539 41.13708984 1.59852539 41.64208984 3.11352539 C25.80208984 3.11352539 9.96208984 3.11352539 -6.35791016 3.11352539 C-6.35791016 2.45352539 -6.35791016 1.79352539 -6.35791016 1.11352539 C-4.00590956 -0.06247491 -2.62056615 -0.00732002 0 0 Z " fill="#575757" transform="translate(158.35791015625,38.886474609375)"/>
<path d="M0 0 C16.17 0 32.34 0 49 0 C49.495 0.99 49.495 0.99 50 2 C41.30126262 2.99355944 32.68677204 3.15115627 23.9375 3.125 C22.64005859 3.12886719 21.34261719 3.13273437 20.00585938 3.13671875 C12.94094269 3.12955715 6.01023458 2.90394859 -1 2 C-0.67 1.34 -0.34 0.68 0 0 Z " fill="#565656" transform="translate(132,61)"/>
<path d="M0 0 C1.48831242 0.00667405 2.97660807 0.01863442 4.46484375 0.03515625 C5.22345703 0.03966797 5.98207031 0.04417969 6.76367188 0.04882812 C8.64326246 0.06064945 10.52281274 0.07858547 12.40234375 0.09765625 C12.78453142 1.75380282 13.11629477 3.42222649 13.40234375 5.09765625 C12.40234375 6.09765625 12.40234375 6.09765625 8.8046875 6.1953125 C7.31637508 6.18863845 5.82807943 6.17667808 4.33984375 6.16015625 C3.58123047 6.15564453 2.82261719 6.15113281 2.04101562 6.14648438 C0.16142504 6.13466305 -1.71812524 6.11672703 -3.59765625 6.09765625 C-3.97984392 4.44150968 -4.31160727 2.77308601 -4.59765625 1.09765625 C-3.59765625 0.09765625 -3.59765625 0.09765625 0 0 Z " fill="#9E9E9E" transform="translate(90.59765625,46.90234375)"/>
<path d="M0 0 C3.14862333 1.35510371 4.93374938 3.13735009 7.28125 5.625 C8.07144531 6.45128906 8.86164063 7.27757813 9.67578125 8.12890625 C10.26746094 8.76699219 10.85914063 9.40507813 11.46875 10.0625 C10.85 10.18625 10.23125 10.31 9.59375 10.4375 C7.27754168 10.93447356 7.27754168 10.93447356 5.46875 13.0625 C4.705625 12.258125 3.9425 11.45375 3.15625 10.625 C0.67444102 7.89450976 0.67444102 7.89450976 -2.53125 7.0625 C-2.53125 6.0725 -2.53125 5.0825 -2.53125 4.0625 C-5.589202 5.79809438 -8.16504989 7.44722619 -10.53125 10.0625 C-11.19125 9.7325 -11.85125 9.4025 -12.53125 9.0625 C-10.98644587 7.52369511 -9.4196806 6.00691175 -7.84375 4.5 C-6.97363281 3.65308594 -6.10351562 2.80617188 -5.20703125 1.93359375 C-2.53125 0.0625 -2.53125 0.0625 0 0 Z " fill="#8C8C8C" transform="translate(144.53125,110.9375)"/>
<path d="M0 0 C1.39456452 0.00667256 2.78911118 0.01863093 4.18359375 0.03515625 C4.89451172 0.03966797 5.60542969 0.04417969 6.33789062 0.04882812 C8.09899388 0.06064761 9.86005411 0.07858362 11.62109375 0.09765625 C12.68359375 1.97265625 12.68359375 1.97265625 13.62109375 4.09765625 C13.29109375 4.75765625 12.96109375 5.41765625 12.62109375 6.09765625 C7.34109375 6.09765625 2.06109375 6.09765625 -3.37890625 6.09765625 C-3.70890625 4.44765625 -4.03890625 2.79765625 -4.37890625 1.09765625 C-3.37890625 0.09765625 -3.37890625 0.09765625 0 0 Z " fill="#999999" transform="translate(37.37890625,46.90234375)"/>
<path d="M0 0 C5.28 0 10.56 0 16 0 C16.33 1.65 16.66 3.3 17 5 C16 6 16 6 12.40234375 6.09765625 C10.91403133 6.0909822 9.42573568 6.07902183 7.9375 6.0625 C7.17888672 6.05798828 6.42027344 6.05347656 5.63867188 6.04882812 C3.75908129 6.0370068 1.87953101 6.01907078 0 6 C-1 3 -1 3 0 0 Z " fill="#9C9C9C" transform="translate(60,47)"/>
<path d="M0 0 C0.33 0 0.66 0 1 0 C1 5.28 1 10.56 1 16 C5.29 16 9.58 16 14 16 C14 16.33 14 16.66 14 17 C11.03 17.33 8.06 17.66 5 18 C7.97 18.33 10.94 18.66 14 19 C14 19.33 14 19.66 14 20 C11.72923158 20.02699725 9.45837179 20.04639453 7.1875 20.0625 C5.29064453 20.07990234 5.29064453 20.07990234 3.35546875 20.09765625 C0 20 0 20 -3 19 C-3.82622671 13.39436958 -4.06795656 8.57710648 -3 3 C-2.34 3.33 -1.68 3.66 -1 4 C-0.67 2.68 -0.34 1.36 0 0 Z " fill="#656565" transform="translate(127,44)"/>
<path d="M0 0 C1.81242052 -0.02687279 3.62495233 -0.04633715 5.4375 -0.0625 C6.44683594 -0.07410156 7.45617187 -0.08570313 8.49609375 -0.09765625 C11 0 11 0 12 1 C12.07226502 2.85287502 12.0838122 4.70833878 12.0625 6.5625 C12.05347656 7.57441406 12.04445313 8.58632812 12.03515625 9.62890625 C12.02355469 10.41136719 12.01195313 11.19382813 12 12 C10 10.625 10 10.625 8 9 C8 8.34 8 7.68 8 7 C6.68 7 5.36 7 4 7 C3.67 5.35 3.34 3.7 3 2 C2.01 1.67 1.02 1.34 0 1 C0 0.67 0 0.34 0 0 Z " fill="#5C5C5C" transform="translate(71,154)"/>
<path d="M0 0 C5 1 5 1 7.3125 3.4375 C9 6 9 6 9 8 C9.66 8 10.32 8 11 8 C10.67 8.66 10.34 9.32 10 10 C7.69 8.02 5.38 6.04 3 4 C2.97309156 6.62506802 2.95320596 9.24986173 2.9375 11.875 C2.92912109 12.62136719 2.92074219 13.36773437 2.91210938 14.13671875 C2.79311916 18.19845578 2.79311916 18.19845578 4 22 C2.68 22 1.36 22 0 22 C0 14.74 0 7.48 0 0 Z " fill="#B2B2B2" transform="translate(153,160)"/>
<path d="M0 0 C7.26 0 14.52 0 22 0 C22 0.99 22 1.98 22 3 C23.32 3 24.64 3 26 3 C26 3.66 26 4.32 26 5 C25.34 5 24.68 5 24 5 C24 5.66 24 6.32 24 7 C22.46875 8.5078125 22.46875 8.5078125 20.5 10.125 C19.8503125 10.66382813 19.200625 11.20265625 18.53125 11.7578125 C18.0259375 12.16773438 17.520625 12.57765625 17 13 C16.34 12.67 15.68 12.34 15 12 C15.99 10.35 16.98 8.7 18 7 C17.34 7 16.68 7 16 7 C17 4 17 4 20 2 C17.04160645 1.97310551 14.08345573 1.95321259 11.125 1.9375 C10.28324219 1.92912109 9.44148438 1.92074219 8.57421875 1.91210938 C7.76855469 1.90888672 6.96289062 1.90566406 6.1328125 1.90234375 C5.38918457 1.89710693 4.64555664 1.89187012 3.87939453 1.88647461 C1.90867432 1.88213364 1.90867432 1.88213364 0 3 C0 2.01 0 1.02 0 0 Z " fill="#BBBBBB" transform="translate(53,158)"/>
<path d="M0 0 C-0.375 1.9375 -0.375 1.9375 -1 4 C-1.99 4.495 -1.99 4.495 -3 5 C-3 4.34 -3 3.68 -3 3 C-4.98 3.99 -4.98 3.99 -7 5 C-7.33 4.34 -7.66 3.68 -8 3 C-4.93882432 0.37613513 -4.26826873 0 0 0 Z M-12 6 C-11.34 6.99 -10.68 7.98 -10 9 C-9.01 9.66 -8.02 10.32 -7 11 C-10.63 14.3 -14.26 17.6 -18 21 C-18 20.01 -18 19.02 -18 18 C-17.484375 17.525625 -16.96875 17.05125 -16.4375 16.5625 C-15.963125 16.046875 -15.48875 15.53125 -15 15 C-15.185625 14.38125 -15.37125 13.7625 -15.5625 13.125 C-15.706875 12.42375 -15.85125 11.7225 -16 11 C-14.0625 8.25 -14.0625 8.25 -12 6 Z " fill="#979797" transform="translate(71,165)"/>
<path d="M0 0 C0 0.66 0 1.32 0 2 C-2.27752188 3.93075081 -4.56228063 5.75973389 -6.9375 7.5625 C-8.23857288 8.56342312 -9.53936846 9.56470682 -10.83984375 10.56640625 C-12.40412109 11.77103516 -12.40412109 11.77103516 -14 13 C-14.33 13.33 -14.66 13.66 -15 14 C-17.67058851 14.14115161 -20.32432238 14.04247107 -23 14 C-21.71937515 12.2925002 -20.38232443 10.62626404 -19 9 C-18.34 9 -17.68 9 -17 9 C-16.67 8.01 -16.34 7.02 -16 6 C-13.4375 4.8125 -13.4375 4.8125 -11 4 C-12.98 6.97 -12.98 6.97 -15 10 C-10.83167429 7.3566715 -7.16746614 4.49472144 -3.515625 1.171875 C-2 0 -2 0 0 0 Z " fill="#B0A5A6" transform="translate(86,123)"/>
<path d="M0 0 C0.33 0 0.66 0 1 0 C1.61334438 7.23746374 1.61334438 7.23746374 -1.3125 10.875 C-5.03349985 13.81718593 -6.95729956 15.26210726 -11.6875 15.125 C-12.89986328 15.09792969 -12.89986328 15.09792969 -14.13671875 15.0703125 C-15.05904297 15.03550781 -15.05904297 15.03550781 -16 15 C-15.4225 14.72542969 -14.845 14.45085937 -14.25 14.16796875 C-7.57611978 10.70357607 -3.25498462 6.78121797 0 0 Z " fill="#6E6062" transform="translate(214,193)"/>
<path d="M0 0 C3.63 0 7.26 0 11 0 C11 0.33 11 0.66 11 1 C20.57 1.33 30.14 1.66 40 2 C40 2.33 40 2.66 40 3 C26.8 3 13.6 3 0 3 C0 2.01 0 1.02 0 0 Z " fill="#606060" transform="translate(71,71)"/>
<path d="M0 0 C0.99 0.33 1.98 0.66 3 1 C3 17.5 3 34 3 51 C2.34 51 1.68 51 1 51 C1.00222061 50.43481155 1.00444122 49.86962311 1.00672913 49.28730774 C1.02887261 43.39865756 1.04394447 37.51001923 1.05493164 31.62133789 C1.05995675 29.4243929 1.06677788 27.22745124 1.07543945 25.03051758 C1.08758475 21.87059708 1.09324659 18.71072085 1.09765625 15.55078125 C1.10281754 14.57039383 1.10797882 13.59000641 1.11329651 12.57991028 C1.11337204 11.65933334 1.11344757 10.73875641 1.11352539 9.7902832 C1.115746 8.9842012 1.11796661 8.1781192 1.12025452 7.34761047 C0.99073534 4.81913526 0.55273825 2.46773852 0 0 Z " fill="#555253" transform="translate(186,90)"/>
<path d="M0 0 C0.495 0.70125 0.99 1.4025 1.5 2.125 C5.56565424 6.80050238 10.39395551 10.35965315 16 13 C10.43012143 13.28809717 6.80329524 13.20219683 2 10 C-0.40046249 6.83575399 -0.17604849 3.87306682 0 0 Z " fill="#726466" transform="translate(18,195)"/>
<path d="M0 0 C0.33 0.66 0.66 1.32 1 2 C3.54941373 2.31241371 6.00361513 2.51303421 8.5625 2.625 C9.62887695 2.68300781 9.62887695 2.68300781 10.71679688 2.7421875 C12.47742425 2.83671783 14.23867728 2.91945817 16 3 C16 3.66 16 4.32 16 5 C8.74 5 1.48 5 -6 5 C-6 4.34 -6 3.68 -6 3 C-2.53846154 0 -2.53846154 0 0 0 Z " fill="#545454" transform="translate(52,184)"/>
<path d="M0 0 C1.7074998 1.28062485 3.37373596 2.61767557 5 4 C5 4.66 5 5.32 5 6 C-1.93 6 -8.86 6 -16 6 C-16 5.34 -16 4.68 -16 4 C-10.72 4 -5.44 4 0 4 C0 2.68 0 1.36 0 0 Z " fill="#525252" transform="translate(181,183)"/>
<path d="M0 0 C-0.37792797 2.67456717 -0.79766916 3.80611814 -2.77734375 5.703125 C-3.49019531 6.21359375 -4.20304687 6.7240625 -4.9375 7.25 C-5.64777344 7.77078125 -6.35804687 8.2915625 -7.08984375 8.828125 C-9 10 -9 10 -11 10 C-10.67193728 6.96541983 -10.46210789 5.43023838 -8.1875 3.3125 C-2.66666667 0 -2.66666667 0 0 0 Z " fill="#656565" transform="translate(100,108)"/>
<path d="M0 0 C2.74315908 -0.4987562 4.45346648 -0.34832716 6.8203125 1.16015625 C10.33156307 4.03232983 12.94789796 6.44089114 14 11 C14.125 13.8125 14.125 13.8125 14 16 C13.34 15.01 12.68 14.02 12 13 C8.4852122 7.84427212 5.37736248 4.200811 0 1 C0 0.67 0 0.34 0 0 Z " fill="#847A7B" transform="translate(202,29)"/>
<path d="M0 0 C1.98 0.66 3.96 1.32 6 2 C6 3.65 6 5.3 6 7 C-1.26 7 -8.52 7 -16 7 C-16 6.67 -16 6.34 -16 6 C-6.1 5.505 -6.1 5.505 4 5 C4 4.34 4 3.68 4 3 C2.68 2.34 1.36 1.68 0 1 C0 0.67 0 0.34 0 0 Z " fill="#848484" transform="translate(175,180)"/>
<path d="M0 0 C0.125 2.875 0.125 2.875 0 6 C-2 8 -2 8 -5.625 8.125 C-6.73875 8.08375 -7.8525 8.0425 -9 8 C-7.33333333 6.33333333 -5.66666667 4.66666667 -4 3 C-3.4225 2.401875 -2.845 1.80375 -2.25 1.1875 C-1 0 -1 0 0 0 Z " fill="#5A5A5A" transform="translate(136,181)"/>
<path d="M0 0 C0 1.65 0 3.3 0 5 C-3.465 6.485 -3.465 6.485 -7 8 C-6.62952882 5.25851328 -6.31412056 3.41406801 -4.625 1.1875 C-3 0 -3 0 0 0 Z " fill="#6D6D6D" transform="translate(142,115)"/>
<path d="M0 0 C2.0625 0.4375 2.0625 0.4375 4 1 C2.84826645 3.46800047 1.95216435 5.04783565 0 7 C-0.99 7 -1.98 7 -3 7 C-1.125 1.125 -1.125 1.125 0 0 Z " fill="#646464" transform="translate(53,177)"/>
<path d="M0 0 C2.97 0 5.94 0 9 0 C7.02 2.97 7.02 2.97 5 6 C4.01 5.67 3.02 5.34 2 5 C0.8125 2.4375 0.8125 2.4375 0 0 Z " fill="#515151" transform="translate(152,154)"/>
<path d="M0 0 C1.65 0.99 3.3 1.98 5 3 C4.01 3.33 3.02 3.66 2 4 C2.33 5.65 2.66 7.3 3 9 C1.02 7.35 -0.96 5.7 -3 4 C-2.34 3.67 -1.68 3.34 -1 3 C-0.67 2.01 -0.34 1.02 0 0 Z " fill="#808080" transform="translate(116,117)"/>
<path d="M0 0 C3.63 0 7.26 0 11 0 C8 3 8 3 4.9375 3.375 C3.968125 3.25125 2.99875 3.1275 2 3 C1.34 2.01 0.68 1.02 0 0 Z " fill="#4F4F4F" transform="translate(111,154)"/>
<path d="M0 0 C0.99 0.33 1.98 0.66 3 1 C3 6.94 3 12.88 3 19 C2.67 19 2.34 19 2 19 C1.93941406 18.04738281 1.87882813 17.09476563 1.81640625 16.11328125 C1.73261719 14.85902344 1.64882812 13.60476562 1.5625 12.3125 C1.48128906 11.07113281 1.40007812 9.82976562 1.31640625 8.55078125 C1.05508683 5.61819663 0.65201621 2.86558383 0 0 Z " fill="#735C5F" transform="translate(186,90)"/>
<path d="M0 0 C1.32 0 2.64 0 4 0 C4 0.99 4 1.98 4 3 C5.65 2.34 7.3 1.68 9 1 C8.34 2.65 7.68 4.3 7 6 C6.01 6 5.02 6 4 6 C3.896875 5.360625 3.79375 4.72125 3.6875 4.0625 C3.460625 3.381875 3.23375 2.70125 3 2 C2.01 1.67 1.02 1.34 0 1 C0 0.67 0 0.34 0 0 Z " fill="#484848" transform="translate(71,154)"/>
<path d="M0 0 C0.33 0 0.66 0 1 0 C1 2.97 1 5.94 1 9 C0.01 8.34 -0.98 7.68 -2 7 C-2.3125 4.5 -2.3125 4.5 -2 2 C-1.34 1.34 -0.68 0.68 0 0 Z " fill="#4B4B4B" transform="translate(99,174)"/>
<path d="M0 0 C0.33 0.99 0.66 1.98 1 3 C-1.64 3 -4.28 3 -7 3 C-7 2.34 -7 1.68 -7 1 C-4.53721199 -0.231394 -2.7204945 -0.07159196 0 0 Z " fill="#4F4F4F" transform="translate(199,39)"/>
<path d="M0 0 C0.33 0.99 0.66 1.98 1 3 C-1.64 3 -4.28 3 -7 3 C-7 2.34 -7 1.68 -7 1 C-4.53721199 -0.231394 -2.7204945 -0.07159196 0 0 Z " fill="#4F4F4F" transform="translate(159,39)"/>
<path d="M0 0 C1.65 0 3.3 0 5 0 C5.33 1.98 5.66 3.96 6 6 C3.5625 5.25 3.5625 5.25 1 4 C0.1875 1.875 0.1875 1.875 0 0 Z " fill="#626262" transform="translate(199,39)"/>
<path d="M0 0 C0.66 0 1.32 0 2 0 C3.60355101 3.50776784 4.22036864 6.14354879 4 10 C2.05731159 7.08596738 0.53604696 4.14191424 -1 1 C-0.67 0.67 -0.34 0.34 0 0 Z " fill="#A09899" transform="translate(212,35)"/>
<path d="M0 0 C1.32 0 2.64 0 4 0 C4 2.31 4 4.62 4 7 C3.01 6.67 2.02 6.34 1 6 C0.67 4.02 0.34 2.04 0 0 Z " fill="#4E4E4E" transform="translate(114,33)"/>
<path d="M0 0 C2.31 1.98 4.62 3.96 7 6 C6.01 6.495 6.01 6.495 5 7 C2.375 5.8125 2.375 5.8125 0 4 C0 2.68 0 1.36 0 0 Z " fill="#999999" transform="translate(173,171)"/>
<path d="M0 0 C-0.66 0.66 -1.32 1.32 -2 2 C-4.72869407 1.96712417 -7.2966618 1.43602229 -10 1 C-10 0.67 -10 0.34 -10 0 C-3.375 -1.125 -3.375 -1.125 0 0 Z " fill="#706062" transform="translate(189,142)"/>
<path d="M0 0 C0.33 1.32 0.66 2.64 1 4 C-0.65 4.66 -2.3 5.32 -4 6 C-4 5.01 -4 4.02 -4 3 C-2 1.3125 -2 1.3125 0 0 Z " fill="#424242" transform="translate(93,112)"/>
<path d="M0 0 C0.99 0.33 1.98 0.66 3 1 C-0.465 3.97 -0.465 3.97 -4 7 C-2.92598892 4.08482708 -2.22189824 2.22189824 0 0 Z " fill="#DD2C41" transform="translate(24,32)"/>
</svg>
