<svg width="55" height="53" viewBox="0 0 55 53" fill="none" xmlns="http://www.w3.org/2000/svg">
<path d="M50.4001 12.7H27.0001L20.7001 24.3C20.6001 24.4 20.6001 24.5 20.4001 24.6L18.6001 25.5H26.5001C27.8001 25.5 28.9001 26.6 28.9001 27.9C28.9001 29.2 27.8001 30.3 26.5001 30.3H26.4001C25.7001 30.3 25.1001 30.9 25.1001 31.6C25.1001 32.3 25.7001 32.9 26.4001 32.9C27.8001 32.9 28.9001 34 28.9001 35.4V36C28.9001 36.3 28.6001 36.6 28.3001 36.6C28.0001 36.6 27.7001 36.3 27.7001 36V35.4C27.7001 34.7 27.1001 34.1 26.4001 34.1C25.0001 34.1 23.9001 33 23.9001 31.6C23.9001 30.2 25.0001 29.1 26.4001 29.1H26.5001C27.1001 29.1 27.6001 28.6 27.6001 28C27.6001 27.4 27.1001 26.9 26.5001 26.9C15.4001 26.9 16.1001 26.9 15.9001 26.9C15.7001 26.8 15.5001 26.7 15.4001 26.4C15.4001 26.3 15.2001 24.3 15.0001 21.8C15.0001 21.7 15.0001 21.6 15.1001 21.4L19.7001 12.7H12.4001V25.9C12.4001 26.2 12.1001 26.5 11.8001 26.5H6.1001C5.8001 26.5 5.50006 26.2 5.50006 25.9V12.7H3.6001V36.6H18.1001C18.4001 36.6 18.7001 36.9 18.7001 37.2C18.7001 37.5 18.4001 37.8 18.1001 37.8H3.70007V40.3H50.4001V37.8H35.9001C35.6001 37.8 35.3001 37.5 35.3001 37.2C35.3001 36.9 35.6001 36.6 35.9001 36.6H50.4001V22.1H28.3001C28.0001 22.1 27.7001 21.8 27.7001 21.5V15.8C27.7001 15.5 28.0001 15.2 28.3001 15.2H50.4001V12.7Z" fill="#D23346"/>
<path d="M50.4 20.8V16.4H29V20.8H30.3V19.5C30.3 19.2 30.6 18.9 30.9 18.9C31.2 18.9 31.5 19.2 31.5 19.5V20.8H32.8V18.9C32.8 18.6 33.1 18.3 33.4 18.3C33.7 18.3 34 18.6 34 18.9V20.8H35.3V19.5C35.3 19.2 35.6 18.9 35.9 18.9C36.2 18.9 36.5 19.2 36.5 19.5V20.8H37.8V18.9C37.8 18.6 38.1 18.3 38.4 18.3C38.7 18.3 39 18.6 39 18.9V20.8H40.3V19.5C40.3 19.2 40.6 18.9 40.9 18.9C41.2 18.9 41.5 19.2 41.5 19.5V20.8H42.8V18.9C42.8 18.6 43.1 18.3 43.4 18.3C43.7 18.3 44 18.6 44 18.9V20.8H45.3V19.5C45.3 19.2 45.6 18.9 45.9 18.9C46.2 18.9 46.5 19.2 46.5 19.5V20.8H47.8V18.9C47.8 18.6 48.1 18.3 48.4 18.3C48.7 18.3 49 18.6 49 18.9V20.8H50.4Z" fill="#D23346"/>
<path d="M30.7 3.10002C31.2 2.20002 30.8 1.10002 29.9 0.60002C29 0.10002 27.8 0.500008 27.4 1.40001L26.5 3.10002L29.8 4.90001L30.7 3.10002Z" fill="#D23346"/>
<path d="M16.6999 25.1L19.6999 23.5L29.1999 5.80002L28.0999 5.30002L21.8999 16.7C21.7999 16.9 21.5999 17 21.3999 17C20.8999 17 20.5999 16.5 20.8999 16.1L27.0999 4.70001L25.8999 4.10001L16.3999 21.8L16.6999 25.1Z" fill="#D23346"/>
<path d="M6.30005 3.80002C7.00005 3.80002 7.60004 3.2 7.60004 2.5C7.60004 1.8 7.00005 1.30002 6.30005 1.30002C5.60005 1.30002 5 1.90001 5 2.60001C5 3.30001 5.60005 3.80002 6.30005 3.80002Z" fill="#D23346"/>
<path d="M49.7999 3.80002C50.7999 3.80002 51.6999 2.99999 51.6999 1.89999C51.6999 0.799994 50.8999 0 49.7999 0C48.7999 0 47.8999 0.799994 47.8999 1.89999C47.8999 2.99999 48.7999 3.80002 49.7999 3.80002Z" fill="#D23346"/>
<path d="M51.6 8.80002H29L27.7 11.3H51.1C51.4 11.3 51.7 11.6 51.7 11.9C51.7 17.9 51.7 34.7 51.7 41C51.7 41.3 51.4 41.6 51.1 41.6H3.20001C2.90001 41.6 2.60004 41.3 2.60004 41V11.9C2.60004 11.6 2.90001 11.3 3.20001 11.3C5.30001 11.3 18.4 11.3 20.6 11.3L21.9 8.80002H2.60004C1.20004 8.80002 0 9.99999 0 11.4V45.3C0 46.7 1.20004 47.9 2.60004 47.9C5.40004 47.9 48.7 47.9 51.7 47.9C53.1 47.9 54.3 46.7 54.3 45.3V11.4C54.2 9.99999 53 8.80002 51.6 8.80002ZM27.1 46.1C26.4 46.1 25.8 45.5 25.8 44.8C25.8 44.1 26.4 43.5 27.1 43.5C27.8 43.5 28.4 44.1 28.4 44.8C28.4 45.5 27.8 46.1 27.1 46.1Z" fill="#D23346"/>
<path d="M11.2999 12.7H6.8999V25.3H11.2999V12.7Z" fill="#D23346"/>
<path d="M35.9999 49.2H18.2999C17.2999 49.2 16.3999 50 16.3999 51.1C16.3999 52.2 17.1999 53 18.2999 53H35.9999C36.9999 53 37.8999 52.2 37.8999 51.1C37.8999 50 36.9999 49.2 35.9999 49.2Z" fill="#D23346"/>
<path d="M50.3999 50.5H43.9999C43.6999 50.5 43.3999 50.8 43.3999 51.1C43.3999 51.4 43.6999 51.7 43.9999 51.7H50.3999C50.6999 51.7 50.9999 51.4 50.9999 51.1C50.9999 50.8 50.7999 50.5 50.3999 50.5Z" fill="#D23346"/>
<path d="M10 50.5H3.60004C3.30004 50.5 3 50.8 3 51.1C3 51.4 3.30004 51.7 3.60004 51.7H10C10.3 51.7 10.6 51.4 10.6 51.1C10.6 50.8 10.4 50.5 10 50.5Z" fill="#D23346"/>
<path d="M43.7999 0.600006C44.2999 0.600006 44.6999 1 44.6999 1.5C44.6999 2 44.2999 2.39999 43.7999 2.39999C43.2999 2.39999 42.8999 2 42.8999 1.5C42.8999 1.1 43.2999 0.600006 43.7999 0.600006Z" fill="#D23346"/>
<path d="M36.2999 5.60001C36.797 5.60001 37.1999 5.19707 37.1999 4.70001C37.1999 4.20296 36.797 3.80002 36.2999 3.80002C35.8029 3.80002 35.3999 4.20296 35.3999 4.70001C35.3999 5.19707 35.8029 5.60001 36.2999 5.60001Z" fill="#D23346"/>
<path d="M16.6998 2C17.1998 2 17.5998 2.39999 17.5998 2.89999C17.5998 3.39999 17.1998 3.80002 16.6998 3.80002C16.1998 3.80002 15.7998 3.39999 15.7998 2.89999C15.7998 2.39999 16.1998 2 16.6998 2Z" fill="#D23346"/>
</svg>
