<svg xmlns="http://www.w3.org/2000/svg" xmlns:xlink="http://www.w3.org/1999/xlink" width="500" zoomAndPan="magnify" viewBox="0 0 375 374.999991" height="500" preserveAspectRatio="xMidYMid meet" version="1.0"><defs><clipPath id="d51833d9db"><path d="M 30.558594 3.984375 L 356.574219 3.984375 L 356.574219 375 L 30.558594 375 Z M 30.558594 3.984375 " clip-rule="nonzero"/></clipPath><clipPath id="fb9f7cf674"><path d="M 78.875 49.632812 L 258.125 49.632812 L 258.125 228.882812 L 78.875 228.882812 Z M 78.875 49.632812 " clip-rule="nonzero"/></clipPath><clipPath id="1966947524"><path d="M 168 37 L 290 37 L 290 138 L 168 138 Z M 168 37 " clip-rule="nonzero"/></clipPath><clipPath id="66014b74d0"><path d="M 254.328125 -2.933594 L 316.425781 37.769531 L 226.386719 175.140625 L 164.289062 134.4375 Z M 254.328125 -2.933594 " clip-rule="nonzero"/></clipPath><clipPath id="468b955d42"><path d="M 254.328125 -2.933594 L 316.425781 37.769531 L 226.386719 175.140625 L 164.289062 134.4375 Z M 254.328125 -2.933594 " clip-rule="nonzero"/></clipPath><clipPath id="c0db76c475"><path d="M 270 22 L 309 22 L 309 63 L 270 63 Z M 270 22 " clip-rule="nonzero"/></clipPath><clipPath id="7c1194ea51"><path d="M 254.328125 -2.933594 L 316.425781 37.769531 L 226.386719 175.140625 L 164.289062 134.4375 Z M 254.328125 -2.933594 " clip-rule="nonzero"/></clipPath><clipPath id="586ad83c0b"><path d="M 254.328125 -2.933594 L 316.425781 37.769531 L 226.386719 175.140625 L 164.289062 134.4375 Z M 254.328125 -2.933594 " clip-rule="nonzero"/></clipPath><clipPath id="5257d0661a"><path d="M 195 46 L 282 46 L 282 118 L 195 118 Z M 195 46 " clip-rule="nonzero"/></clipPath><clipPath id="f616f191c9"><path d="M 254.328125 -2.933594 L 316.425781 37.769531 L 226.386719 175.140625 L 164.289062 134.4375 Z M 254.328125 -2.933594 " clip-rule="nonzero"/></clipPath><clipPath id="20731f30d5"><path d="M 254.328125 -2.933594 L 316.425781 37.769531 L 226.386719 175.140625 L 164.289062 134.4375 Z M 254.328125 -2.933594 " clip-rule="nonzero"/></clipPath></defs><g clip-path="url(#d51833d9db)"><path fill="#b6b2b2" d="M 90.992188 375 C 92.789062 375 94.410156 373.753906 94.808594 371.925781 C 95.164062 370.292969 103.570312 331.742188 103.855469 311.957031 C 103.894531 309.472656 103.960938 307.226562 104.023438 305.050781 C 104.417969 291.484375 104.65625 283.292969 95.980469 267.828125 C 92.726562 262.027344 88.125 254.976562 82.800781 246.808594 C 68.53125 224.925781 48.984375 194.957031 42.496094 167.960938 C 27.089844 103.882812 57.277344 44.371094 115.90625 23.234375 C 158.535156 7.863281 221.726562 0.199219 280.667969 50.976562 C 316.164062 81.554688 310.328125 114.855469 307.835938 129.074219 C 307.332031 131.933594 307 133.824219 307.082031 135.285156 C 307.4375 141.644531 311.375 146.484375 316.820312 153.183594 C 317.980469 154.605469 319.179688 156.082031 320.460938 157.707031 C 324.585938 162.941406 329.707031 168.335938 334.664062 173.554688 C 339.941406 179.113281 347.808594 187.394531 348.671875 190.417969 C 346.0625 193.941406 339.28125 196.980469 333.785156 199.4375 C 326.351562 202.769531 320.480469 205.394531 320.730469 210.578125 C 321.214844 220.746094 327.5625 225.683594 331.765625 228.949219 C 332.765625 229.726562 334.089844 230.757812 334.5625 231.351562 C 333.832031 233.378906 328.628906 238.042969 323.207031 241.472656 C 321.933594 242.277344 321.234375 243.742188 321.414062 245.238281 C 321.589844 246.734375 322.609375 247.996094 324.039062 248.480469 C 324.082031 248.496094 330.144531 250.671875 332.335938 255.511719 C 333.679688 258.484375 332.15625 260.515625 328.355469 264.441406 C 325.839844 267.042969 323.234375 269.734375 323.148438 273.339844 C 323.0625 276.957031 324.058594 280.546875 325.019531 284.015625 C 326.878906 290.730469 328.632812 297.070312 324.105469 304.996094 C 322.707031 307.441406 316.820312 310.390625 296.699219 310.546875 C 261.828125 310.820312 251.730469 322.726562 248.410156 326.636719 C 248.226562 326.851562 248.070312 327.039062 247.929688 327.195312 C 237.058594 339.210938 239.746094 368.226562 240.089844 371.496094 C 240.3125 373.644531 242.234375 375.207031 244.382812 374.976562 C 246.535156 374.753906 248.09375 372.832031 247.867188 370.679688 C 247.046875 362.757812 246.492188 340.441406 253.730469 332.441406 C 253.917969 332.234375 254.128906 331.984375 254.375 331.699219 C 257.121094 328.460938 265.476562 318.613281 296.761719 318.367188 C 311.742188 318.25 326.246094 317.023438 330.898438 308.878906 C 337.042969 298.121094 334.554688 289.144531 332.558594 281.929688 C 331.710938 278.871094 330.914062 275.984375 330.96875 273.527344 C 331.105469 272.851562 332.902344 270.992188 333.976562 269.882812 C 337.625 266.113281 343.140625 260.414062 339.464844 252.289062 C 337.855469 248.738281 335.191406 246.148438 332.703125 244.359375 C 336.9375 241.082031 341.859375 236.402344 342.402344 232.039062 C 342.941406 227.730469 339.554688 225.097656 336.566406 222.773438 C 332.914062 219.933594 329.140625 217.003906 328.589844 210.910156 C 329.894531 209.753906 334.113281 207.863281 336.984375 206.578125 C 344.046875 203.417969 352.050781 199.832031 355.636719 194.082031 C 359.324219 188.160156 351.769531 180.207031 340.335938 168.167969 C 335.503906 163.078125 330.507812 157.816406 326.605469 152.867188 C 325.285156 151.191406 324.066406 149.695312 322.890625 148.246094 C 318.203125 142.484375 315.105469 138.675781 314.894531 134.851562 C 314.867188 134.261719 315.222656 132.226562 315.539062 130.425781 C 318.027344 116.230469 324.636719 78.527344 285.773438 45.050781 C 260.78125 23.519531 232.632812 10.300781 202.113281 5.753906 C 173.5625 1.503906 143.664062 4.910156 113.253906 15.875 C 84.105469 26.382812 60.117188 46.792969 45.703125 73.347656 C 30.289062 101.75 26.550781 135.097656 34.890625 169.785156 C 41.695312 198.097656 61.667969 228.722656 76.25 251.082031 C 81.5 259.128906 86.03125 266.082031 89.15625 271.65625 C 96.773438 285.230469 96.582031 291.777344 96.203125 304.824219 C 96.140625 307.027344 96.074219 309.304688 96.035156 311.84375 C 95.757812 330.835938 87.253906 369.859375 87.167969 370.25 C 86.703125 372.359375 88.039062 374.445312 90.148438 374.90625 C 90.433594 374.972656 90.714844 375 90.992188 375 " fill-opacity="1" fill-rule="nonzero"/></g><g clip-path="url(#fb9f7cf674)"><path fill="#d63447" d="M 251.742188 153.363281 C 255.261719 153.363281 258.140625 150.484375 258.140625 146.964844 L 258.140625 131.492188 C 258.140625 127.96875 255.261719 125.089844 251.742188 125.089844 L 245.097656 125.089844 C 241.578125 125.089844 237.851562 122.335938 236.816406 118.972656 L 231.148438 105.207031 C 229.484375 102.105469 230.15625 97.53125 232.644531 95.042969 L 237.347656 90.339844 C 239.835938 87.851562 239.835938 83.777344 237.347656 81.289062 L 226.40625 70.347656 C 223.917969 67.859375 219.84375 67.859375 217.355469 70.347656 L 212.652344 75.050781 C 210.164062 77.542969 205.585938 78.214844 202.488281 76.546875 L 188.722656 70.878906 C 185.359375 69.84375 182.605469 66.117188 182.605469 62.597656 L 182.605469 55.953125 C 182.605469 52.433594 179.726562 49.554688 176.207031 49.554688 L 160.730469 49.554688 C 157.210938 49.554688 154.332031 52.433594 154.332031 55.953125 L 154.332031 62.597656 C 154.332031 66.117188 151.578125 69.84375 148.214844 70.878906 L 134.449219 76.546875 C 131.347656 78.214844 126.777344 77.539062 124.289062 75.050781 L 119.585938 70.347656 C 117.09375 67.855469 113.023438 67.855469 110.535156 70.347656 L 99.59375 81.289062 C 97.101562 83.777344 97.101562 87.847656 99.59375 90.339844 L 104.296875 95.042969 C 106.789062 97.53125 107.460938 102.105469 105.796875 105.207031 L 100.125 118.972656 C 99.089844 122.335938 95.363281 125.089844 91.84375 125.089844 L 85.203125 125.089844 C 81.683594 125.089844 78.800781 127.96875 78.800781 131.488281 L 78.800781 146.964844 C 78.800781 150.484375 81.683594 153.363281 85.203125 153.363281 L 91.84375 153.363281 C 95.363281 153.363281 99.089844 156.117188 100.125 159.480469 L 105.796875 173.246094 C 107.464844 176.347656 106.789062 180.921875 104.300781 183.410156 L 99.59375 188.117188 C 97.105469 190.605469 97.105469 194.675781 99.59375 197.164062 L 110.535156 208.105469 C 113.023438 210.597656 117.09375 210.59375 119.585938 208.105469 L 124.289062 203.402344 C 126.78125 200.914062 131.351562 200.238281 134.453125 201.90625 L 148.21875 207.574219 C 151.582031 208.609375 154.335938 212.335938 154.335938 215.855469 L 154.335938 222.5 C 154.335938 226.019531 157.214844 228.902344 160.734375 228.902344 L 176.207031 228.902344 C 179.726562 228.902344 182.609375 226.019531 182.609375 222.5 L 182.609375 215.855469 C 182.609375 212.335938 185.359375 208.609375 188.722656 207.574219 L 202.488281 201.90625 C 205.589844 200.238281 210.164062 200.910156 212.652344 203.402344 L 217.359375 208.105469 C 219.847656 210.597656 223.921875 210.59375 226.410156 208.105469 L 237.351562 197.164062 C 239.835938 194.679688 239.839844 190.605469 237.351562 188.113281 L 232.644531 183.410156 C 230.15625 180.921875 229.484375 176.34375 231.148438 173.246094 L 236.816406 159.480469 C 237.851562 156.117188 241.578125 153.363281 245.101562 153.363281 Z M 168.46875 176.121094 C 148.09375 176.121094 131.578125 159.601562 131.578125 139.226562 C 131.578125 118.851562 148.09375 102.332031 168.46875 102.332031 C 188.84375 102.332031 205.363281 118.851562 205.363281 139.226562 C 205.363281 159.601562 188.84375 176.121094 168.46875 176.121094 Z M 168.46875 176.121094 " fill-opacity="1" fill-rule="nonzero"/></g><g clip-path="url(#1966947524)"><g clip-path="url(#66014b74d0)"><g clip-path="url(#468b955d42)"><path fill="#737373" d="M 287.011719 62.042969 L 283.890625 58.089844 L 205.253906 120.128906 C 204.042969 121.085938 204.179688 123.3125 205.507812 125.238281 C 205.59375 125.359375 205.683594 125.480469 205.78125 125.605469 L 206.039062 125.9375 L 205.988281 125.976562 L 186.257812 130.6875 L 179.175781 121.710938 L 188.347656 103.621094 L 188.402344 103.578125 C 188.515625 103.710938 188.628906 103.847656 188.746094 103.972656 C 190.355469 105.695312 192.457031 106.34375 193.640625 105.410156 L 272.277344 43.371094 L 269.375 39.695312 L 267.398438 37.1875 L 185.824219 101.546875 L 175.410156 122.085938 L 168.953125 134.824219 C 168.949219 134.832031 168.949219 134.839844 168.945312 134.847656 C 168.925781 134.878906 168.90625 134.917969 168.894531 134.953125 C 168.890625 134.960938 168.890625 134.96875 168.886719 134.976562 C 168.875 135.011719 168.855469 135.046875 168.847656 135.089844 C 168.839844 135.097656 168.84375 135.101562 168.839844 135.113281 C 168.828125 135.148438 168.816406 135.183594 168.808594 135.21875 C 168.804688 135.234375 168.804688 135.253906 168.800781 135.269531 C 168.792969 135.296875 168.785156 135.328125 168.78125 135.355469 C 168.777344 135.382812 168.773438 135.402344 168.773438 135.429688 C 168.769531 135.449219 168.769531 135.472656 168.765625 135.492188 C 168.761719 135.53125 168.757812 135.570312 168.757812 135.609375 C 168.757812 135.613281 168.753906 135.617188 168.757812 135.625 C 168.738281 136.078125 168.878906 136.535156 169.171875 136.902344 C 169.175781 136.90625 169.175781 136.914062 169.179688 136.914062 C 169.652344 137.503906 170.429688 137.765625 171.140625 137.589844 L 185.03125 134.273438 L 207.429688 128.921875 L 289.003906 64.5625 Z M 287.011719 62.042969 " fill-opacity="1" fill-rule="nonzero"/></g></g></g><g clip-path="url(#c0db76c475)"><g clip-path="url(#7c1194ea51)"><g clip-path="url(#586ad83c0b)"><path fill="#737373" d="M 307.527344 41.664062 L 293.964844 24.476562 C 291.75 21.664062 287.664062 21.183594 284.855469 23.398438 L 270.40625 34.796875 L 271.394531 36.050781 L 291.015625 60.917969 L 292.003906 62.171875 L 306.449219 50.777344 C 309.257812 48.5625 309.742188 44.476562 307.527344 41.664062 Z M 307.527344 41.664062 " fill-opacity="1" fill-rule="nonzero"/></g></g></g><g clip-path="url(#5257d0661a)"><g clip-path="url(#f616f191c9)"><g clip-path="url(#20731f30d5)"><path fill="#737373" d="M 197.183594 114.714844 C 199.195312 117.261719 202.113281 118.304688 203.703125 117.054688 L 281.796875 55.441406 L 274.519531 46.210938 L 196.421875 107.824219 C 194.832031 109.078125 195.171875 112.160156 197.183594 114.714844 Z M 197.183594 114.714844 " fill-opacity="1" fill-rule="nonzero"/></g></g></g></svg>