<svg xmlns="http://www.w3.org/2000/svg" xmlns:xlink="http://www.w3.org/1999/xlink" width="500" zoomAndPan="magnify" viewBox="0 0 375 374.999991" height="500" preserveAspectRatio="xMidYMid meet" version="1.0"><defs><clipPath id="8d7e440e29"><path d="M 159.144531 260.230469 L 215.855469 260.230469 L 215.855469 269.132812 L 159.144531 269.132812 Z M 159.144531 260.230469 " clip-rule="nonzero"/></clipPath><clipPath id="e95007c41b"><path d="M 9.421875 41.546875 L 365.671875 41.546875 L 365.671875 310 L 9.421875 310 Z M 9.421875 41.546875 " clip-rule="nonzero"/></clipPath><clipPath id="9d43d35a3c"><path d="M 9.421875 242 L 365.671875 242 L 365.671875 251 L 9.421875 251 Z M 9.421875 242 " clip-rule="nonzero"/></clipPath><clipPath id="b289b787a9"><path d="M 51.613281 82.863281 L 348.613281 82.863281 L 348.613281 208.113281 L 51.613281 208.113281 Z M 51.613281 82.863281 " clip-rule="nonzero"/></clipPath><clipPath id="ce3abe3119"><path d="M 56.523438 82.863281 L 353.523438 82.863281 L 353.523438 208.113281 L 56.523438 208.113281 Z M 56.523438 82.863281 " clip-rule="nonzero"/></clipPath></defs><g clip-path="url(#8d7e440e29)"><path fill="#ffffff" d="M 159.144531 260.230469 L 215.871094 260.230469 L 215.871094 269.132812 L 159.144531 269.132812 Z M 159.144531 260.230469 " fill-opacity="1" fill-rule="nonzero"/></g><path fill="#b6b2b2" d="M 182.4375 201.226562 C 181.972656 201.226562 181.503906 201.144531 181.035156 200.976562 C 178.949219 200.203125 177.886719 197.882812 178.660156 195.792969 L 216.675781 93.257812 C 217.449219 91.171875 219.761719 90.109375 221.855469 90.882812 C 223.945312 91.65625 225.007812 93.976562 224.234375 96.0625 L 186.21875 198.597656 C 185.621094 200.21875 184.082031 201.226562 182.4375 201.226562 Z M 182.4375 201.226562 " fill-opacity="1" fill-rule="nonzero"/><path fill="#b6b2b2" d="M 92.027344 182.105469 C 78.902344 182.105469 68.226562 171.984375 68.226562 159.550781 L 68.226562 114.25 C 68.226562 112.027344 70.03125 110.21875 72.253906 110.21875 C 74.480469 110.21875 76.285156 112.027344 76.285156 114.25 L 76.285156 159.550781 C 76.285156 167.542969 83.34375 174.046875 92.027344 174.046875 C 100.714844 174.046875 107.773438 167.542969 107.773438 159.550781 L 107.773438 114.25 C 107.773438 112.027344 109.578125 110.21875 111.804688 110.21875 C 114.027344 110.21875 115.832031 112.027344 115.832031 114.25 L 115.832031 159.550781 C 115.832031 171.984375 105.15625 182.105469 92.027344 182.105469 Z M 92.027344 182.105469 " fill-opacity="1" fill-rule="nonzero"/><path fill="#b6b2b2" d="M 130.910156 182.105469 C 130.261719 182.105469 129.609375 181.953125 129 181.621094 C 127.039062 180.566406 126.308594 178.125 127.363281 176.164062 L 161.996094 111.878906 C 163.050781 109.921875 165.492188 109.1875 167.449219 110.246094 C 169.410156 111.300781 170.140625 113.742188 169.085938 115.699219 L 134.453125 179.984375 C 133.738281 181.332031 132.34375 182.105469 130.910156 182.105469 Z M 130.910156 182.105469 " fill-opacity="1" fill-rule="nonzero"/><path fill="#b6b2b2" d="M 165.550781 182.105469 C 164.113281 182.105469 162.730469 181.339844 161.996094 179.984375 L 127.363281 115.699219 C 126.308594 113.742188 127.039062 111.300781 129 110.246094 C 130.957031 109.1875 133.398438 109.921875 134.453125 111.878906 L 169.085938 176.164062 C 170.140625 178.125 169.410156 180.566406 167.449219 181.621094 C 166.847656 181.945312 166.195312 182.105469 165.550781 182.105469 Z M 165.550781 182.105469 " fill-opacity="1" fill-rule="nonzero"/><path fill="#b6b2b2" d="M 257.125 182.105469 C 244 182.105469 233.324219 171.984375 233.324219 159.550781 L 233.324219 114.25 C 233.324219 112.027344 235.128906 110.21875 237.351562 110.21875 C 239.574219 110.21875 241.382812 112.027344 241.382812 114.25 L 241.382812 159.550781 C 241.382812 167.542969 248.441406 174.046875 257.125 174.046875 C 265.8125 174.046875 272.871094 167.542969 272.871094 159.550781 L 272.871094 114.25 C 272.871094 112.027344 274.675781 110.21875 276.898438 110.21875 C 279.125 110.21875 280.929688 112.027344 280.929688 114.25 L 280.929688 159.550781 C 280.921875 171.984375 270.246094 182.105469 257.125 182.105469 Z M 257.125 182.105469 " fill-opacity="1" fill-rule="nonzero"/><path fill="#b6b2b2" d="M 302.667969 186.472656 C 300.445312 186.472656 298.640625 184.667969 298.640625 182.441406 L 298.617188 109.421875 C 298.617188 107.199219 300.421875 105.394531 302.644531 105.394531 C 304.867188 105.394531 306.671875 107.199219 306.671875 109.421875 L 306.699219 182.441406 C 306.707031 184.667969 304.902344 186.464844 302.667969 186.472656 C 302.675781 186.472656 302.667969 186.472656 302.667969 186.472656 Z M 302.667969 186.472656 " fill-opacity="1" fill-rule="nonzero"/><path fill="#b6b2b2" d="M 148.601562 288.960938 C 141.253906 288.960938 135.277344 282.980469 135.277344 275.632812 C 135.277344 268.28125 141.253906 262.304688 148.601562 262.304688 C 155.953125 262.304688 161.929688 268.28125 161.929688 275.632812 C 161.929688 282.980469 155.953125 288.960938 148.601562 288.960938 Z M 148.601562 270.363281 C 145.695312 270.363281 143.332031 272.722656 143.332031 275.632812 C 143.332031 278.539062 145.695312 280.902344 148.601562 280.902344 C 151.511719 280.902344 153.875 278.539062 153.875 275.632812 C 153.875 272.722656 151.511719 270.363281 148.601562 270.363281 Z M 148.601562 270.363281 " fill-opacity="1" fill-rule="nonzero"/><path fill="#b6b2b2" d="M 187.464844 288.960938 C 180.117188 288.960938 174.136719 282.980469 174.136719 275.632812 C 174.136719 268.28125 180.117188 262.304688 187.464844 262.304688 C 194.816406 262.304688 200.792969 268.28125 200.792969 275.632812 C 200.792969 282.980469 194.816406 288.960938 187.464844 288.960938 Z M 187.464844 270.363281 C 184.558594 270.363281 182.195312 272.722656 182.195312 275.632812 C 182.195312 278.539062 184.558594 280.902344 187.464844 280.902344 C 190.375 280.902344 192.734375 278.539062 192.734375 275.632812 C 192.734375 272.722656 190.375 270.363281 187.464844 270.363281 Z M 187.464844 270.363281 " fill-opacity="1" fill-rule="nonzero"/><path fill="#b6b2b2" d="M 226.328125 288.960938 C 218.980469 288.960938 213 282.980469 213 275.632812 C 213 268.28125 218.980469 262.304688 226.328125 262.304688 C 233.679688 262.304688 239.65625 268.28125 239.65625 275.632812 C 239.65625 282.980469 233.679688 288.960938 226.328125 288.960938 Z M 226.328125 270.363281 C 223.421875 270.363281 221.058594 272.722656 221.058594 275.632812 C 221.058594 278.539062 223.421875 280.902344 226.328125 280.902344 C 229.238281 280.902344 231.597656 278.539062 231.597656 275.632812 C 231.597656 272.722656 229.238281 270.363281 226.328125 270.363281 Z M 226.328125 270.363281 " fill-opacity="1" fill-rule="nonzero"/><g clip-path="url(#e95007c41b)"><path fill="#b6b2b2" d="M 340.53125 309.128906 L 34.398438 309.128906 C 20.613281 309.128906 9.386719 297.910156 9.386719 284.117188 L 9.386719 66.675781 C 9.386719 52.890625 20.605469 41.664062 34.398438 41.664062 L 340.53125 41.664062 C 354.328125 41.664062 365.542969 52.882812 365.542969 66.675781 L 365.542969 284.117188 C 365.542969 297.910156 354.328125 309.128906 340.53125 309.128906 Z M 34.398438 49.722656 C 25.050781 49.722656 17.445312 57.328125 17.445312 66.675781 L 17.445312 284.117188 C 17.445312 293.464844 25.050781 301.070312 34.398438 301.070312 L 340.53125 301.070312 C 349.878906 301.070312 357.488281 293.464844 357.488281 284.117188 L 357.488281 66.675781 C 357.488281 57.328125 349.878906 49.722656 340.53125 49.722656 Z M 34.398438 49.722656 " fill-opacity="1" fill-rule="nonzero"/></g><g clip-path="url(#9d43d35a3c)"><path fill="#b6b2b2" d="M 361.515625 250.191406 L 13.417969 250.191406 C 11.191406 250.191406 9.386719 248.386719 9.386719 246.164062 C 9.386719 243.941406 11.191406 242.136719 13.417969 242.136719 L 361.515625 242.136719 C 363.738281 242.136719 365.542969 243.941406 365.542969 246.164062 C 365.542969 248.386719 363.738281 250.191406 361.515625 250.191406 Z M 361.515625 250.191406 " fill-opacity="1" fill-rule="nonzero"/></g><path fill="#b6b2b2" d="M 251.839844 346.324219 C 249.617188 346.324219 247.8125 344.519531 247.8125 342.292969 L 247.8125 305.097656 C 247.8125 302.875 249.617188 301.070312 251.839844 301.070312 C 254.0625 301.070312 255.867188 302.875 255.867188 305.097656 L 255.867188 342.292969 C 255.867188 344.519531 254.0625 346.324219 251.839844 346.324219 Z M 125 346.324219 C 122.777344 346.324219 120.972656 344.519531 120.972656 342.292969 L 120.972656 305.097656 C 120.972656 302.875 122.777344 301.070312 125 301.070312 C 127.226562 301.070312 129.03125 302.875 129.03125 305.097656 L 129.03125 342.292969 C 129.03125 344.519531 127.226562 346.324219 125 346.324219 Z M 125 346.324219 " fill-opacity="1" fill-rule="nonzero"/><path fill="#b6b2b2" d="M 273.773438 374.9375 L 101.160156 374.9375 C 91.046875 374.9375 82.828125 366.710938 82.828125 356.605469 C 82.828125 346.492188 91.054688 338.273438 101.160156 338.273438 L 273.773438 338.273438 C 283.886719 338.273438 292.105469 346.5 292.105469 356.605469 C 292.113281 366.710938 283.886719 374.9375 273.773438 374.9375 Z M 101.160156 346.324219 C 95.492188 346.324219 90.886719 350.933594 90.886719 356.597656 C 90.886719 362.261719 95.492188 366.871094 101.160156 366.871094 L 273.773438 366.871094 C 279.4375 366.871094 284.046875 362.261719 284.046875 356.597656 C 284.046875 350.933594 279.4375 346.324219 273.773438 346.324219 Z M 101.160156 346.324219 " fill-opacity="1" fill-rule="nonzero"/><path fill="#737373" d="M 186.378906 201.152344 C 185.914062 201.152344 185.445312 201.074219 184.976562 200.902344 C 182.890625 200.128906 181.828125 197.808594 182.601562 195.722656 L 220.617188 93.1875 C 221.390625 91.097656 223.703125 90.035156 225.796875 90.808594 C 227.886719 91.582031 228.949219 93.902344 228.175781 95.992188 L 190.160156 198.527344 C 189.5625 200.144531 188.023438 201.152344 186.378906 201.152344 Z M 186.378906 201.152344 " fill-opacity="1" fill-rule="nonzero"/><path fill="#737373" d="M 95.972656 182.03125 C 82.84375 182.03125 72.167969 171.910156 72.167969 159.476562 L 72.167969 114.175781 C 72.167969 111.953125 73.972656 110.148438 76.195312 110.148438 C 78.421875 110.148438 80.226562 111.953125 80.226562 114.175781 L 80.226562 159.476562 C 80.226562 167.472656 87.285156 173.972656 95.972656 173.972656 C 104.65625 173.972656 111.714844 167.472656 111.714844 159.476562 L 111.714844 114.175781 C 111.714844 111.953125 113.519531 110.148438 115.746094 110.148438 C 117.96875 110.148438 119.773438 111.953125 119.773438 114.175781 L 119.773438 159.476562 C 119.773438 171.910156 109.097656 182.03125 95.972656 182.03125 Z M 95.972656 182.03125 " fill-opacity="1" fill-rule="nonzero"/><path fill="#737373" d="M 134.851562 182.03125 C 134.207031 182.03125 133.550781 181.878906 132.941406 181.546875 C 130.980469 180.492188 130.25 178.050781 131.304688 176.09375 L 165.9375 111.808594 C 166.992188 109.851562 169.433594 109.117188 171.390625 110.171875 C 173.351562 111.226562 174.082031 113.667969 173.027344 115.628906 L 138.394531 179.914062 C 137.679688 181.257812 136.285156 182.03125 134.851562 182.03125 Z M 134.851562 182.03125 " fill-opacity="1" fill-rule="nonzero"/><path fill="#737373" d="M 169.492188 182.03125 C 168.054688 182.03125 166.671875 181.265625 165.9375 179.914062 L 131.304688 115.628906 C 130.25 113.667969 130.980469 111.226562 132.941406 110.171875 C 134.898438 109.117188 137.339844 109.851562 138.394531 111.808594 L 173.027344 176.09375 C 174.082031 178.050781 173.351562 180.492188 171.390625 181.546875 C 170.789062 181.871094 170.136719 182.03125 169.492188 182.03125 Z M 169.492188 182.03125 " fill-opacity="1" fill-rule="nonzero"/><path fill="#737373" d="M 261.066406 182.03125 C 247.941406 182.03125 237.265625 171.910156 237.265625 159.476562 L 237.265625 114.175781 C 237.265625 111.953125 239.070312 110.148438 241.292969 110.148438 C 243.519531 110.148438 245.324219 111.953125 245.324219 114.175781 L 245.324219 159.476562 C 245.324219 167.472656 252.382812 173.972656 261.066406 173.972656 C 269.753906 173.972656 276.8125 167.472656 276.8125 159.476562 L 276.8125 114.175781 C 276.8125 111.953125 278.617188 110.148438 280.839844 110.148438 C 283.066406 110.148438 284.871094 111.953125 284.871094 114.175781 L 284.871094 159.476562 C 284.863281 171.910156 274.1875 182.03125 261.066406 182.03125 Z M 261.066406 182.03125 " fill-opacity="1" fill-rule="nonzero"/><path fill="#737373" d="M 306.609375 186.398438 C 304.386719 186.398438 302.582031 184.59375 302.582031 182.371094 L 302.558594 109.351562 C 302.558594 107.125 304.363281 105.320312 306.585938 105.320312 C 308.808594 105.320312 310.617188 107.125 310.617188 109.351562 L 310.640625 182.371094 C 310.648438 184.59375 308.84375 186.390625 306.609375 186.398438 C 306.617188 186.398438 306.609375 186.398438 306.609375 186.398438 Z M 306.609375 186.398438 " fill-opacity="1" fill-rule="nonzero"/><g clip-path="url(#b289b787a9)"><path fill="#737373" d="M 344.472656 309.054688 L 38.339844 309.054688 C 24.554688 309.054688 13.328125 297.839844 13.328125 284.042969 L 13.328125 66.605469 C 13.328125 52.816406 24.546875 41.59375 38.339844 41.59375 L 344.472656 41.59375 C 358.269531 41.59375 369.484375 52.808594 369.484375 66.605469 L 369.484375 284.042969 C 369.484375 297.839844 358.269531 309.054688 344.472656 309.054688 Z M 38.339844 49.648438 C 28.992188 49.648438 21.386719 57.257812 21.386719 66.605469 L 21.386719 284.042969 C 21.386719 293.390625 28.992188 300.996094 38.339844 300.996094 L 344.472656 300.996094 C 353.820312 300.996094 361.429688 293.390625 361.429688 284.042969 L 361.429688 66.605469 C 361.429688 57.257812 353.820312 49.648438 344.472656 49.648438 Z M 38.339844 49.648438 " fill-opacity="1" fill-rule="nonzero"/></g><path fill="#d63447" d="M 191.292969 201.152344 C 190.824219 201.152344 190.355469 201.074219 189.890625 200.902344 C 187.804688 200.128906 186.738281 197.808594 187.511719 195.722656 L 225.53125 93.1875 C 226.304688 91.097656 228.617188 90.035156 230.710938 90.808594 C 232.796875 91.582031 233.863281 93.902344 233.089844 95.992188 L 195.070312 198.527344 C 194.476562 200.144531 192.9375 201.152344 191.292969 201.152344 Z M 191.292969 201.152344 " fill-opacity="1" fill-rule="nonzero"/><path fill="#d63447" d="M 100.882812 182.03125 C 87.757812 182.03125 77.082031 171.910156 77.082031 159.476562 L 77.082031 114.175781 C 77.082031 111.953125 78.886719 110.148438 81.109375 110.148438 C 83.332031 110.148438 85.136719 111.953125 85.136719 114.175781 L 85.136719 159.476562 C 85.136719 167.472656 92.195312 173.972656 100.882812 173.972656 C 109.570312 173.972656 116.628906 167.472656 116.628906 159.476562 L 116.628906 114.175781 C 116.628906 111.953125 118.433594 110.148438 120.65625 110.148438 C 122.882812 110.148438 124.6875 111.953125 124.6875 114.175781 L 124.6875 159.476562 C 124.6875 171.910156 114.007812 182.03125 100.882812 182.03125 Z M 100.882812 182.03125 " fill-opacity="1" fill-rule="nonzero"/><path fill="#d63447" d="M 139.761719 182.03125 C 139.117188 182.03125 138.464844 181.878906 137.851562 181.546875 C 135.894531 180.492188 135.160156 178.050781 136.214844 176.09375 L 170.847656 111.808594 C 171.90625 109.851562 174.347656 109.117188 176.304688 110.171875 C 178.261719 111.226562 178.996094 113.667969 177.941406 115.628906 L 143.308594 179.914062 C 142.589844 181.257812 141.195312 182.03125 139.761719 182.03125 Z M 139.761719 182.03125 " fill-opacity="1" fill-rule="nonzero"/><path fill="#d63447" d="M 174.402344 182.03125 C 172.96875 182.03125 171.582031 181.265625 170.847656 179.914062 L 136.214844 115.628906 C 135.160156 113.667969 135.894531 111.226562 137.851562 110.171875 C 139.8125 109.117188 142.253906 109.851562 143.308594 111.808594 L 177.941406 176.09375 C 178.996094 178.050781 178.261719 180.492188 176.304688 181.546875 C 175.699219 181.871094 175.046875 182.03125 174.402344 182.03125 Z M 174.402344 182.03125 " fill-opacity="1" fill-rule="nonzero"/><path fill="#d63447" d="M 265.980469 182.03125 C 252.855469 182.03125 242.175781 171.910156 242.175781 159.476562 L 242.175781 114.175781 C 242.175781 111.953125 243.980469 110.148438 246.207031 110.148438 C 248.429688 110.148438 250.234375 111.953125 250.234375 114.175781 L 250.234375 159.476562 C 250.234375 167.472656 257.292969 173.972656 265.980469 173.972656 C 274.667969 173.972656 281.726562 167.472656 281.726562 159.476562 L 281.726562 114.175781 C 281.726562 111.953125 283.53125 110.148438 285.753906 110.148438 C 287.976562 110.148438 289.78125 111.953125 289.78125 114.175781 L 289.78125 159.476562 C 289.773438 171.910156 279.097656 182.03125 265.980469 182.03125 Z M 265.980469 182.03125 " fill-opacity="1" fill-rule="nonzero"/><path fill="#d63447" d="M 311.523438 186.398438 C 309.300781 186.398438 307.492188 184.59375 307.492188 182.371094 L 307.46875 109.351562 C 307.46875 107.125 309.273438 105.320312 311.5 105.320312 C 313.722656 105.320312 315.527344 107.125 315.527344 109.351562 L 315.550781 182.371094 C 315.558594 184.59375 313.753906 186.390625 311.523438 186.398438 C 311.53125 186.398438 311.523438 186.398438 311.523438 186.398438 Z M 311.523438 186.398438 " fill-opacity="1" fill-rule="nonzero"/><g clip-path="url(#ce3abe3119)"><path fill="#d63447" d="M 349.386719 309.054688 L 43.253906 309.054688 C 29.464844 309.054688 18.242188 297.839844 18.242188 284.042969 L 18.242188 66.605469 C 18.242188 52.816406 29.457031 41.59375 43.253906 41.59375 L 349.386719 41.59375 C 363.183594 41.59375 374.398438 52.808594 374.398438 66.605469 L 374.398438 284.042969 C 374.398438 297.839844 363.183594 309.054688 349.386719 309.054688 Z M 43.253906 49.648438 C 33.90625 49.648438 26.300781 57.257812 26.300781 66.605469 L 26.300781 284.042969 C 26.300781 293.390625 33.90625 300.996094 43.253906 300.996094 L 349.386719 300.996094 C 358.734375 300.996094 366.339844 293.390625 366.339844 284.042969 L 366.339844 66.605469 C 366.339844 57.257812 358.734375 49.648438 349.386719 49.648438 Z M 43.253906 49.648438 " fill-opacity="1" fill-rule="nonzero"/></g></svg>