<svg xmlns="http://www.w3.org/2000/svg" xmlns:xlink="http://www.w3.org/1999/xlink" width="500" zoomAndPan="magnify" viewBox="0 0 375 374.999991" height="500" preserveAspectRatio="xMidYMid meet" version="1.0"><defs><clipPath id="5e8cc1a9aa"><path d="M 54 134.046875 L 321 134.046875 L 321 326 L 54 326 Z M 54 134.046875 " clip-rule="nonzero"/></clipPath><clipPath id="4f1bf51a51"><path d="M 112.273438 180.085938 L 151.828125 180.085938 L 151.828125 233.664062 L 112.273438 233.664062 Z M 112.273438 180.085938 " clip-rule="nonzero"/></clipPath><clipPath id="175d59db09"><path d="M 301 215 L 308.933594 215 L 308.933594 222 L 301 222 Z M 301 215 " clip-rule="nonzero"/></clipPath><clipPath id="7b673c0c1c"><path d="M 146.386719 0 L 237.390625 0 L 237.390625 162.363281 L 146.386719 162.363281 Z M 146.386719 0 " clip-rule="nonzero"/></clipPath></defs><g clip-path="url(#5e8cc1a9aa)"><path fill="#b6b2b2" d="M 306.894531 325.25 L 68.117188 325.25 C 60.578125 325.25 54.445312 319.117188 54.445312 311.578125 L 54.445312 147.828125 C 54.445312 140.289062 60.578125 134.15625 68.117188 134.15625 L 306.894531 134.15625 C 314.433594 134.15625 320.566406 140.289062 320.566406 147.828125 L 320.566406 311.578125 C 320.566406 319.117188 314.433594 325.25 306.894531 325.25 Z M 68.117188 140.390625 C 64.015625 140.390625 60.679688 143.726562 60.679688 147.824219 L 60.679688 311.578125 C 60.679688 315.675781 64.015625 319.011719 68.117188 319.011719 L 306.894531 319.011719 C 310.992188 319.011719 314.328125 315.679688 314.328125 311.578125 L 314.328125 147.828125 C 314.328125 143.726562 310.992188 140.390625 306.894531 140.390625 Z M 68.117188 140.390625 " fill-opacity="1" fill-rule="evenodd"/></g><path fill="#b6b2b2" d="M 222.964844 373.890625 C 221.242188 373.890625 219.84375 372.492188 219.84375 370.773438 L 219.84375 325.25 L 155.164062 325.25 L 155.164062 370.773438 C 155.164062 374.878906 148.925781 374.875 148.925781 370.773438 L 148.925781 322.132812 C 148.925781 320.410156 150.324219 319.011719 152.046875 319.011719 L 222.964844 319.011719 C 224.6875 319.011719 226.082031 320.410156 226.082031 322.132812 L 226.082031 370.773438 C 226.082031 372.488281 224.6875 373.890625 222.964844 373.890625 Z M 222.964844 373.890625 " fill-opacity="1" fill-rule="evenodd"/><path fill="#b6b2b2" d="M 250.167969 373.890625 L 124.84375 373.890625 C 120.734375 373.890625 120.734375 367.652344 124.84375 367.652344 L 250.167969 367.652344 C 254.273438 367.652344 254.273438 373.890625 250.167969 373.890625 Z M 250.167969 373.890625 " fill-opacity="1" fill-rule="evenodd"/><path fill="#b6b2b2" d="M 317.449219 292.101562 L 57.5625 292.101562 C 53.457031 292.101562 53.457031 285.863281 57.5625 285.863281 L 317.449219 285.863281 C 321.554688 285.863281 321.554688 292.101562 317.449219 292.101562 Z M 317.449219 292.101562 " fill-opacity="1" fill-rule="evenodd"/><path fill="#b6b2b2" d="M 197.398438 308.675781 L 177.609375 308.675781 C 173.503906 308.675781 173.503906 302.4375 177.609375 302.4375 L 197.398438 302.4375 C 201.503906 302.4375 201.503906 308.675781 197.398438 308.675781 Z M 197.398438 308.675781 " fill-opacity="1" fill-rule="evenodd"/><path fill="#737373" d="M 288.953125 187.722656 C 289.035156 198.738281 303.261719 197.058594 304.980469 186.386719 C 307.484375 170.855469 292.679688 163.289062 281.828125 161.453125 C 261.539062 158.019531 247.992188 175.484375 246.652344 197.074219 C 245.644531 213.316406 254.6875 229.820312 248.878906 243.382812 C 244.1875 254.339844 229.898438 263.070312 214.59375 258.964844 C 201.820312 255.539062 189.648438 241.355469 190.546875 222.453125 C 190.738281 218.46875 191.96875 212.941406 194.109375 211.324219 C 199.542969 207.210938 209.601562 213.289062 211.476562 220.226562 C 212.929688 221.601562 215.859375 222.066406 216.375 225.125 C 216.8125 227.738281 216.035156 231.085938 213.257812 230.472656 C 210.4375 229.613281 214.542969 226.316406 212.8125 225.125 C 198.871094 223.863281 204.972656 246.039062 218.152344 243.382812 C 225.972656 241.804688 230.503906 224.226562 224.832031 215.777344 C 220.296875 209.007812 208.394531 199.820312 198.5625 198.855469 C 181.972656 197.226562 168.5 204.925781 161.160156 212.65625 C 155.824219 218.277344 154.027344 225.777344 147.804688 230.472656 C 149.554688 231.832031 151.101562 231.894531 154.035156 232.695312 C 158.765625 227.082031 160.617188 217.332031 167.394531 214.4375 C 180.214844 208.964844 182.21875 222.210938 184.316406 232.25 C 185.707031 238.910156 188.457031 247.902344 190.546875 251.394531 C 195.84375 260.246094 209.085938 268.09375 224.832031 267.871094 C 235.238281 267.722656 245.425781 261.222656 250.65625 254.960938 C 256.796875 247.613281 259.246094 232.355469 260.011719 222.898438 C 261.390625 205.859375 260.453125 192.683594 267.578125 181.042969 C 268.496094 179.546875 270.042969 176.949219 271.585938 175.699219 C 273.765625 173.9375 280.378906 170.679688 284.054688 170.804688 C 287.828125 170.925781 293.671875 175.027344 293.40625 180.597656 C 293.222656 184.429688 290.628906 184.648438 288.953125 187.722656 " fill-opacity="1" fill-rule="evenodd"/><path fill="#737373" d="M 169.175781 256.738281 C 164.269531 262.671875 174.171875 268.03125 174.519531 261.191406 C 174.640625 258.808594 172.664062 256.527344 169.175781 256.738281 " fill-opacity="1" fill-rule="evenodd"/><g clip-path="url(#4f1bf51a51)"><path fill="#737373" d="M 145.128906 233.585938 C 141.996094 228.242188 135.878906 222.445312 138.894531 215.332031 C 140.566406 211.398438 145.316406 210.316406 149.136719 207.761719 C 154.652344 201.824219 150.105469 191.085938 147.804688 185.054688 C 143.148438 183.621094 138.59375 182.085938 134.441406 180.152344 C 132.378906 191.316406 118.042969 187.710938 113.960938 196.183594 C 107.570312 209.445312 120.570312 229.011719 132.21875 232.695312 C 136.503906 234.050781 141.253906 233.339844 145.128906 233.585938 " fill-opacity="1" fill-rule="evenodd"/></g><g clip-path="url(#175d59db09)"><path fill="#737373" d="M 308.097656 219.78125 C 308.875 216.832031 304.933594 213.777344 301.863281 215.777344 C 298.855469 221.042969 305.554688 222.765625 308.097656 219.78125 " fill-opacity="1" fill-rule="evenodd"/></g><path fill="#737373" d="M 218.601562 190.394531 C 220.035156 189.601562 220.066406 187.410156 219.9375 185.050781 C 218.453125 184.902344 217.960938 183.761719 215.929688 184.160156 C 215.183594 184.898438 215.574219 186.777344 215.484375 188.167969 C 216.410156 189.023438 217.640625 189.574219 218.601562 190.394531 " fill-opacity="1" fill-rule="evenodd"/><path fill="#a09595" d="M 148.695312 181.042969 C 149.789062 178.929688 147.929688 177.460938 148.25 174.8125 C 149.285156 172.433594 154.167969 173.898438 155.820312 172.136719 C 158.394531 163.40625 146.019531 165.957031 142.90625 161.453125 C 141.164062 161.496094 141.144531 163.253906 140.234375 164.121094 C 140.164062 166.269531 142.472656 166.039062 142.011719 168.574219 C 139.1875 170.652344 135.085938 169.847656 134.890625 173.472656 C 134.636719 178.25 143.9375 179.765625 148.695312 181.042969 " fill-opacity="1" fill-rule="evenodd"/><g clip-path="url(#7b673c0c1c)"><path fill="#d63447" d="M 155.375 162.34375 C 155.75 162.425781 155.792969 162.167969 155.820312 161.898438 C 165.140625 152.746094 171.203125 140.261719 178.082031 128.503906 C 191.648438 105.296875 202.839844 79.089844 216.820312 55.925781 C 220.195312 50.328125 223.03125 43.914062 226.171875 37.667969 C 229.269531 31.507812 232.996094 25.164062 235.074219 18.96875 C 236.511719 14.683594 239.121094 3.273438 235.519531 0.710938 C 229.6875 -3.445312 217.386719 11.75 214.59375 15.40625 C 208.394531 23.5 203.925781 33.769531 198.5625 43.457031 C 193.359375 52.859375 189.554688 63.21875 184.761719 73.289062 C 175.109375 93.558594 166.679688 114.664062 158.488281 134.289062 C 154.828125 143.070312 148.949219 150.246094 146.464844 159.226562 C 148.621094 161.078125 152.050781 161.65625 155.375 162.34375 " fill-opacity="1" fill-rule="evenodd"/></g></svg>